<svg version="1.1" viewBox="0.0 0.0 600.0 371.0" fill="none" stroke="none" stroke-linecap="square" stroke-miterlimit="10" width="600" height="371" xmlns:xlink="http://www.w3.org/1999/xlink" xmlns="http://www.w3.org/2000/svg"><path fill="#ffffff" d="M0 0L600.0 0L600.0 371.0L0 371.0L0 0Z" fill-rule="nonzero"/><path stroke="#333333" stroke-width="1.0" stroke-linecap="butt" d="M101.5 300.5L581.5 300.5" fill-rule="nonzero"/><path stroke="#cccccc" stroke-width="1.0" stroke-linecap="butt" d="M101.5 240.5L581.5 240.5" fill-rule="nonzero"/><path stroke="#cccccc" stroke-width="1.0" stroke-linecap="butt" d="M101.5 181.5L581.5 181.5" fill-rule="nonzero"/><path stroke="#cccccc" stroke-width="1.0" stroke-linecap="butt" d="M101.5 121.5L581.5 121.5" fill-rule="nonzero"/><path stroke="#cccccc" stroke-width="1.0" stroke-linecap="butt" d="M101.5 61.5L581.5 61.5" fill-rule="nonzero"/><clipPath id="id_0"><path d="M101.55 61.916668L581.45 61.916668L581.45 300.45L101.55 300.45L101.55 61.916668Z" clip-rule="nonzero"/></clipPath><path stroke="#4285f4" stroke-width="2.0" stroke-linecap="butt" clip-path="url(#id_0)" d="M149.54 279.3073L245.52 286.86823L341.5 79.53742L437.48 242.12532L533.46 268.69138" fill-rule="nonzero"/><path fill="#000000" fill-opacity="0.0" clip-path="url(#id_0)" d="M152.54 279.3073C152.54 280.96414 151.19685 282.3073 149.54 282.3073C147.88315 282.3073 146.54 280.96414 146.54 279.3073C146.54 277.65045 147.88315 276.3073 149.54 276.3073C151.19685 276.3073 152.54 277.65045 152.54 279.3073Z" fill-rule="nonzero"/><path fill="#000000" fill-opacity="0.0" clip-path="url(#id_0)" d="M248.52 286.86823C248.52 288.52505 247.17685 289.86823 245.52 289.86823C243.86314 289.86823 242.52 288.52505 242.52 286.86823C242.52 285.21136 243.86314 283.86823 245.52 283.86823C247.17685 283.86823 248.52 285.21136 248.52 286.86823Z" fill-rule="nonzero"/><path fill="#000000" fill-opacity="0.0" clip-path="url(#id_0)" d="M344.5 79.53742C344.5 81.194275 343.15686 82.53742 341.5 82.53742C339.84314 82.53742 338.5 81.194275 338.5 79.53742C338.5 77.88057 339.84314 76.53742 341.5 76.53742C343.15686 76.53742 344.5 77.88057 344.5 79.53742Z" fill-rule="nonzero"/><path fill="#000000" fill-opacity="0.0" clip-path="url(#id_0)" d="M440.48 242.12532C440.48 243.78218 439.13684 245.12532 437.48 245.12532C435.82315 245.12532 434.48 243.78218 434.48 242.12532C434.48 240.46846 435.82315 239.12532 437.48 239.12532C439.13684 239.12532 440.48 240.46846 440.48 242.12532Z" fill-rule="nonzero"/><path fill="#000000" fill-opacity="0.0" clip-path="url(#id_0)" d="M536.46 268.69138C536.46 270.34824 535.1169 271.69138 533.46 271.69138C531.80316 271.69138 530.46 270.34824 530.46 268.69138C530.46 267.03452 531.80316 265.69138 533.46 265.69138C535.1169 265.69138 536.46 267.03452 536.46 268.69138Z" fill-rule="nonzero"/><path fill="#000000" d="M319.125 349.45L319.125 340.85626L320.25 340.85626L320.25 349.45L319.125 349.45ZM324.09375 348.5125L324.25 349.4344Q323.79688 349.52814 323.45312 349.52814Q322.875 349.52814 322.5625 349.35626Q322.25 349.16876 322.10938 348.8719Q321.98438 348.575 321.98438 347.6219L321.98438 344.04376L321.21875 344.04376L321.21875 343.23126L321.98438 343.23126L321.98438 341.6844L323.03125 341.0594L323.03125 343.23126L324.09375 343.23126L324.09375 344.04376L323.03125 344.04376L323.03125 347.6844Q323.03125 348.1375 323.07812 348.2625Q323.14062 348.3875 323.26562 348.46564Q323.39062 348.54376 323.625 348.54376Q323.8125 348.54376 324.09375 348.5125ZM329.04688 347.45L330.14062 347.575Q329.89062 348.52814 329.1875 349.0594Q328.48438 349.59064 327.40625 349.59064Q326.04688 349.59064 325.23438 348.7469Q324.4375 347.90314 324.4375 346.3875Q324.4375 344.825 325.25 343.96564Q326.0625 343.09064 327.34375 343.09064Q328.59375 343.09064 329.375 343.9344Q330.17188 344.77814 330.17188 346.325Q330.17188 346.41876 330.17188 346.60626L325.53125 346.60626Q325.59375 347.6375 326.10938 348.1844Q326.625 348.71564 327.40625 348.71564Q327.98438 348.71564 328.39062 348.41876Q328.8125 348.10626 329.04688 347.45ZM325.59375 345.7469L329.0625 345.7469Q329.0 344.95 328.67188 344.5594Q328.15625 343.95 327.35938 343.95Q326.625 343.95 326.125 344.4344Q325.64062 344.91876 325.59375 345.7469ZM331.78125 349.45L331.78125 343.23126L332.73438 343.23126L332.73438 344.16876Q333.09375 343.5125 333.39062 343.3094Q333.70312 343.09064 334.07812 343.09064Q334.60938 343.09064 335.15625 343.41876L334.79688 344.40314Q334.40625 344.16876 334.03125 344.16876Q333.67188 344.16876 333.39062 344.3875Q333.125 344.59064 333.01562 344.96564Q332.82812 345.52814 332.82812 346.1844L332.82812 349.45L331.78125 349.45ZM339.85938 348.6844Q339.26562 349.1844 338.71875 349.3875Q338.1875 349.59064 337.5625 349.59064Q336.53125 349.59064 335.98438 349.09064Q335.4375 348.59064 335.4375 347.8094Q335.4375 347.35626 335.64062 346.98126Q335.84375 346.59064 336.1875 346.3719Q336.53125 346.1375 336.95312 346.02814Q337.25 345.9344 337.89062 345.85626Q339.15625 345.71564 339.76562 345.4969Q339.76562 345.27814 339.76562 345.23126Q339.76562 344.575 339.46875 344.3094Q339.0625 343.96564 338.26562 343.96564Q337.53125 343.96564 337.17188 344.23126Q336.8125 344.48126 336.64062 345.1375L335.60938 344.9969Q335.75 344.34064 336.07812 343.9344Q336.40625 343.52814 337.01562 343.3094Q337.625 343.09064 338.42188 343.09064Q339.21875 343.09064 339.71875 343.27814Q340.21875 343.46564 340.45312 343.7469Q340.6875 344.02814 340.78125 344.46564Q340.82812 344.73126 340.82812 345.4344L340.82812 346.84064Q340.82812 348.3094 340.89062 348.7Q340.96875 349.09064 341.17188 349.45L340.0625 349.45Q339.90625 349.1219 339.85938 348.6844ZM339.76562 346.325Q339.1875 346.5594 338.04688 346.73126Q337.39062 346.825 337.125 346.95Q336.85938 347.0594 336.70312 347.27814Q336.5625 347.4969 336.5625 347.77814Q336.5625 348.2 336.875 348.48126Q337.20312 348.7625 337.8125 348.7625Q338.42188 348.7625 338.89062 348.4969Q339.375 348.23126 339.59375 347.7625Q339.76562 347.40314 339.76562 346.71564L339.76562 346.325ZM346.85938 347.16876L347.89062 347.3094Q347.71875 348.3719 347.01562 348.98126Q346.3125 349.59064 345.29688 349.59064Q344.01562 349.59064 343.23438 348.7625Q342.46875 347.91876 342.46875 346.35626Q342.46875 345.35626 342.79688 344.60626Q343.14062 343.84064 343.8125 343.46564Q344.5 343.09064 345.3125 343.09064Q346.3125 343.09064 346.95312 343.60626Q347.60938 344.10626 347.79688 345.0594L346.76562 345.21564Q346.625 344.59064 346.25 344.27814Q345.875 343.95 345.34375 343.95Q344.54688 343.95 344.04688 344.52814Q343.54688 345.09064 343.54688 346.325Q343.54688 347.59064 344.03125 348.15314Q344.51562 348.71564 345.28125 348.71564Q345.90625 348.71564 346.3125 348.34064Q346.73438 347.96564 346.85938 347.16876ZM348.79688 342.075L348.79688 340.85626L349.85938 340.85626L349.85938 342.075L348.79688 342.075ZM348.79688 349.45L348.79688 343.23126L349.85938 343.23126L349.85938 349.45L348.79688 349.45ZM351.40625 346.34064Q351.40625 344.60626 352.35938 343.77814Q353.15625 343.09064 354.3125 343.09064Q355.59375 343.09064 356.40625 343.9344Q357.23438 344.7625 357.23438 346.2469Q357.23438 347.45 356.875 348.1375Q356.51562 348.825 355.8125 349.21564Q355.125 349.59064 354.3125 349.59064Q353.01562 349.59064 352.20312 348.7625Q351.40625 347.91876 351.40625 346.34064ZM352.48438 346.34064Q352.48438 347.52814 353.0 348.1219Q353.53125 348.71564 354.3125 348.71564Q355.10938 348.71564 355.625 348.1219Q356.14062 347.52814 356.14062 346.3094Q356.14062 345.15314 355.60938 344.5594Q355.09375 343.96564 354.3125 343.96564Q353.53125 343.96564 353.0 344.5594Q352.48438 345.1375 352.48438 346.34064ZM358.79688 349.45L358.79688 343.23126L359.73438 343.23126L359.73438 344.10626Q360.42188 343.09064 361.71875 343.09064Q362.28125 343.09064 362.75 343.29376Q363.23438 343.4969 363.46875 343.825Q363.70312 344.15314 363.79688 344.59064Q363.84375 344.8875 363.84375 345.6219L363.84375 349.45L362.79688 349.45L362.79688 345.66876Q362.79688 345.0125 362.67188 344.7Q362.54688 344.3875 362.23438 344.2Q361.92188 343.9969 361.5 343.9969Q360.82812 343.9969 360.32812 344.4344Q359.84375 344.85626 359.84375 346.04376L359.84375 349.45L358.79688 349.45Z" fill-rule="nonzero"/><path fill="#000000" d="M29.550013 211.76146L20.956263 211.76146L20.956263 208.79271Q20.956263 207.79271 21.081263 207.26146Q21.253138 206.52708 21.690638 206.01146Q22.268763 205.32396 23.175013 204.99583Q24.065638 204.65208 25.206263 204.65208Q26.190638 204.65208 26.940638 204.88646Q27.690638 205.10521 28.190638 205.46458Q28.690638 205.82396 28.971888 206.26146Q29.253138 206.68333 29.409388 207.27708Q29.550013 207.87083 29.550013 208.65208L29.550013 211.76146ZM28.534388 210.62083L28.534388 208.79271Q28.534388 207.93333 28.378138 207.44896Q28.221888 206.96458 27.925013 206.68333Q27.534388 206.27708 26.846888 206.05833Q26.159388 205.82396 25.190638 205.82396Q23.846888 205.82396 23.128138 206.27708Q22.393763 206.71458 22.143763 207.33958Q21.971888 207.80833 21.971888 208.80833L21.971888 210.62083L28.534388 210.62083ZM29.550013 198.80833L28.628138 198.80833Q29.690638 199.54271 29.690638 200.79271Q29.690638 201.33958 29.487513 201.82396Q29.268763 202.29271 28.956263 202.52708Q28.628138 202.76146 28.159388 202.85521Q27.862513 202.91771 27.175013 202.91771L23.331263 202.91771L23.331263 201.85521L26.784388 201.85521Q27.596888 201.85521 27.893763 201.79271Q28.300013 201.69896 28.550013 201.38646Q28.784388 201.05833 28.784388 200.57396Q28.784388 200.10521 28.550013 199.69896Q28.300013 199.27708 27.878138 199.10521Q27.456263 198.91771 26.659388 198.91771L23.331263 198.91771L23.331263 197.87083L29.550013 197.87083L29.550013 198.80833ZM29.550013 195.90208L23.331263 195.90208L23.331263 194.94896L24.268763 194.94896Q23.612513 194.58958 23.409388 194.29271Q23.190638 193.98021 23.190638 193.60521Q23.190638 193.07396 23.518763 192.52708L24.503138 192.88646Q24.268763 193.27708 24.268763 193.65208Q24.268763 194.01146 24.487513 194.29271Q24.690638 194.55833 25.065638 194.66771Q25.628138 194.85521 26.284388 194.85521L29.550013 194.85521L29.550013 195.90208ZM28.784388 187.82396Q29.284388 188.41771 29.487513 188.96458Q29.690638 189.49583 29.690638 190.12083Q29.690638 191.15208 29.190638 191.69896Q28.690638 192.24583 27.909388 192.24583Q27.456263 192.24583 27.081263 192.04271Q26.690638 191.83958 26.471888 191.49583Q26.237513 191.15208 26.128138 190.73021Q26.034388 190.43333 25.956263 189.79271Q25.815638 188.52708 25.596888 187.91771Q25.378138 187.91771 25.331263 187.91771Q24.675013 187.91771 24.409388 188.21458Q24.065638 188.62083 24.065638 189.41771Q24.065638 190.15208 24.331263 190.51146Q24.581263 190.87083 25.237513 191.04271L25.096888 192.07396Q24.440638 191.93333 24.034388 191.60521Q23.628138 191.27708 23.409388 190.66771Q23.190638 190.05833 23.190638 189.26146Q23.190638 188.46458 23.378138 187.96458Q23.565638 187.46458 23.846888 187.23021Q24.128138 186.99583 24.565638 186.90208Q24.831263 186.85521 25.534388 186.85521L26.940638 186.85521Q28.409388 186.85521 28.800013 186.79271Q29.190638 186.71458 29.550013 186.51146L29.550013 187.62083Q29.221888 187.77708 28.784388 187.82396ZM26.425013 187.91771Q26.659388 188.49583 26.831263 189.63646Q26.925013 190.29271 27.050013 190.55833Q27.159388 190.82396 27.378138 190.98021Q27.596888 191.12083 27.878138 191.12083Q28.300013 191.12083 28.581263 190.80833Q28.862513 190.48021 28.862513 189.87083Q28.862513 189.26146 28.596888 188.79271Q28.331263 188.30833 27.862513 188.08958Q27.503138 187.91771 26.815638 187.91771L26.425013 187.91771ZM27.268763 180.82396L27.409388 179.79271Q28.471888 179.96458 29.081263 180.66771Q29.690638 181.37083 29.690638 182.38646Q29.690638 183.66771 28.862513 184.44896Q28.018763 185.21458 26.456263 185.21458Q25.456263 185.21458 24.706263 184.88646Q23.940638 184.54271 23.565638 183.87083Q23.190638 183.18333 23.190638 182.37083Q23.190638 181.37083 23.706263 180.73021Q24.206263 180.07396 25.159388 179.88646L25.315638 180.91771Q24.690638 181.05833 24.378138 181.43333Q24.050013 181.80833 24.050013 182.33958Q24.050013 183.13646 24.628138 183.63646Q25.190638 184.13646 26.425013 184.13646Q27.690638 184.13646 28.253138 183.65208Q28.815638 183.16771 28.815638 182.40208Q28.815638 181.77708 28.440638 181.37083Q28.065638 180.94896 27.268763 180.82396ZM22.175013 178.88646L20.956263 178.88646L20.956263 177.82396L22.175013 177.82396L22.175013 178.88646ZM29.550013 178.88646L23.331263 178.88646L23.331263 177.82396L29.550013 177.82396L29.550013 178.88646ZM26.440638 176.27708Q24.706263 176.27708 23.878138 175.32396Q23.190638 174.52708 23.190638 173.37083Q23.190638 172.08958 24.034388 171.27708Q24.862513 170.44896 26.346888 170.44896Q27.550013 170.44896 28.237513 170.80833Q28.925013 171.16771 29.315638 171.87083Q29.690638 172.55833 29.690638 173.37083Q29.690638 174.66771 28.862513 175.48021Q28.018763 176.27708 26.440638 176.27708ZM26.440638 175.19896Q27.628138 175.19896 28.221888 174.68333Q28.815638 174.15208 28.815638 173.37083Q28.815638 172.57396 28.221888 172.05833Q27.628138 171.54271 26.409388 171.54271Q25.253138 171.54271 24.659388 172.07396Q24.065638 172.58958 24.065638 173.37083Q24.065638 174.15208 24.659388 174.68333Q25.237513 175.19896 26.440638 175.19896ZM29.550013 168.88646L23.331263 168.88646L23.331263 167.94896L24.206263 167.94896Q23.190638 167.26146 23.190638 165.96458Q23.190638 165.40208 23.393763 164.93333Q23.596888 164.44896 23.925013 164.21458Q24.253138 163.98021 24.690638 163.88646Q24.987513 163.83958 25.721888 163.83958L29.550013 163.83958L29.550013 164.88646L25.768763 164.88646Q25.112513 164.88646 24.800013 165.01146Q24.487513 165.13646 24.300013 165.44896Q24.096888 165.76146 24.096888 166.18333Q24.096888 166.85521 24.534388 167.35521Q24.956263 167.83958 26.143763 167.83958L29.550013 167.83958L29.550013 168.88646Z" fill-rule="nonzero"/><path fill="#000000" d="M89.05 300.21564Q89.05 298.6844 89.3625 297.7625Q89.675 296.825 90.28438 296.325Q90.90938 295.825 91.84688 295.825Q92.53438 295.825 93.05 296.10626Q93.58125 296.3875 93.925 296.91876Q94.26875 297.4344 94.45625 298.1844Q94.64375 298.9344 94.64375 300.21564Q94.64375 301.73126 94.33125 302.65314Q94.03438 303.575 93.40938 304.09064Q92.8 304.59064 91.84688 304.59064Q90.6125 304.59064 89.89375 303.7Q89.05 302.6375 89.05 300.21564ZM90.12813 300.21564Q90.12813 302.325 90.62813 303.02814Q91.12813 303.73126 91.84688 303.73126Q92.58125 303.73126 93.06563 303.02814Q93.56563 302.325 93.56563 300.21564Q93.56563 298.09064 93.06563 297.40314Q92.58125 296.7 91.83125 296.7Q91.1125 296.7 90.675 297.3094Q90.12813 298.09064 90.12813 300.21564Z" fill-rule="nonzero"/><path fill="#000000" d="M56.596874 243.80104L56.596874 244.81667L50.909374 244.81667Q50.909374 244.44167 51.034374 244.08229Q51.253124 243.50417 51.721874 242.94167Q52.20625 242.37917 53.1125 241.64479Q54.51875 240.48854 55.003124 239.81667Q55.503124 239.14479 55.503124 238.55104Q55.503124 237.92604 55.05 237.50417Q54.596874 237.06667 53.878124 237.06667Q53.1125 237.06667 52.659374 237.51979Q52.20625 237.97292 52.190624 238.78542L51.1125 238.67604Q51.221874 237.45729 51.940624 236.83229Q52.675 236.19167 53.909374 236.19167Q55.14375 236.19167 55.8625 236.87917Q56.58125 237.56667 56.58125 238.58229Q56.58125 239.09792 56.3625 239.59792Q56.159374 240.08229 55.659374 240.64479Q55.175 241.19167 54.05 242.14479Q53.096874 242.94167 52.815624 243.23854Q52.55 243.51979 52.378124 243.80104L56.596874 243.80104ZM58.05 240.58229Q58.05 239.05104 58.3625 238.12917Q58.675 237.19167 59.284374 236.69167Q59.909374 236.19167 60.846874 236.19167Q61.534374 236.19167 62.05 236.47292Q62.58125 236.75417 62.925 237.28542Q63.26875 237.80104 63.45625 238.55104Q63.64375 239.30104 63.64375 240.58229Q63.64375 242.09792 63.33125 243.01979Q63.034374 243.94167 62.409374 244.45729Q61.8 244.95729 60.846874 244.95729Q59.6125 244.95729 58.89375 244.06667Q58.05 243.00417 58.05 240.58229ZM59.128124 240.58229Q59.128124 242.69167 59.628124 243.39479Q60.128124 244.09792 60.846874 244.09792Q61.58125 244.09792 62.065624 243.39479Q62.565624 242.69167 62.565624 240.58229Q62.565624 238.45729 62.065624 237.76979Q61.58125 237.06667 60.83125 237.06667Q60.1125 237.06667 59.675 237.67604Q59.128124 238.45729 59.128124 240.58229ZM65.05 240.58229Q65.05 239.05104 65.3625 238.12917Q65.675 237.19167 66.28438 236.69167Q66.90938 236.19167 67.84688 236.19167Q68.53438 236.19167 69.05 236.47292Q69.58125 236.75417 69.925 237.28542Q70.26875 237.80104 70.45625 238.55104Q70.64375 239.30104 70.64375 240.58229Q70.64375 242.09792 70.33125 243.01979Q70.03438 243.94167 69.40938 244.45729Q68.8 244.95729 67.84688 244.95729Q66.6125 244.95729 65.89375 244.06667Q65.05 243.00417 65.05 240.58229ZM66.12813 240.58229Q66.12813 242.69167 66.62813 243.39479Q67.12813 244.09792 67.84688 244.09792Q68.58125 244.09792 69.06563 243.39479Q69.56563 242.69167 69.56563 240.58229Q69.56563 238.45729 69.06563 237.76979Q68.58125 237.06667 67.83125 237.06667Q67.1125 237.06667 66.675 237.67604Q66.12813 238.45729 66.12813 240.58229ZM72.64375 244.81667L72.64375 243.61354L73.84688 243.61354L73.84688 244.81667L72.64375 244.81667ZM75.05 240.58229Q75.05 239.05104 75.3625 238.12917Q75.675 237.19167 76.28438 236.69167Q76.90938 236.19167 77.84688 236.19167Q78.53438 236.19167 79.05 236.47292Q79.58125 236.75417 79.925 237.28542Q80.26875 237.80104 80.45625 238.55104Q80.64375 239.30104 80.64375 240.58229Q80.64375 242.09792 80.33125 243.01979Q80.03438 243.94167 79.40938 244.45729Q78.8 244.95729 77.84688 244.95729Q76.6125 244.95729 75.89375 244.06667Q75.05 243.00417 75.05 240.58229ZM76.12813 240.58229Q76.12813 242.69167 76.62813 243.39479Q77.12813 244.09792 77.84688 244.09792Q78.58125 244.09792 79.06563 243.39479Q79.56563 242.69167 79.56563 240.58229Q79.56563 238.45729 79.06563 237.76979Q78.58125 237.06667 77.83125 237.06667Q77.1125 237.06667 76.675 237.67604Q76.12813 238.45729 76.12813 240.58229ZM82.05 240.58229Q82.05 239.05104 82.3625 238.12917Q82.675 237.19167 83.28438 236.69167Q83.90938 236.19167 84.84688 236.19167Q85.53438 236.19167 86.05 236.47292Q86.58125 236.75417 86.925 237.28542Q87.26875 237.80104 87.45625 238.55104Q87.64375 239.30104 87.64375 240.58229Q87.64375 242.09792 87.33125 243.01979Q87.03438 243.94167 86.40938 244.45729Q85.8 244.95729 84.84688 244.95729Q83.6125 244.95729 82.89375 244.06667Q82.05 243.00417 82.05 240.58229ZM83.12813 240.58229Q83.12813 242.69167 83.62813 243.39479Q84.12813 244.09792 84.84688 244.09792Q85.58125 244.09792 86.06563 243.39479Q86.56563 242.69167 86.56563 240.58229Q86.56563 238.45729 86.06563 237.76979Q85.58125 237.06667 84.83125 237.06667Q84.1125 237.06667 83.675 237.67604Q83.12813 238.45729 83.12813 240.58229ZM89.05 240.58229Q89.05 239.05104 89.3625 238.12917Q89.675 237.19167 90.28438 236.69167Q90.90938 236.19167 91.84688 236.19167Q92.53438 236.19167 93.05 236.47292Q93.58125 236.75417 93.925 237.28542Q94.26875 237.80104 94.45625 238.55104Q94.64375 239.30104 94.64375 240.58229Q94.64375 242.09792 94.33125 243.01979Q94.03438 243.94167 93.40938 244.45729Q92.8 244.95729 91.84688 244.95729Q90.6125 244.95729 89.89375 244.06667Q89.05 243.00417 89.05 240.58229ZM90.12813 240.58229Q90.12813 242.69167 90.62813 243.39479Q91.12813 244.09792 91.84688 244.09792Q92.58125 244.09792 93.06563 243.39479Q93.56563 242.69167 93.56563 240.58229Q93.56563 238.45729 93.06563 237.76979Q92.58125 237.06667 91.83125 237.06667Q91.1125 237.06667 90.675 237.67604Q90.12813 238.45729 90.12813 240.58229Z" fill-rule="nonzero"/><path fill="#000000" d="M54.425 185.18333L54.425 183.12083L50.70625 183.12083L50.70625 182.15208L54.628124 176.58958L55.4875 176.58958L55.4875 182.15208L56.64375 182.15208L56.64375 183.12083L55.4875 183.12083L55.4875 185.18333L54.425 185.18333ZM54.425 182.15208L54.425 178.29271L51.7375 182.15208L54.425 182.15208ZM58.05 180.94896Q58.05 179.41771 58.3625 178.49583Q58.675 177.55833 59.284374 177.05833Q59.909374 176.55833 60.846874 176.55833Q61.534374 176.55833 62.05 176.83958Q62.58125 177.12083 62.925 177.65208Q63.26875 178.16771 63.45625 178.91771Q63.64375 179.66771 63.64375 180.94896Q63.64375 182.46458 63.33125 183.38646Q63.034374 184.30833 62.409374 184.82396Q61.8 185.32396 60.846874 185.32396Q59.6125 185.32396 58.89375 184.43333Q58.05 183.37083 58.05 180.94896ZM59.128124 180.94896Q59.128124 183.05833 59.628124 183.76146Q60.128124 184.46458 60.846874 184.46458Q61.58125 184.46458 62.065624 183.76146Q62.565624 183.05833 62.565624 180.94896Q62.565624 178.82396 62.065624 178.13646Q61.58125 177.43333 60.83125 177.43333Q60.1125 177.43333 59.675 178.04271Q59.128124 178.82396 59.128124 180.94896ZM65.05 180.94896Q65.05 179.41771 65.3625 178.49583Q65.675 177.55833 66.28438 177.05833Q66.90938 176.55833 67.84688 176.55833Q68.53438 176.55833 69.05 176.83958Q69.58125 177.12083 69.925 177.65208Q70.26875 178.16771 70.45625 178.91771Q70.64375 179.66771 70.64375 180.94896Q70.64375 182.46458 70.33125 183.38646Q70.03438 184.30833 69.40938 184.82396Q68.8 185.32396 67.84688 185.32396Q66.6125 185.32396 65.89375 184.43333Q65.05 183.37083 65.05 180.94896ZM66.12813 180.94896Q66.12813 183.05833 66.62813 183.76146Q67.12813 184.46458 67.84688 184.46458Q68.58125 184.46458 69.06563 183.76146Q69.56563 183.05833 69.56563 180.94896Q69.56563 178.82396 69.06563 178.13646Q68.58125 177.43333 67.83125 177.43333Q67.1125 177.43333 66.675 178.04271Q66.12813 178.82396 66.12813 180.94896ZM72.64375 185.18333L72.64375 183.98021L73.84688 183.98021L73.84688 185.18333L72.64375 185.18333ZM75.05 180.94896Q75.05 179.41771 75.3625 178.49583Q75.675 177.55833 76.28438 177.05833Q76.90938 176.55833 77.84688 176.55833Q78.53438 176.55833 79.05 176.83958Q79.58125 177.12083 79.925 177.65208Q80.26875 178.16771 80.45625 178.91771Q80.64375 179.66771 80.64375 180.94896Q80.64375 182.46458 80.33125 183.38646Q80.03438 184.30833 79.40938 184.82396Q78.8 185.32396 77.84688 185.32396Q76.6125 185.32396 75.89375 184.43333Q75.05 183.37083 75.05 180.94896ZM76.12813 180.94896Q76.12813 183.05833 76.62813 183.76146Q77.12813 184.46458 77.84688 184.46458Q78.58125 184.46458 79.06563 183.76146Q79.56563 183.05833 79.56563 180.94896Q79.56563 178.82396 79.06563 178.13646Q78.58125 177.43333 77.83125 177.43333Q77.1125 177.43333 76.675 178.04271Q76.12813 178.82396 76.12813 180.94896ZM82.05 180.94896Q82.05 179.41771 82.3625 178.49583Q82.675 177.55833 83.28438 177.05833Q83.90938 176.55833 84.84688 176.55833Q85.53438 176.55833 86.05 176.83958Q86.58125 177.12083 86.925 177.65208Q87.26875 178.16771 87.45625 178.91771Q87.64375 179.66771 87.64375 180.94896Q87.64375 182.46458 87.33125 183.38646Q87.03438 184.30833 86.40938 184.82396Q85.8 185.32396 84.84688 185.32396Q83.6125 185.32396 82.89375 184.43333Q82.05 183.37083 82.05 180.94896ZM83.12813 180.94896Q83.12813 183.05833 83.62813 183.76146Q84.12813 184.46458 84.84688 184.46458Q85.58125 184.46458 86.06563 183.76146Q86.56563 183.05833 86.56563 180.94896Q86.56563 178.82396 86.06563 178.13646Q85.58125 177.43333 84.83125 177.43333Q84.1125 177.43333 83.675 178.04271Q83.12813 178.82396 83.12813 180.94896ZM89.05 180.94896Q89.05 179.41771 89.3625 178.49583Q89.675 177.55833 90.28438 177.05833Q90.90938 176.55833 91.84688 176.55833Q92.53438 176.55833 93.05 176.83958Q93.58125 177.12083 93.925 177.65208Q94.26875 178.16771 94.45625 178.91771Q94.64375 179.66771 94.64375 180.94896Q94.64375 182.46458 94.33125 183.38646Q94.03438 184.30833 93.40938 184.82396Q92.8 185.32396 91.84688 185.32396Q90.6125 185.32396 89.89375 184.43333Q89.05 183.37083 89.05 180.94896ZM90.12813 180.94896Q90.12813 183.05833 90.62813 183.76146Q91.12813 184.46458 91.84688 184.46458Q92.58125 184.46458 93.06563 183.76146Q93.56563 183.05833 93.56563 180.94896Q93.56563 178.82396 93.06563 178.13646Q92.58125 177.43333 91.83125 177.43333Q91.1125 177.43333 90.675 178.04271Q90.12813 178.82396 90.12813 180.94896Z" fill-rule="nonzero"/><path fill="#000000" d="M56.51875 119.06563L55.471874 119.14375Q55.33125 118.51875 55.08125 118.2375Q54.64375 117.78438 54.01875 117.78438Q53.51875 117.78438 53.128124 118.06563Q52.64375 118.44063 52.346874 119.14375Q52.065624 119.83125 52.05 121.1125Q52.425 120.53438 52.971874 120.25313Q53.534374 119.97188 54.14375 119.97188Q55.190624 119.97188 55.925 120.75313Q56.675 121.53438 56.675 122.75313Q56.675 123.56563 56.315624 124.26875Q55.971874 124.95625 55.3625 125.33125Q54.753124 125.69063 53.9875 125.69063Q52.659374 125.69063 51.83125 124.72188Q51.003124 123.75313 51.003124 121.53438Q51.003124 119.03438 51.925 117.90938Q52.721874 116.925 54.08125 116.925Q55.096874 116.925 55.7375 117.50313Q56.39375 118.06563 56.51875 119.06563ZM52.221874 122.76875Q52.221874 123.31563 52.440624 123.81563Q52.675 124.3 53.08125 124.56563Q53.503124 124.83125 53.971874 124.83125Q54.628124 124.83125 55.1125 124.3Q55.596874 123.75313 55.596874 122.83125Q55.596874 121.94063 55.1125 121.425Q54.64375 120.90938 53.925 120.90938Q53.20625 120.90938 52.70625 121.425Q52.221874 121.94063 52.221874 122.76875ZM58.05 121.31563Q58.05 119.78438 58.3625 118.8625Q58.675 117.925 59.284374 117.425Q59.909374 116.925 60.846874 116.925Q61.534374 116.925 62.05 117.20625Q62.58125 117.4875 62.925 118.01875Q63.26875 118.53438 63.45625 119.28438Q63.64375 120.03438 63.64375 121.31563Q63.64375 122.83125 63.33125 123.75313Q63.034374 124.675 62.409374 125.19063Q61.8 125.69063 60.846874 125.69063Q59.6125 125.69063 58.89375 124.8Q58.05 123.7375 58.05 121.31563ZM59.128124 121.31563Q59.128124 123.425 59.628124 124.12813Q60.128124 124.83125 60.846874 124.83125Q61.58125 124.83125 62.065624 124.12813Q62.565624 123.425 62.565624 121.31563Q62.565624 119.19063 62.065624 118.50313Q61.58125 117.8 60.83125 117.8Q60.1125 117.8 59.675 118.40938Q59.128124 119.19063 59.128124 121.31563ZM65.05 121.31563Q65.05 119.78438 65.3625 118.8625Q65.675 117.925 66.28438 117.425Q66.90938 116.925 67.84688 116.925Q68.53438 116.925 69.05 117.20625Q69.58125 117.4875 69.925 118.01875Q70.26875 118.53438 70.45625 119.28438Q70.64375 120.03438 70.64375 121.31563Q70.64375 122.83125 70.33125 123.75313Q70.03438 124.675 69.40938 125.19063Q68.8 125.69063 67.84688 125.69063Q66.6125 125.69063 65.89375 124.8Q65.05 123.7375 65.05 121.31563ZM66.12813 121.31563Q66.12813 123.425 66.62813 124.12813Q67.12813 124.83125 67.84688 124.83125Q68.58125 124.83125 69.06563 124.12813Q69.56563 123.425 69.56563 121.31563Q69.56563 119.19063 69.06563 118.50313Q68.58125 117.8 67.83125 117.8Q67.1125 117.8 66.675 118.40938Q66.12813 119.19063 66.12813 121.31563ZM72.64375 125.55L72.64375 124.34688L73.84688 124.34688L73.84688 125.55L72.64375 125.55ZM75.05 121.31563Q75.05 119.78438 75.3625 118.8625Q75.675 117.925 76.28438 117.425Q76.90938 116.925 77.84688 116.925Q78.53438 116.925 79.05 117.20625Q79.58125 117.4875 79.925 118.01875Q80.26875 118.53438 80.45625 119.28438Q80.64375 120.03438 80.64375 121.31563Q80.64375 122.83125 80.33125 123.75313Q80.03438 124.675 79.40938 125.19063Q78.8 125.69063 77.84688 125.69063Q76.6125 125.69063 75.89375 124.8Q75.05 123.7375 75.05 121.31563ZM76.12813 121.31563Q76.12813 123.425 76.62813 124.12813Q77.12813 124.83125 77.84688 124.83125Q78.58125 124.83125 79.06563 124.12813Q79.56563 123.425 79.56563 121.31563Q79.56563 119.19063 79.06563 118.50313Q78.58125 117.8 77.83125 117.8Q77.1125 117.8 76.675 118.40938Q76.12813 119.19063 76.12813 121.31563ZM82.05 121.31563Q82.05 119.78438 82.3625 118.8625Q82.675 117.925 83.28438 117.425Q83.90938 116.925 84.84688 116.925Q85.53438 116.925 86.05 117.20625Q86.58125 117.4875 86.925 118.01875Q87.26875 118.53438 87.45625 119.28438Q87.64375 120.03438 87.64375 121.31563Q87.64375 122.83125 87.33125 123.75313Q87.03438 124.675 86.40938 125.19063Q85.8 125.69063 84.84688 125.69063Q83.6125 125.69063 82.89375 124.8Q82.05 123.7375 82.05 121.31563ZM83.12813 121.31563Q83.12813 123.425 83.62813 124.12813Q84.12813 124.83125 84.84688 124.83125Q85.58125 124.83125 86.06563 124.12813Q86.56563 123.425 86.56563 121.31563Q86.56563 119.19063 86.06563 118.50313Q85.58125 117.8 84.83125 117.8Q84.1125 117.8 83.675 118.40938Q83.12813 119.19063 83.12813 121.31563ZM89.05 121.31563Q89.05 119.78438 89.3625 118.8625Q89.675 117.925 90.28438 117.425Q90.90938 116.925 91.84688 116.925Q92.53438 116.925 93.05 117.20625Q93.58125 117.4875 93.925 118.01875Q94.26875 118.53438 94.45625 119.28438Q94.64375 120.03438 94.64375 121.31563Q94.64375 122.83125 94.33125 123.75313Q94.03438 124.675 93.40938 125.19063Q92.8 125.69063 91.84688 125.69063Q90.6125 125.69063 89.89375 124.8Q89.05 123.7375 89.05 121.31563ZM90.12813 121.31563Q90.12813 123.425 90.62813 124.12813Q91.12813 124.83125 91.84688 124.83125Q92.58125 124.83125 93.06563 124.12813Q93.56563 123.425 93.56563 121.31563Q93.56563 119.19063 93.06563 118.50313Q92.58125 117.8 91.83125 117.8Q91.1125 117.8 90.675 118.40938Q90.12813 119.19063 90.12813 121.31563Z" fill-rule="nonzero"/><path fill="#000000" d="M52.675 61.260414Q52.01875 61.010414 51.690624 60.572914Q51.378124 60.11979 51.378124 59.510414Q51.378124 58.572914 52.05 57.93229Q52.7375 57.291664 53.846874 57.291664Q54.971874 57.291664 55.659374 57.947914Q56.346874 58.604164 56.346874 59.541664Q56.346874 60.135414 56.034374 60.572914Q55.721874 61.010414 55.08125 61.260414Q55.878124 61.510414 56.284374 62.08854Q56.690624 62.666664 56.690624 63.46354Q56.690624 64.55729 55.909374 65.30729Q55.14375 66.05729 53.8625 66.05729Q52.596874 66.05729 51.815624 65.30729Q51.034374 64.55729 51.034374 63.43229Q51.034374 62.58854 51.45625 62.02604Q51.89375 61.46354 52.675 61.260414ZM52.45625 59.46354Q52.45625 60.072914 52.846874 60.46354Q53.253124 60.854164 53.878124 60.854164Q54.4875 60.854164 54.878124 60.479164Q55.26875 60.08854 55.26875 59.52604Q55.26875 58.947914 54.8625 58.55729Q54.45625 58.15104 53.8625 58.15104Q53.253124 58.15104 52.846874 58.541664Q52.45625 58.93229 52.45625 59.46354ZM52.128124 63.43229Q52.128124 63.885414 52.33125 64.30729Q52.55 64.729164 52.971874 64.96354Q53.39375 65.197914 53.878124 65.197914Q54.628124 65.197914 55.1125 64.71354Q55.6125 64.229164 55.6125 63.479164Q55.6125 62.71354 55.1125 62.21354Q54.6125 61.71354 53.846874 61.71354Q53.096874 61.71354 52.6125 62.21354Q52.128124 62.697914 52.128124 63.43229ZM58.05 61.68229Q58.05 60.15104 58.3625 59.229164Q58.675 58.291664 59.284374 57.791664Q59.909374 57.291664 60.846874 57.291664Q61.534374 57.291664 62.05 57.572914Q62.58125 57.854164 62.925 58.385414Q63.26875 58.90104 63.45625 59.65104Q63.64375 60.40104 63.64375 61.68229Q63.64375 63.197914 63.33125 64.11979Q63.034374 65.041664 62.409374 65.55729Q61.8 66.05729 60.846874 66.05729Q59.6125 66.05729 58.89375 65.166664Q58.05 64.104164 58.05 61.68229ZM59.128124 61.68229Q59.128124 63.791664 59.628124 64.49479Q60.128124 65.197914 60.846874 65.197914Q61.58125 65.197914 62.065624 64.49479Q62.565624 63.791664 62.565624 61.68229Q62.565624 59.55729 62.065624 58.86979Q61.58125 58.166664 60.83125 58.166664Q60.1125 58.166664 59.675 58.77604Q59.128124 59.55729 59.128124 61.68229ZM65.05 61.68229Q65.05 60.15104 65.3625 59.229164Q65.675 58.291664 66.28438 57.791664Q66.90938 57.291664 67.84688 57.291664Q68.53438 57.291664 69.05 57.572914Q69.58125 57.854164 69.925 58.385414Q70.26875 58.90104 70.45625 59.65104Q70.64375 60.40104 70.64375 61.68229Q70.64375 63.197914 70.33125 64.11979Q70.03438 65.041664 69.40938 65.55729Q68.8 66.05729 67.84688 66.05729Q66.6125 66.05729 65.89375 65.166664Q65.05 64.104164 65.05 61.68229ZM66.12813 61.68229Q66.12813 63.791664 66.62813 64.49479Q67.12813 65.197914 67.84688 65.197914Q68.58125 65.197914 69.06563 64.49479Q69.56563 63.791664 69.56563 61.68229Q69.56563 59.55729 69.06563 58.86979Q68.58125 58.166664 67.83125 58.166664Q67.1125 58.166664 66.675 58.77604Q66.12813 59.55729 66.12813 61.68229ZM72.64375 65.916664L72.64375 64.71354L73.84688 64.71354L73.84688 65.916664L72.64375 65.916664ZM75.05 61.68229Q75.05 60.15104 75.3625 59.229164Q75.675 58.291664 76.28438 57.791664Q76.90938 57.291664 77.84688 57.291664Q78.53438 57.291664 79.05 57.572914Q79.58125 57.854164 79.925 58.385414Q80.26875 58.90104 80.45625 59.65104Q80.64375 60.40104 80.64375 61.68229Q80.64375 63.197914 80.33125 64.11979Q80.03438 65.041664 79.40938 65.55729Q78.8 66.05729 77.84688 66.05729Q76.6125 66.05729 75.89375 65.166664Q75.05 64.104164 75.05 61.68229ZM76.12813 61.68229Q76.12813 63.791664 76.62813 64.49479Q77.12813 65.197914 77.84688 65.197914Q78.58125 65.197914 79.06563 64.49479Q79.56563 63.791664 79.56563 61.68229Q79.56563 59.55729 79.06563 58.86979Q78.58125 58.166664 77.83125 58.166664Q77.1125 58.166664 76.675 58.77604Q76.12813 59.55729 76.12813 61.68229ZM82.05 61.68229Q82.05 60.15104 82.3625 59.229164Q82.675 58.291664 83.28438 57.791664Q83.90938 57.291664 84.84688 57.291664Q85.53438 57.291664 86.05 57.572914Q86.58125 57.854164 86.925 58.385414Q87.26875 58.90104 87.45625 59.65104Q87.64375 60.40104 87.64375 61.68229Q87.64375 63.197914 87.33125 64.11979Q87.03438 65.041664 86.40938 65.55729Q85.8 66.05729 84.84688 66.05729Q83.6125 66.05729 82.89375 65.166664Q82.05 64.104164 82.05 61.68229ZM83.12813 61.68229Q83.12813 63.791664 83.62813 64.49479Q84.12813 65.197914 84.84688 65.197914Q85.58125 65.197914 86.06563 64.49479Q86.56563 63.791664 86.56563 61.68229Q86.56563 59.55729 86.06563 58.86979Q85.58125 58.166664 84.83125 58.166664Q84.1125 58.166664 83.675 58.77604Q83.12813 59.55729 83.12813 61.68229ZM89.05 61.68229Q89.05 60.15104 89.3625 59.229164Q89.675 58.291664 90.28438 57.791664Q90.90938 57.291664 91.84688 57.291664Q92.53438 57.291664 93.05 57.572914Q93.58125 57.854164 93.925 58.385414Q94.26875 58.90104 94.45625 59.65104Q94.64375 60.40104 94.64375 61.68229Q94.64375 63.197914 94.33125 64.11979Q94.03438 65.041664 93.40938 65.55729Q92.8 66.05729 91.84688 66.05729Q90.6125 66.05729 89.89375 65.166664Q89.05 64.104164 89.05 61.68229ZM90.12813 61.68229Q90.12813 63.791664 90.62813 64.49479Q91.12813 65.197914 91.84688 65.197914Q92.58125 65.197914 93.06563 64.49479Q93.56563 63.791664 93.56563 61.68229Q93.56563 59.55729 93.06563 58.86979Q92.58125 58.166664 91.83125 58.166664Q91.1125 58.166664 90.675 58.77604Q90.12813 59.55729 90.12813 61.68229Z" fill-rule="nonzero"/><path fill="#000000" d="M127.086876 314.6844L128.14938 314.59064Q128.22751 315.2469 128.50876 315.65314Q128.79001 316.0594 129.36813 316.325Q129.96188 316.575 130.69626 316.575Q131.33688 316.575 131.83688 316.3875Q132.33688 316.1844 132.57126 315.85626Q132.82126 315.5125 132.82126 315.1219Q132.82126 314.71564 132.58688 314.41876Q132.35251 314.10626 131.82126 313.90314Q131.46188 313.7625 130.27438 313.48126Q129.10251 313.2 128.63376 312.95Q128.00876 312.6219 127.711876 312.15314Q127.415 311.66876 127.415 311.075Q127.415 310.4344 127.774376 309.8719Q128.14938 309.29376 128.85251 309.0125Q129.57126 308.71564 130.43063 308.71564Q131.38376 308.71564 132.11813 309.02814Q132.85251 309.325 133.24313 309.9344Q133.63376 310.52814 133.66501 311.27814L132.57126 311.35626Q132.47751 310.54376 131.96188 310.1375Q131.46188 309.71564 130.47751 309.71564Q129.44626 309.71564 128.97751 310.09064Q128.50876 310.46564 128.50876 310.9969Q128.50876 311.46564 128.83688 311.7625Q129.16501 312.0594 130.54001 312.3719Q131.93063 312.6844 132.44626 312.91876Q133.19626 313.27814 133.55563 313.8094Q133.91501 314.325 133.91501 315.02814Q133.91501 315.71564 133.52438 316.325Q133.13376 316.91876 132.39938 317.2625Q131.66501 317.59064 130.74313 317.59064Q129.57126 317.59064 128.77438 317.2625Q127.993126 316.91876 127.54 316.23126Q127.1025 315.54376 127.086876 314.6844ZM139.58688 315.45L140.68063 315.575Q140.43063 316.52814 139.72751 317.0594Q139.02438 317.59064 137.94626 317.59064Q136.58688 317.59064 135.77438 316.7469Q134.97751 315.90314 134.97751 314.3875Q134.97751 312.825 135.79001 311.96564Q136.60251 311.09064 137.88376 311.09064Q139.13376 311.09064 139.91501 311.9344Q140.71188 312.77814 140.71188 314.325Q140.71188 314.41876 140.71188 314.60626L136.07126 314.60626Q136.13376 315.6375 136.64938 316.1844Q137.16501 316.71564 137.94626 316.71564Q138.52438 316.71564 138.93063 316.41876Q139.35251 316.10626 139.58688 315.45ZM136.13376 313.7469L139.60251 313.7469Q139.54001 312.95 139.21188 312.5594Q138.69626 311.95 137.89938 311.95Q137.16501 311.95 136.66501 312.4344Q136.18063 312.91876 136.13376 313.7469ZM142.32126 317.45L142.32126 311.23126L143.27438 311.23126L143.27438 312.16876Q143.63376 311.5125 143.93063 311.3094Q144.24313 311.09064 144.61813 311.09064Q145.14938 311.09064 145.69626 311.41876L145.33688 312.40314Q144.94626 312.16876 144.57126 312.16876Q144.21188 312.16876 143.93063 312.3875Q143.66501 312.59064 143.55563 312.96564Q143.36813 313.52814 143.36813 314.1844L143.36813 317.45L142.32126 317.45ZM146.33688 310.075L146.33688 308.85626L147.39938 308.85626L147.39938 310.075L146.33688 310.075ZM146.33688 317.45L146.33688 311.23126L147.39938 311.23126L147.39938 317.45L146.33688 317.45ZM153.39938 316.6844Q152.80563 317.1844 152.25876 317.3875Q151.72751 317.59064 151.10251 317.59064Q150.07126 317.59064 149.52438 317.09064Q148.97751 316.59064 148.97751 315.8094Q148.97751 315.35626 149.18063 314.98126Q149.38376 314.59064 149.72751 314.3719Q150.07126 314.1375 150.49313 314.02814Q150.79001 313.9344 151.43063 313.85626Q152.69626 313.71564 153.30563 313.4969Q153.30563 313.27814 153.30563 313.23126Q153.30563 312.575 153.00876 312.3094Q152.60251 311.96564 151.80563 311.96564Q151.07126 311.96564 150.71188 312.23126Q150.35251 312.48126 150.18063 313.1375L149.14938 312.9969Q149.29001 312.34064 149.61813 311.9344Q149.94626 311.52814 150.55563 311.3094Q151.16501 311.09064 151.96188 311.09064Q152.75876 311.09064 153.25876 311.27814Q153.75876 311.46564 153.99313 311.7469Q154.22751 312.02814 154.32126 312.46564Q154.36813 312.73126 154.36813 313.4344L154.36813 314.84064Q154.36813 316.3094 154.43063 316.7Q154.50876 317.09064 154.71188 317.45L153.60251 317.45Q153.44626 317.1219 153.39938 316.6844ZM153.30563 314.325Q152.72751 314.5594 151.58688 314.73126Q150.93063 314.825 150.66501 314.95Q150.39938 315.0594 150.24313 315.27814Q150.10251 315.4969 150.10251 315.77814Q150.10251 316.2 150.41501 316.48126Q150.74313 316.7625 151.35251 316.7625Q151.96188 316.7625 152.43063 316.4969Q152.91501 316.23126 153.13376 315.7625Q153.30563 315.40314 153.30563 314.71564L153.30563 314.325ZM156.30563 317.45L156.30563 308.85626L157.36813 308.85626L157.36813 317.45L156.30563 317.45ZM159.04001 313.21564Q159.04001 311.6844 159.35251 310.7625Q159.66501 309.825 160.27438 309.325Q160.89938 308.825 161.83688 308.825Q162.52438 308.825 163.04001 309.10626Q163.57126 309.3875 163.91501 309.91876Q164.25876 310.4344 164.44626 311.1844Q164.63376 311.9344 164.63376 313.21564Q164.63376 314.73126 164.32126 315.65314Q164.02438 316.575 163.39938 317.09064Q162.79001 317.59064 161.83688 317.59064Q160.60251 317.59064 159.88376 316.7Q159.04001 315.6375 159.04001 313.21564ZM160.11813 313.21564Q160.11813 315.325 160.61813 316.02814Q161.11813 316.73126 161.83688 316.73126Q162.57126 316.73126 163.05563 316.02814Q163.55563 315.325 163.55563 313.21564Q163.55563 311.09064 163.05563 310.40314Q162.57126 309.7 161.82126 309.7Q161.10251 309.7 160.66501 310.3094Q160.11813 311.09064 160.11813 313.21564ZM166.04001 313.21564Q166.04001 311.6844 166.35251 310.7625Q166.66501 309.825 167.27438 309.325Q167.89938 308.825 168.83688 308.825Q169.52438 308.825 170.04001 309.10626Q170.57126 309.3875 170.91501 309.91876Q171.25876 310.4344 171.44626 311.1844Q171.63376 311.9344 171.63376 313.21564Q171.63376 314.73126 171.32126 315.65314Q171.02438 316.575 170.39938 317.09064Q169.79001 317.59064 168.83688 317.59064Q167.60251 317.59064 166.88376 316.7Q166.04001 315.6375 166.04001 313.21564ZM167.11813 313.21564Q167.11813 315.325 167.61813 316.02814Q168.11813 316.73126 168.83688 316.73126Q169.57126 316.73126 170.05563 316.02814Q170.55563 315.325 170.55563 313.21564Q170.55563 311.09064 170.05563 310.40314Q169.57126 309.7 168.82126 309.7Q168.10251 309.7 167.66501 310.3094Q167.11813 311.09064 167.11813 313.21564Z" fill-rule="nonzero"/><path fill="#000000" d="M223.06688 314.6844L224.12938 314.59064Q224.2075 315.2469 224.48875 315.65314Q224.77 316.0594 225.34813 316.325Q225.94188 316.575 226.67625 316.575Q227.31688 316.575 227.81688 316.3875Q228.31688 316.1844 228.55125 315.85626Q228.80125 315.5125 228.80125 315.1219Q228.80125 314.71564 228.56688 314.41876Q228.3325 314.10626 227.80125 313.90314Q227.44188 313.7625 226.25438 313.48126Q225.0825 313.2 224.61375 312.95Q223.98875 312.6219 223.69188 312.15314Q223.395 311.66876 223.395 311.075Q223.395 310.4344 223.75438 309.8719Q224.12938 309.29376 224.8325 309.0125Q225.55125 308.71564 226.41063 308.71564Q227.36375 308.71564 228.09813 309.02814Q228.8325 309.325 229.22313 309.9344Q229.61375 310.52814 229.645 311.27814L228.55125 311.35626Q228.4575 310.54376 227.94188 310.1375Q227.44188 309.71564 226.4575 309.71564Q225.42625 309.71564 224.9575 310.09064Q224.48875 310.46564 224.48875 310.9969Q224.48875 311.46564 224.81688 311.7625Q225.145 312.0594 226.52 312.3719Q227.91063 312.6844 228.42625 312.91876Q229.17625 313.27814 229.53563 313.8094Q229.895 314.325 229.895 315.02814Q229.895 315.71564 229.50438 316.325Q229.11375 316.91876 228.37938 317.2625Q227.645 317.59064 226.72313 317.59064Q225.55125 317.59064 224.75438 317.2625Q223.97313 316.91876 223.52 316.23126Q223.0825 315.54376 223.06688 314.6844ZM235.56688 315.45L236.66063 315.575Q236.41063 316.52814 235.7075 317.0594Q235.00438 317.59064 233.92625 317.59064Q232.56688 317.59064 231.75438 316.7469Q230.9575 315.90314 230.9575 314.3875Q230.9575 312.825 231.77 311.96564Q232.5825 311.09064 233.86375 311.09064Q235.11375 311.09064 235.895 311.9344Q236.69188 312.77814 236.69188 314.325Q236.69188 314.41876 236.69188 314.60626L232.05125 314.60626Q232.11375 315.6375 232.62938 316.1844Q233.145 316.71564 233.92625 316.71564Q234.50438 316.71564 234.91063 316.41876Q235.3325 316.10626 235.56688 315.45ZM232.11375 313.7469L235.5825 313.7469Q235.52 312.95 235.19188 312.5594Q234.67625 311.95 233.87938 311.95Q233.145 311.95 232.645 312.4344Q232.16063 312.91876 232.11375 313.7469ZM238.30125 317.45L238.30125 311.23126L239.25438 311.23126L239.25438 312.16876Q239.61375 311.5125 239.91063 311.3094Q240.22313 311.09064 240.59813 311.09064Q241.12938 311.09064 241.67625 311.41876L241.31688 312.40314Q240.92625 312.16876 240.55125 312.16876Q240.19188 312.16876 239.91063 312.3875Q239.645 312.59064 239.53563 312.96564Q239.34813 313.52814 239.34813 314.1844L239.34813 317.45L238.30125 317.45ZM242.31688 310.075L242.31688 308.85626L243.37938 308.85626L243.37938 310.075L242.31688 310.075ZM242.31688 317.45L242.31688 311.23126L243.37938 311.23126L243.37938 317.45L242.31688 317.45ZM249.37938 316.6844Q248.78563 317.1844 248.23875 317.3875Q247.7075 317.59064 247.0825 317.59064Q246.05125 317.59064 245.50438 317.09064Q244.9575 316.59064 244.9575 315.8094Q244.9575 315.35626 245.16063 314.98126Q245.36375 314.59064 245.7075 314.3719Q246.05125 314.1375 246.47313 314.02814Q246.77 313.9344 247.41063 313.85626Q248.67625 313.71564 249.28563 313.4969Q249.28563 313.27814 249.28563 313.23126Q249.28563 312.575 248.98875 312.3094Q248.5825 311.96564 247.78563 311.96564Q247.05125 311.96564 246.69188 312.23126Q246.3325 312.48126 246.16063 313.1375L245.12938 312.9969Q245.27 312.34064 245.59813 311.9344Q245.92625 311.52814 246.53563 311.3094Q247.145 311.09064 247.94188 311.09064Q248.73875 311.09064 249.23875 311.27814Q249.73875 311.46564 249.97313 311.7469Q250.2075 312.02814 250.30125 312.46564Q250.34813 312.73126 250.34813 313.4344L250.34813 314.84064Q250.34813 316.3094 250.41063 316.7Q250.48875 317.09064 250.69188 317.45L249.5825 317.45Q249.42625 317.1219 249.37938 316.6844ZM249.28563 314.325Q248.7075 314.5594 247.56688 314.73126Q246.91063 314.825 246.645 314.95Q246.37938 315.0594 246.22313 315.27814Q246.0825 315.4969 246.0825 315.77814Q246.0825 316.2 246.395 316.48126Q246.72313 316.7625 247.3325 316.7625Q247.94188 316.7625 248.41063 316.4969Q248.895 316.23126 249.11375 315.7625Q249.28563 315.40314 249.28563 314.71564L249.28563 314.325ZM252.28563 317.45L252.28563 308.85626L253.34813 308.85626L253.34813 317.45L252.28563 317.45ZM255.02 313.21564Q255.02 311.6844 255.3325 310.7625Q255.645 309.825 256.2544 309.325Q256.8794 308.825 257.8169 308.825Q258.5044 308.825 259.02002 309.10626Q259.55127 309.3875 259.89502 309.91876Q260.23877 310.4344 260.42627 311.1844Q260.61377 311.9344 260.61377 313.21564Q260.61377 314.73126 260.30127 315.65314Q260.0044 316.575 259.3794 317.09064Q258.77002 317.59064 257.8169 317.59064Q256.58252 317.59064 255.86375 316.7Q255.02 315.6375 255.02 313.21564ZM256.09814 313.21564Q256.09814 315.325 256.59814 316.02814Q257.09814 316.73126 257.8169 316.73126Q258.55127 316.73126 259.03564 316.02814Q259.53564 315.325 259.53564 313.21564Q259.53564 311.09064 259.03564 310.40314Q258.55127 309.7 257.80127 309.7Q257.08252 309.7 256.64502 310.3094Q256.09814 311.09064 256.09814 313.21564ZM265.98877 317.45L264.9419 317.45L264.9419 310.73126Q264.55127 311.09064 263.92627 311.46564Q263.3169 311.825 262.83252 311.9969L262.83252 310.98126Q263.70752 310.5594 264.36377 309.98126Q265.03564 309.3875 265.3169 308.825L265.98877 308.825L265.98877 317.45Z" fill-rule="nonzero"/><path fill="#000000" d="M327.0625 314.4344L328.1875 314.73126Q327.82812 316.1219 326.90625 316.85626Q325.98438 317.59064 324.64062 317.59064Q323.25 317.59064 322.375 317.02814Q321.5 316.46564 321.04688 315.40314Q320.59375 314.325 320.59375 313.09064Q320.59375 311.7469 321.10938 310.7469Q321.625 309.7469 322.5625 309.23126Q323.51562 308.71564 324.65625 308.71564Q325.9375 308.71564 326.8125 309.3719Q327.70312 310.02814 328.04688 311.21564L326.92188 311.48126Q326.625 310.54376 326.04688 310.1219Q325.48438 309.6844 324.625 309.6844Q323.64062 309.6844 322.96875 310.16876Q322.3125 310.6375 322.03125 311.4344Q321.76562 312.23126 321.76562 313.09064Q321.76562 314.1844 322.07812 314.9969Q322.40625 315.8094 323.07812 316.21564Q323.75 316.6219 324.54688 316.6219Q325.5 316.6219 326.15625 316.075Q326.82812 315.52814 327.0625 314.4344ZM329.40625 314.34064Q329.40625 312.60626 330.35938 311.77814Q331.15625 311.09064 332.3125 311.09064Q333.59375 311.09064 334.40625 311.9344Q335.23438 312.7625 335.23438 314.2469Q335.23438 315.45 334.875 316.1375Q334.51562 316.825 333.8125 317.21564Q333.125 317.59064 332.3125 317.59064Q331.01562 317.59064 330.20312 316.7625Q329.40625 315.91876 329.40625 314.34064ZM330.48438 314.34064Q330.48438 315.52814 331.0 316.1219Q331.53125 316.71564 332.3125 316.71564Q333.10938 316.71564 333.625 316.1219Q334.14062 315.52814 334.14062 314.3094Q334.14062 313.15314 333.60938 312.5594Q333.09375 311.96564 332.3125 311.96564Q331.53125 311.96564 331.0 312.5594Q330.48438 313.1375 330.48438 314.34064ZM336.79688 317.45L336.79688 311.23126L337.73438 311.23126L337.73438 312.10626Q338.42188 311.09064 339.71875 311.09064Q340.28125 311.09064 340.75 311.29376Q341.23438 311.4969 341.46875 311.825Q341.70312 312.15314 341.79688 312.59064Q341.84375 312.8875 341.84375 313.6219L341.84375 317.45L340.79688 317.45L340.79688 313.66876Q340.79688 313.0125 340.67188 312.7Q340.54688 312.3875 340.23438 312.2Q339.92188 311.9969 339.5 311.9969Q338.82812 311.9969 338.32812 312.4344Q337.84375 312.85626 337.84375 314.04376L337.84375 317.45L336.79688 317.45ZM347.85938 315.16876L348.89062 315.3094Q348.71875 316.3719 348.01562 316.98126Q347.3125 317.59064 346.29688 317.59064Q345.01562 317.59064 344.23438 316.7625Q343.46875 315.91876 343.46875 314.35626Q343.46875 313.35626 343.79688 312.60626Q344.14062 311.84064 344.8125 311.46564Q345.5 311.09064 346.3125 311.09064Q347.3125 311.09064 347.95312 311.60626Q348.60938 312.10626 348.79688 313.0594L347.76562 313.21564Q347.625 312.59064 347.25 312.27814Q346.875 311.95 346.34375 311.95Q345.54688 311.95 345.04688 312.52814Q344.54688 313.09064 344.54688 314.325Q344.54688 315.59064 345.03125 316.15314Q345.51562 316.71564 346.28125 316.71564Q346.90625 316.71564 347.3125 316.34064Q347.73438 315.96564 347.85938 315.16876ZM349.5 313.21564Q349.5 311.6844 349.8125 310.7625Q350.125 309.825 350.73438 309.325Q351.35938 308.825 352.29688 308.825Q352.98438 308.825 353.5 309.10626Q354.03125 309.3875 354.375 309.91876Q354.71875 310.4344 354.90625 311.1844Q355.09375 311.9344 355.09375 313.21564Q355.09375 314.73126 354.78125 315.65314Q354.48438 316.575 353.85938 317.09064Q353.25 317.59064 352.29688 317.59064Q351.0625 317.59064 350.34375 316.7Q349.5 315.6375 349.5 313.21564ZM350.57812 313.21564Q350.57812 315.325 351.07812 316.02814Q351.57812 316.73126 352.29688 316.73126Q353.03125 316.73126 353.51562 316.02814Q354.01562 315.325 354.01562 313.21564Q354.01562 311.09064 353.51562 310.40314Q353.03125 309.7 352.28125 309.7Q351.5625 309.7 351.125 310.3094Q350.57812 311.09064 350.57812 313.21564ZM356.5 313.21564Q356.5 311.6844 356.8125 310.7625Q357.125 309.825 357.73438 309.325Q358.35938 308.825 359.29688 308.825Q359.98438 308.825 360.5 309.10626Q361.03125 309.3875 361.375 309.91876Q361.71875 310.4344 361.90625 311.1844Q362.09375 311.9344 362.09375 313.21564Q362.09375 314.73126 361.78125 315.65314Q361.48438 316.575 360.85938 317.09064Q360.25 317.59064 359.29688 317.59064Q358.0625 317.59064 357.34375 316.7Q356.5 315.6375 356.5 313.21564ZM357.57812 313.21564Q357.57812 315.325 358.07812 316.02814Q358.57812 316.73126 359.29688 316.73126Q360.03125 316.73126 360.51562 316.02814Q361.01562 315.325 361.01562 313.21564Q361.01562 311.09064 360.51562 310.40314Q360.03125 309.7 359.28125 309.7Q358.5625 309.7 358.125 310.3094Q357.57812 311.09064 357.57812 313.21564Z" fill-rule="nonzero"/><path fill="#000000" d="M423.0425 314.4344L424.1675 314.73126Q423.80814 316.1219 422.88626 316.85626Q421.9644 317.59064 420.62064 317.59064Q419.23 317.59064 418.355 317.02814Q417.48 316.46564 417.0269 315.40314Q416.57376 314.325 416.57376 313.09064Q416.57376 311.7469 417.0894 310.7469Q417.605 309.7469 418.5425 309.23126Q419.49564 308.71564 420.63626 308.71564Q421.9175 308.71564 422.7925 309.3719Q423.68314 310.02814 424.0269 311.21564L422.9019 311.48126Q422.605 310.54376 422.0269 310.1219Q421.4644 309.6844 420.605 309.6844Q419.62064 309.6844 418.94876 310.16876Q418.2925 310.6375 418.01126 311.4344Q417.74564 312.23126 417.74564 313.09064Q417.74564 314.1844 418.05814 314.9969Q418.38626 315.8094 419.05814 316.21564Q419.73 316.6219 420.5269 316.6219Q421.48 316.6219 422.13626 316.075Q422.80814 315.52814 423.0425 314.4344ZM425.38626 314.34064Q425.38626 312.60626 426.3394 311.77814Q427.13626 311.09064 428.2925 311.09064Q429.57376 311.09064 430.38626 311.9344Q431.2144 312.7625 431.2144 314.2469Q431.2144 315.45 430.855 316.1375Q430.49564 316.825 429.7925 317.21564Q429.105 317.59064 428.2925 317.59064Q426.99564 317.59064 426.18314 316.7625Q425.38626 315.91876 425.38626 314.34064ZM426.4644 314.34064Q426.4644 315.52814 426.98 316.1219Q427.51126 316.71564 428.2925 316.71564Q429.0894 316.71564 429.605 316.1219Q430.12064 315.52814 430.12064 314.3094Q430.12064 313.15314 429.5894 312.5594Q429.07376 311.96564 428.2925 311.96564Q427.51126 311.96564 426.98 312.5594Q426.4644 313.1375 426.4644 314.34064ZM432.7769 317.45L432.7769 311.23126L433.7144 311.23126L433.7144 312.10626Q434.4019 311.09064 435.69876 311.09064Q436.26126 311.09064 436.73 311.29376Q437.2144 311.4969 437.44876 311.825Q437.68314 312.15314 437.7769 312.59064Q437.82376 312.8875 437.82376 313.6219L437.82376 317.45L436.7769 317.45L436.7769 313.66876Q436.7769 313.0125 436.6519 312.7Q436.5269 312.3875 436.2144 312.2Q435.9019 311.9969 435.48 311.9969Q434.80814 311.9969 434.30814 312.4344Q433.82376 312.85626 433.82376 314.04376L433.82376 317.45L432.7769 317.45ZM443.8394 315.16876L444.87064 315.3094Q444.69876 316.3719 443.99564 316.98126Q443.2925 317.59064 442.2769 317.59064Q440.99564 317.59064 440.2144 316.7625Q439.44876 315.91876 439.44876 314.35626Q439.44876 313.35626 439.7769 312.60626Q440.12064 311.84064 440.7925 311.46564Q441.48 311.09064 442.2925 311.09064Q443.2925 311.09064 443.93314 311.60626Q444.5894 312.10626 444.7769 313.0594L443.74564 313.21564Q443.605 312.59064 443.23 312.27814Q442.855 311.95 442.32376 311.95Q441.5269 311.95 441.0269 312.52814Q440.5269 313.09064 440.5269 314.325Q440.5269 315.59064 441.01126 316.15314Q441.49564 316.71564 442.26126 316.71564Q442.88626 316.71564 443.2925 316.34064Q443.7144 315.96564 443.8394 315.16876ZM445.48 313.21564Q445.48 311.6844 445.7925 310.7625Q446.105 309.825 446.7144 309.325Q447.3394 308.825 448.2769 308.825Q448.9644 308.825 449.48 309.10626Q450.01126 309.3875 450.355 309.91876Q450.69876 310.4344 450.88626 311.1844Q451.07376 311.9344 451.07376 313.21564Q451.07376 314.73126 450.76126 315.65314Q450.4644 316.575 449.8394 317.09064Q449.23 317.59064 448.2769 317.59064Q447.0425 317.59064 446.32376 316.7Q445.48 315.6375 445.48 313.21564ZM446.55814 313.21564Q446.55814 315.325 447.05814 316.02814Q447.55814 316.73126 448.2769 316.73126Q449.01126 316.73126 449.49564 316.02814Q449.99564 315.325 449.99564 313.21564Q449.99564 311.09064 449.49564 310.40314Q449.01126 309.7 448.26126 309.7Q447.5425 309.7 447.105 310.3094Q446.55814 311.09064 446.55814 313.21564ZM456.44876 317.45L455.4019 317.45L455.4019 310.73126Q455.01126 311.09064 454.38626 311.46564Q453.7769 311.825 453.2925 311.9969L453.2925 310.98126Q454.1675 310.5594 454.82376 309.98126Q455.49564 309.3875 455.7769 308.825L456.44876 308.825L456.44876 317.45Z" fill-rule="nonzero"/><path fill="#000000" d="M519.02246 314.4344L520.14746 314.73126Q519.7881 316.1219 518.8662 316.85626Q517.94434 317.59064 516.6006 317.59064Q515.20996 317.59064 514.33496 317.02814Q513.45996 316.46564 513.00684 315.40314Q512.5537 314.325 512.5537 313.09064Q512.5537 311.7469 513.06934 310.7469Q513.58496 309.7469 514.52246 309.23126Q515.4756 308.71564 516.6162 308.71564Q517.89746 308.71564 518.77246 309.3719Q519.6631 310.02814 520.00684 311.21564L518.88184 311.48126Q518.58496 310.54376 518.00684 310.1219Q517.44434 309.6844 516.58496 309.6844Q515.6006 309.6844 514.9287 310.16876Q514.27246 310.6375 513.9912 311.4344Q513.7256 312.23126 513.7256 313.09064Q513.7256 314.1844 514.0381 314.9969Q514.3662 315.8094 515.0381 316.21564Q515.70996 316.6219 516.50684 316.6219Q517.45996 316.6219 518.1162 316.075Q518.7881 315.52814 519.02246 314.4344ZM521.3662 314.34064Q521.3662 312.60626 522.31934 311.77814Q523.1162 311.09064 524.27246 311.09064Q525.5537 311.09064 526.3662 311.9344Q527.19434 312.7625 527.19434 314.2469Q527.19434 315.45 526.83496 316.1375Q526.4756 316.825 525.77246 317.21564Q525.08496 317.59064 524.27246 317.59064Q522.9756 317.59064 522.1631 316.7625Q521.3662 315.91876 521.3662 314.34064ZM522.44434 314.34064Q522.44434 315.52814 522.95996 316.1219Q523.4912 316.71564 524.27246 316.71564Q525.06934 316.71564 525.58496 316.1219Q526.1006 315.52814 526.1006 314.3094Q526.1006 313.15314 525.56934 312.5594Q525.0537 311.96564 524.27246 311.96564Q523.4912 311.96564 522.95996 312.5594Q522.44434 313.1375 522.44434 314.34064ZM528.75684 317.45L528.75684 311.23126L529.69434 311.23126L529.69434 312.10626Q530.38184 311.09064 531.6787 311.09064Q532.2412 311.09064 532.70996 311.29376Q533.19434 311.4969 533.4287 311.825Q533.6631 312.15314 533.75684 312.59064Q533.8037 312.8875 533.8037 313.6219L533.8037 317.45L532.75684 317.45L532.75684 313.66876Q532.75684 313.0125 532.63184 312.7Q532.50684 312.3875 532.19434 312.2Q531.88184 311.9969 531.45996 311.9969Q530.7881 311.9969 530.2881 312.4344Q529.8037 312.85626 529.8037 314.04376L529.8037 317.45L528.75684 317.45ZM539.81934 315.16876L540.8506 315.3094Q540.6787 316.3719 539.9756 316.98126Q539.27246 317.59064 538.25684 317.59064Q536.9756 317.59064 536.19434 316.7625Q535.4287 315.91876 535.4287 314.35626Q535.4287 313.35626 535.75684 312.60626Q536.1006 311.84064 536.77246 311.46564Q537.45996 311.09064 538.27246 311.09064Q539.27246 311.09064 539.9131 311.60626Q540.56934 312.10626 540.75684 313.0594L539.7256 313.21564Q539.58496 312.59064 539.20996 312.27814Q538.83496 311.95 538.3037 311.95Q537.50684 311.95 537.00684 312.52814Q536.50684 313.09064 536.50684 314.325Q536.50684 315.59064 536.9912 316.15314Q537.4756 316.71564 538.2412 316.71564Q538.8662 316.71564 539.27246 316.34064Q539.69434 315.96564 539.81934 315.16876ZM541.45996 313.21564Q541.45996 311.6844 541.77246 310.7625Q542.08496 309.825 542.69434 309.325Q543.31934 308.825 544.25684 308.825Q544.94434 308.825 545.45996 309.10626Q545.9912 309.3875 546.33496 309.91876Q546.6787 310.4344 546.8662 311.1844Q547.0537 311.9344 547.0537 313.21564Q547.0537 314.73126 546.7412 315.65314Q546.44434 316.575 545.81934 317.09064Q545.20996 317.59064 544.25684 317.59064Q543.02246 317.59064 542.3037 316.7Q541.45996 315.6375 541.45996 313.21564ZM542.5381 313.21564Q542.5381 315.325 543.0381 316.02814Q543.5381 316.73126 544.25684 316.73126Q544.9912 316.73126 545.4756 316.02814Q545.9756 315.325 545.9756 313.21564Q545.9756 311.09064 545.4756 310.40314Q544.9912 309.7 544.2412 309.7Q543.52246 309.7 543.08496 310.3094Q542.5381 311.09064 542.5381 313.21564ZM554.00684 316.4344L554.00684 317.45L548.31934 317.45Q548.31934 317.075 548.44434 316.71564Q548.6631 316.1375 549.13184 315.575Q549.6162 315.0125 550.52246 314.27814Q551.9287 313.1219 552.4131 312.45Q552.9131 311.77814 552.9131 311.1844Q552.9131 310.5594 552.45996 310.1375Q552.00684 309.7 551.2881 309.7Q550.52246 309.7 550.06934 310.15314Q549.6162 310.60626 549.6006 311.41876L548.52246 311.3094Q548.63184 310.09064 549.3506 309.46564Q550.08496 308.825 551.31934 308.825Q552.5537 308.825 553.27246 309.5125Q553.9912 310.2 553.9912 311.21564Q553.9912 311.73126 553.77246 312.23126Q553.56934 312.71564 553.06934 313.27814Q552.58496 313.825 551.45996 314.77814Q550.50684 315.575 550.2256 315.8719Q549.95996 316.15314 549.7881 316.4344L554.00684 316.4344Z" fill-rule="nonzero"/><path fill="#757575" d="M20.096874 37.55L20.096874 23.2375L25.01875 23.2375Q26.690624 23.2375 27.58125 23.440624Q28.8 23.721874 29.675 24.45625Q30.8 25.425 31.3625 26.909374Q31.925 28.39375 31.925 30.315624Q31.925 31.940624 31.55 33.20625Q31.175 34.45625 30.565624 35.284374Q29.971874 36.1125 29.26875 36.596874Q28.565624 37.065624 27.565624 37.315624Q26.565624 37.55 25.253124 37.55L20.096874 37.55ZM21.9875 35.8625L25.05 35.8625Q26.45625 35.8625 27.253124 35.596874Q28.065624 35.33125 28.55 34.846874Q29.221874 34.175 29.596874 33.05Q29.971874 31.909374 29.971874 30.284374Q29.971874 28.034374 29.2375 26.83125Q28.503124 25.628124 27.440624 25.221874Q26.690624 24.925 25.003124 24.925L21.9875 24.925L21.9875 35.8625ZM40.659374 37.55L40.659374 36.01875Q39.45625 37.784374 37.378124 37.784374Q36.45625 37.784374 35.659374 37.440624Q34.8625 37.08125 34.471874 36.55Q34.096874 36.01875 33.940624 35.2375Q33.83125 34.721874 33.83125 33.596874L33.83125 27.175L35.58125 27.175L35.58125 32.925Q35.58125 34.3 35.690624 34.784374Q35.8625 35.471874 36.39375 35.878124Q36.940624 36.26875 37.721874 36.26875Q38.51875 36.26875 39.20625 35.8625Q39.909374 35.45625 40.190624 34.76875Q40.4875 34.065624 40.4875 32.7375L40.4875 27.175L42.2375 27.175L42.2375 37.55L40.659374 37.55ZM43.846874 37.55L43.846874 27.175L45.425 27.175L45.425 28.753124Q46.034374 27.64375 46.55 27.3Q47.065624 26.940624 47.675 26.940624Q48.565624 26.940624 49.4875 27.503124L48.878124 29.14375Q48.2375 28.753124 47.596874 28.753124Q47.01875 28.753124 46.55 29.1125Q46.096874 29.45625 45.89375 30.065624Q45.6125 31.003124 45.6125 32.1125L45.6125 37.55L43.846874 37.55ZM57.64375 36.26875Q56.659374 37.096874 55.753124 37.440624Q54.846874 37.784374 53.815624 37.784374Q52.1125 37.784374 51.190624 36.95625Q50.26875 36.1125 50.26875 34.815624Q50.26875 34.05 50.6125 33.425Q50.971874 32.8 51.534374 32.425Q52.096874 32.034374 52.8 31.83125Q53.315624 31.70625 54.3625 31.565624Q56.4875 31.315624 57.4875 30.971874Q57.503124 30.6125 57.503124 30.503124Q57.503124 29.440624 57.003124 28.9875Q56.33125 28.39375 55.003124 28.39375Q53.753124 28.39375 53.159374 28.83125Q52.58125 29.26875 52.3 30.378124L50.58125 30.14375Q50.815624 29.034374 51.346874 28.3625Q51.878124 27.675 52.89375 27.315624Q53.909374 26.940624 55.253124 26.940624Q56.58125 26.940624 57.409374 27.253124Q58.2375 27.565624 58.628124 28.05Q59.01875 28.51875 59.175 29.2375Q59.26875 29.690624 59.26875 30.8625L59.26875 33.20625Q59.26875 35.659374 59.378124 36.315624Q59.4875 36.95625 59.83125 37.55L57.9875 37.55Q57.721874 37.003124 57.64375 36.26875ZM57.4875 32.346874Q56.534374 32.7375 54.6125 33.003124Q53.534374 33.159374 53.08125 33.3625Q52.64375 33.55 52.39375 33.925Q52.14375 34.3 52.14375 34.76875Q52.14375 35.471874 52.675 35.940624Q53.20625 36.409374 54.2375 36.409374Q55.253124 36.409374 56.034374 35.971874Q56.83125 35.51875 57.20625 34.753124Q57.4875 34.14375 57.4875 32.9875L57.4875 32.346874ZM68.64375 33.753124L70.3625 33.971874Q70.08125 35.76875 68.90938 36.784374Q67.75313 37.784374 66.05 37.784374Q63.925 37.784374 62.628124 36.39375Q61.33125 35.003124 61.33125 32.409374Q61.33125 30.721874 61.878124 29.471874Q62.440624 28.20625 63.58125 27.58125Q64.72188 26.940624 66.06563 26.940624Q67.75313 26.940624 68.81563 27.8Q69.89375 28.659374 70.20625 30.221874L68.4875 30.4875Q68.25313 29.440624 67.62813 28.925Q67.00313 28.39375 66.12813 28.39375Q64.8 28.39375 63.971874 29.346874Q63.14375 30.3 63.14375 32.346874Q63.14375 34.440624 63.940624 35.39375Q64.7375 36.33125 66.03438 36.33125Q67.06563 36.33125 67.75313 35.70625Q68.45625 35.065624 68.64375 33.753124ZM71.87813 25.253124L71.87813 23.2375L73.64375 23.2375L73.64375 25.253124L71.87813 25.253124ZM71.87813 37.55L71.87813 27.175L73.64375 27.175L73.64375 37.55L71.87813 37.55ZM75.22188 32.3625Q75.22188 29.4875 76.81563 28.096874Q78.15938 26.940624 80.08125 26.940624Q82.22188 26.940624 83.56563 28.346874Q84.925 29.753124 84.925 32.221874Q84.925 34.221874 84.33125 35.378124Q83.7375 36.51875 82.58125 37.159374Q81.44063 37.784374 80.08125 37.784374Q77.89375 37.784374 76.55 36.39375Q75.22188 34.9875 75.22188 32.3625ZM77.01875 32.3625Q77.01875 34.3625 77.87813 35.346874Q78.75313 36.33125 80.08125 36.33125Q81.39375 36.33125 82.25313 35.346874Q83.12813 34.346874 83.12813 32.3Q83.12813 30.378124 82.25313 29.39375Q81.37813 28.39375 80.08125 28.39375Q78.75313 28.39375 77.87813 29.39375Q77.01875 30.378124 77.01875 32.3625ZM86.8625 37.55L86.8625 27.175L88.45625 27.175L88.45625 28.659374Q89.59688 26.940624 91.75313 26.940624Q92.69063 26.940624 93.47188 27.284374Q94.26875 27.6125 94.65938 28.159374Q95.05 28.70625 95.20625 29.45625Q95.3 29.95625 95.3 31.175L95.3 37.55L93.53438 37.55L93.53438 31.2375Q93.53438 30.159374 93.33125 29.628124Q93.12813 29.096874 92.59688 28.784374Q92.08125 28.471874 91.37813 28.471874Q90.25313 28.471874 89.44063 29.190624Q88.62813 29.89375 88.62813 31.878124L88.62813 37.55L86.8625 37.55ZM103.28438 37.55L103.28438 28.55L101.7375 28.55L101.7375 27.175L103.28438 27.175L103.28438 26.08125Q103.28438 25.034374 103.47188 24.51875Q103.72188 23.83125 104.3625 23.409374Q105.00313 22.9875 106.15938 22.9875Q106.90938 22.9875 107.8 23.159374L107.53438 24.690624Q106.9875 24.596874 106.50313 24.596874Q105.70625 24.596874 105.3625 24.940624Q105.03438 25.284374 105.03438 26.221874L105.03438 27.175L107.06563 27.175L107.06563 28.55L105.03438 28.55L105.03438 37.55L103.28438 37.55ZM108.84688 37.55L108.84688 27.175L110.425 27.175L110.425 28.753124Q111.03438 27.64375 111.55 27.3Q112.06563 26.940624 112.675 26.940624Q113.56563 26.940624 114.4875 27.503124L113.87813 29.14375Q113.2375 28.753124 112.59688 28.753124Q112.01875 28.753124 111.55 29.1125Q111.09688 29.45625 110.89375 30.065624Q110.6125 31.003124 110.6125 32.1125L110.6125 37.55L108.84688 37.55ZM122.97188 34.20625L124.78438 34.440624Q124.3625 36.01875 123.19063 36.909374Q122.03438 37.784374 120.22188 37.784374Q117.95625 37.784374 116.6125 36.39375Q115.28438 34.9875 115.28438 32.45625Q115.28438 29.83125 116.62813 28.39375Q117.97188 26.940624 120.12813 26.940624Q122.20625 26.940624 123.51875 28.3625Q124.84688 29.76875 124.84688 32.346874Q124.84688 32.503124 124.83125 32.815624L117.09688 32.815624Q117.19063 34.51875 118.06563 35.425Q118.94063 36.33125 120.2375 36.33125Q121.20625 36.33125 121.87813 35.83125Q122.56563 35.315624 122.97188 34.20625ZM117.19063 31.3625L122.9875 31.3625Q122.87813 30.065624 122.33125 29.409374Q121.4875 28.39375 120.14375 28.39375Q118.94063 28.39375 118.1125 29.20625Q117.28438 30.003124 117.19063 31.3625ZM126.8625 37.55L126.8625 27.175L128.45625 27.175L128.45625 28.659374Q129.59688 26.940624 131.75313 26.940624Q132.69063 26.940624 133.47188 27.284374Q134.26875 27.6125 134.65938 28.159374Q135.05 28.70625 135.20625 29.45625Q135.3 29.95625 135.3 31.175L135.3 37.55L133.53438 37.55L133.53438 31.2375Q133.53438 30.159374 133.33125 29.628124Q133.12813 29.096874 132.59688 28.784374Q132.08125 28.471874 131.37813 28.471874Q130.25313 28.471874 129.44063 29.190624Q128.62813 29.89375 128.62813 31.878124L128.62813 37.55L126.8625 37.55ZM140.70625 35.971874L140.95625 37.534374Q140.22188 37.690624 139.62813 37.690624Q138.675 37.690624 138.14375 37.39375Q137.62813 37.08125 137.40938 36.596874Q137.19063 36.096874 137.19063 34.51875L137.19063 28.55L135.90938 28.55L135.90938 27.175L137.19063 27.175L137.19063 24.6125L138.94063 23.55L138.94063 27.175L140.70625 27.175L140.70625 28.55L138.94063 28.55L138.94063 34.6125Q138.94063 35.3625 139.03438 35.58125Q139.12813 35.784374 139.33125 35.925Q139.55 36.05 139.94063 36.05Q140.22188 36.05 140.70625 35.971874ZM149.97188 34.20625L151.78438 34.440624Q151.3625 36.01875 150.19063 36.909374Q149.03438 37.784374 147.22188 37.784374Q144.95625 37.784374 143.6125 36.39375Q142.28438 34.9875 142.28438 32.45625Q142.28438 29.83125 143.62813 28.39375Q144.97188 26.940624 147.12813 26.940624Q149.20625 26.940624 150.51875 28.3625Q151.84688 29.76875 151.84688 32.346874Q151.84688 32.503124 151.83125 32.815624L144.09688 32.815624Q144.19063 34.51875 145.06563 35.425Q145.94063 36.33125 147.2375 36.33125Q148.20625 36.33125 148.87813 35.83125Q149.56563 35.315624 149.97188 34.20625ZM144.19063 31.3625L149.9875 31.3625Q149.87813 30.065624 149.33125 29.409374Q148.4875 28.39375 147.14375 28.39375Q145.94063 28.39375 145.1125 29.20625Q144.28438 30.003124 144.19063 31.3625ZM166.64375 36.26875Q165.65938 37.096874 164.75313 37.440624Q163.84688 37.784374 162.81563 37.784374Q161.1125 37.784374 160.19063 36.95625Q159.26875 36.1125 159.26875 34.815624Q159.26875 34.05 159.6125 33.425Q159.97188 32.8 160.53438 32.425Q161.09688 32.034374 161.8 31.83125Q162.31563 31.70625 163.3625 31.565624Q165.4875 31.315624 166.4875 30.971874Q166.50313 30.6125 166.50313 30.503124Q166.50313 29.440624 166.00313 28.9875Q165.33125 28.39375 164.00313 28.39375Q162.75313 28.39375 162.15938 28.83125Q161.58125 29.26875 161.3 30.378124L159.58125 30.14375Q159.81563 29.034374 160.34688 28.3625Q160.87813 27.675 161.89375 27.315624Q162.90938 26.940624 164.25313 26.940624Q165.58125 26.940624 166.40938 27.253124Q167.2375 27.565624 167.62813 28.05Q168.01875 28.51875 168.175 29.2375Q168.26875 29.690624 168.26875 30.8625L168.26875 33.20625Q168.26875 35.659374 168.37813 36.315624Q168.4875 36.95625 168.83125 37.55L166.9875 37.55Q166.72188 37.003124 166.64375 36.26875ZM166.4875 32.346874Q165.53438 32.7375 163.6125 33.003124Q162.53438 33.159374 162.08125 33.3625Q161.64375 33.55 161.39375 33.925Q161.14375 34.3 161.14375 34.76875Q161.14375 35.471874 161.675 35.940624Q162.20625 36.409374 163.2375 36.409374Q164.25313 36.409374 165.03438 35.971874Q165.83125 35.51875 166.20625 34.753124Q166.4875 34.14375 166.4875 32.9875L166.4875 32.346874ZM177.40938 37.55L177.40938 23.2375L179.31563 23.2375L179.31563 37.55L177.40938 37.55ZM186.70625 35.971874L186.95625 37.534374Q186.22188 37.690624 185.62813 37.690624Q184.675 37.690624 184.14375 37.39375Q183.62813 37.08125 183.40938 36.596874Q183.19063 36.096874 183.19063 34.51875L183.19063 28.55L181.90938 28.55L181.90938 27.175L183.19063 27.175L183.19063 24.6125L184.94063 23.55L184.94063 27.175L186.70625 27.175L186.70625 28.55L184.94063 28.55L184.94063 34.6125Q184.94063 35.3625 185.03438 35.58125Q185.12813 35.784374 185.33125 35.925Q185.55 36.05 185.94063 36.05Q186.22188 36.05 186.70625 35.971874ZM195.97188 34.20625L197.78438 34.440624Q197.3625 36.01875 196.19063 36.909374Q195.03438 37.784374 193.22188 37.784374Q190.95625 37.784374 189.6125 36.39375Q188.28438 34.9875 188.28438 32.45625Q188.28438 29.83125 189.62813 28.39375Q190.97188 26.940624 193.12813 26.940624Q195.20625 26.940624 196.51875 28.3625Q197.84688 29.76875 197.84688 32.346874Q197.84688 32.503124 197.83125 32.815624L190.09688 32.815624Q190.19063 34.51875 191.06563 35.425Q191.94063 36.33125 193.2375 36.33125Q194.20625 36.33125 194.87813 35.83125Q195.56563 35.315624 195.97188 34.20625ZM190.19063 31.3625L195.9875 31.3625Q195.87813 30.065624 195.33125 29.409374Q194.4875 28.39375 193.14375 28.39375Q191.94063 28.39375 191.1125 29.20625Q190.28438 30.003124 190.19063 31.3625ZM199.84688 37.55L199.84688 27.175L201.425 27.175L201.425 28.753124Q202.03438 27.64375 202.55 27.3Q203.06563 26.940624 203.675 26.940624Q204.56563 26.940624 205.4875 27.503124L204.87813 29.14375Q204.2375 28.753124 203.59688 28.753124Q203.01875 28.753124 202.55 29.1125Q202.09688 29.45625 201.89375 30.065624Q201.6125 31.003124 201.6125 32.1125L201.6125 37.55L199.84688 37.55ZM213.64375 36.26875Q212.65938 37.096874 211.75313 37.440624Q210.84688 37.784374 209.81563 37.784374Q208.1125 37.784374 207.19063 36.95625Q206.26875 36.1125 206.26875 34.815624Q206.26875 34.05 206.6125 33.425Q206.97188 32.8 207.53438 32.425Q208.09688 32.034374 208.8 31.83125Q209.31563 31.70625 210.3625 31.565624Q212.4875 31.315624 213.4875 30.971874Q213.50313 30.6125 213.50313 30.503124Q213.50313 29.440624 213.00313 28.9875Q212.33125 28.39375 211.00313 28.39375Q209.75313 28.39375 209.15938 28.83125Q208.58125 29.26875 208.3 30.378124L206.58125 30.14375Q206.81563 29.034374 207.34688 28.3625Q207.87813 27.675 208.89375 27.315624Q209.90938 26.940624 211.25313 26.940624Q212.58125 26.940624 213.40938 27.253124Q214.2375 27.565624 214.62813 28.05Q215.01875 28.51875 215.175 29.2375Q215.26875 29.690624 215.26875 30.8625L215.26875 33.20625Q215.26875 35.659374 215.37813 36.315624Q215.4875 36.95625 215.83125 37.55L213.9875 37.55Q213.72188 37.003124 213.64375 36.26875ZM213.4875 32.346874Q212.53438 32.7375 210.6125 33.003124Q209.53438 33.159374 209.08125 33.3625Q208.64375 33.55 208.39375 33.925Q208.14375 34.3 208.14375 34.76875Q208.14375 35.471874 208.675 35.940624Q209.20625 36.409374 210.2375 36.409374Q211.25313 36.409374 212.03438 35.971874Q212.83125 35.51875 213.20625 34.753124Q213.4875 34.14375 213.4875 32.9875L213.4875 32.346874ZM224.64375 33.753124L226.3625 33.971874Q226.08125 35.76875 224.90938 36.784374Q223.75313 37.784374 222.05 37.784374Q219.925 37.784374 218.62813 36.39375Q217.33125 35.003124 217.33125 32.409374Q217.33125 30.721874 217.87813 29.471874Q218.44063 28.20625 219.58125 27.58125Q220.72188 26.940624 222.06563 26.940624Q223.75313 26.940624 224.81563 27.8Q225.89375 28.659374 226.20625 30.221874L224.4875 30.4875Q224.25313 29.440624 223.62813 28.925Q223.00313 28.39375 222.12813 28.39375Q220.8 28.39375 219.97188 29.346874Q219.14375 30.3 219.14375 32.346874Q219.14375 34.440624 219.94063 35.39375Q220.7375 36.33125 222.03438 36.33125Q223.06563 36.33125 223.75313 35.70625Q224.45625 35.065624 224.64375 33.753124ZM227.87813 25.253124L227.87813 23.2375L229.64375 23.2375L229.64375 25.253124L227.87813 25.253124ZM227.87813 37.55L227.87813 27.175L229.64375 27.175L229.64375 37.55L227.87813 37.55ZM231.22188 32.3625Q231.22188 29.4875 232.81563 28.096874Q234.15938 26.940624 236.08125 26.940624Q238.22188 26.940624 239.56563 28.346874Q240.925 29.753124 240.925 32.221874Q240.925 34.221874 240.33125 35.378124Q239.7375 36.51875 238.58125 37.159374Q237.44063 37.784374 236.08125 37.784374Q233.89375 37.784374 232.55 36.39375Q231.22188 34.9875 231.22188 32.3625ZM233.01875 32.3625Q233.01875 34.3625 233.87813 35.346874Q234.75313 36.33125 236.08125 36.33125Q237.39375 36.33125 238.25313 35.346874Q239.12813 34.346874 239.12813 32.3Q239.12813 30.378124 238.25313 29.39375Q237.37813 28.39375 236.08125 28.39375Q234.75313 28.39375 233.87813 29.39375Q233.01875 30.378124 233.01875 32.3625ZM242.8625 37.55L242.8625 27.175L244.45625 27.175L244.45625 28.659374Q245.59688 26.940624 247.75313 26.940624Q248.69063 26.940624 249.47188 27.284374Q250.26875 27.6125 250.65938 28.159374Q251.05 28.70625 251.20625 29.45625Q251.3 29.95625 251.3 31.175L251.3 37.55L249.53438 37.55L249.53438 31.2375Q249.53438 30.159374 249.33125 29.628124Q249.12813 29.096874 248.59688 28.784374Q248.08125 28.471874 247.37813 28.471874Q246.25313 28.471874 245.44063 29.190624Q244.62813 29.89375 244.62813 31.878124L244.62813 37.55L242.8625 37.55Z" fill-rule="nonzero"/></svg>