<svg xmlns="http://www.w3.org/2000/svg" xmlns:xlink="http://www.w3.org/1999/xlink" xmlns:lucid="lucid" width="892" height="622"><g transform="translate(-349 -119)" lucid:page-tab-id="0_0"><path d="M0 0h1500v1000H0z" fill="#fff"/><path d="M400 126a6 6 0 0 1 6-6h828a6 6 0 0 1 6 6v508a6 6 0 0 1-6 6H406a6 6 0 0 1-6-6z" stroke="#000" stroke-width="2" fill="#6db1ff"/><path d="M400 166a6 6 0 0 1 6-6h368a6 6 0 0 1 6 6v468a6 6 0 0 1-6 6H406a6 6 0 0 1-6-6z" stroke="#000" stroke-width="2" fill="#fc9432"/><use xlink:href="#a" transform="matrix(1,0,0,1,412,172.00000000000006) translate(150.11371527777777 21.52777777777778)"/><path d="M410 246a6 6 0 0 1 6-6h338a6 6 0 0 1 6 6v348a6 6 0 0 1-6 6H416a6 6 0 0 1-6-6z" stroke="#000" stroke-width="2" fill="#dedeff"/><use xlink:href="#b" transform="matrix(1,0,0,1,422,252) translate(0 21.52777777777778)"/><path d="M440 296a6 6 0 0 1 6-6h278a6 6 0 0 1 6 6v248a6 6 0 0 1-6 6H446a6 6 0 0 1-6-6z" stroke="#000" stroke-opacity="0" stroke-width="2" fill="#dedeff"/><use xlink:href="#c" transform="matrix(1,0,0,1,445,295) translate(6.525607638888886 68.40277777777777)"/><use xlink:href="#d" transform="matrix(1,0,0,1,445,295) translate(62.29817708333333 68.40277777777777)"/><use xlink:href="#e" transform="matrix(1,0,0,1,445,295) translate(111.73394097222221 68.40277777777777)"/><use xlink:href="#f" transform="matrix(1,0,0,1,445,295) translate(167.60416666666666 68.40277777777777)"/><use xlink:href="#g" transform="matrix(1,0,0,1,445,295) translate(223.05121527777777 68.40277777777777)"/><use xlink:href="#h" transform="matrix(1,0,0,1,445,295) translate(17.566189236111114 100.66840277777777)"/><use xlink:href="#i" transform="matrix(1,0,0,1,445,295) translate(68.92252604166667 100.66840277777777)"/><use xlink:href="#j" transform="matrix(1,0,0,1,445,295) translate(113.94205729166667 100.66840277777777)"/><use xlink:href="#k" transform="matrix(1,0,0,1,445,295) translate(165.39605034722223 100.66840277777777)"/><use xlink:href="#l" transform="matrix(1,0,0,1,445,295) translate(216.42686631944446 100.66840277777777)"/><use xlink:href="#m" transform="matrix(1,0,0,1,445,295) translate(6.281467013888886 132.93402777777777)"/><use xlink:href="#n" transform="matrix(1,0,0,1,445,295) translate(62.15169270833333 132.93402777777777)"/><use xlink:href="#o" transform="matrix(1,0,0,1,445,295) translate(111.68511284722221 132.93402777777777)"/><use xlink:href="#p" transform="matrix(1,0,0,1,445,295) translate(167.65299479166666 132.93402777777777)"/><use xlink:href="#q" transform="matrix(1,0,0,1,445,295) translate(223.19769965277777 132.93402777777777)"/><use xlink:href="#r" transform="matrix(1,0,0,1,445,295) translate(7.0952690972222285 165.19965277777777)"/><use xlink:href="#s" transform="matrix(1,0,0,1,445,295) translate(62.63997395833334 165.19965277777777)"/><use xlink:href="#t" transform="matrix(1,0,0,1,445,295) translate(111.8478732638889 165.19965277777777)"/><use xlink:href="#u" transform="matrix(1,0,0,1,445,295) translate(167.490234375 165.19965277777777)"/><use xlink:href="#v" transform="matrix(1,0,0,1,445,295) translate(222.70941840277777 165.19965277777777)"/><use xlink:href="#w" transform="matrix(1,0,0,1,445,295) translate(6.145833333333343 197.46527777777777)"/><use xlink:href="#x" transform="matrix(1,0,0,1,445,295) translate(62.07031250000001 197.46527777777777)"/><use xlink:href="#y" transform="matrix(1,0,0,1,445,295) translate(111.65798611111111 197.46527777777777)"/><use xlink:href="#z" transform="matrix(1,0,0,1,445,295) translate(167.68012152777777 197.46527777777777)"/><use xlink:href="#A" transform="matrix(1,0,0,1,445,295) translate(223.27907986111111 197.46527777777777)"/><path d="M840 166a6 6 0 0 1 6-6h388a6 6 0 0 1 6 6v228a6 6 0 0 1-6 6H846a6 6 0 0 1-6-6z" stroke="#000" stroke-width="2" fill="#54c45e"/><use xlink:href="#B" transform="matrix(1,0,0,1,852,172) translate(0 21.52777777777778)"/><use xlink:href="#C" transform="matrix(1,0,0,1,852,172) translate(80.98958333333333 21.52777777777778)"/><path d="M840 406a6 6 0 0 1 6-6h388a6 6 0 0 1 6 6v228a6 6 0 0 1-6 6H846a6 6 0 0 1-6-6z" stroke="#000" stroke-width="2" fill="#54c45e"/><use xlink:href="#B" transform="matrix(1,0,0,1,852,412) translate(0 21.52777777777778)"/><use xlink:href="#D" transform="matrix(1,0,0,1,852,412) translate(80.98958333333333 21.52777777777778)"/><path d="M840 211.42a6 6 0 0 1 6-6h328a6 6 0 0 1 6 6V234a6 6 0 0 1-6 6H846a6 6 0 0 1-6-6z" stroke="#000" stroke-width="2" fill="#f2f3f5"/><use xlink:href="#E" transform="matrix(1,0,0,1,845,210.42317708333337) translate(9.276258680555571 23.09027777777778)"/><use xlink:href="#F" transform="matrix(1,0,0,1,845,210.42317708333337) translate(87.50976562500001 23.09027777777778)"/><path d="M840 246a6 6 0 0 1 6-6h228a6 6 0 0 1 6 6v28a6 6 0 0 1-6 6H846a6 6 0 0 1-6-6z" stroke="#000" stroke-width="2" fill="#f2f3f5"/><use xlink:href="#G" transform="matrix(1,0,0,1,845,245) translate(13.752170138888886 23.40277777777778)"/><use xlink:href="#H" transform="matrix(1,0,0,1,845,245) translate(92.01822916666666 23.40277777777778)"/><use xlink:href="#I" transform="matrix(1,0,0,1,845,245) translate(202.22873263888889 23.40277777777778)"/><path d="M840 446a6 6 0 0 1 6-6h328a6 6 0 0 1 6 6v22.58a6 6 0 0 1-6 6H846a6 6 0 0 1-6-6z" stroke="#000" stroke-width="2" fill="#f2f3f5"/><use xlink:href="#J" transform="matrix(1,0,0,1,845,445) translate(9.276258680555571 23.09027777777778)"/><use xlink:href="#K" transform="matrix(1,0,0,1,845,445) translate(87.50976562500001 23.09027777777778)"/><path d="M840 286a6 6 0 0 1 6-6h228a6 6 0 0 1 6 6v28a6 6 0 0 1-6 6H846a6 6 0 0 1-6-6z" stroke="#000" stroke-width="2" fill="#f2f3f5"/><g><use xlink:href="#G" transform="matrix(1,0,0,1,845,285) translate(9.189453125 23.40277777777778)"/><use xlink:href="#L" transform="matrix(1,0,0,1,845,285) translate(87.45551215277777 23.40277777777778)"/><use xlink:href="#M" transform="matrix(1,0,0,1,845,285) translate(207.08441840277777 23.40277777777778)"/></g><path d="M840 326a6 6 0 0 1 6-6h228a6 6 0 0 1 6 6v28a6 6 0 0 1-6 6H846a6 6 0 0 1-6-6z" stroke="#000" stroke-width="2" fill="#f2f3f5"/><g><use xlink:href="#G" transform="matrix(1,0,0,1,845,325) translate(47.297092013888886 23.40277777777778)"/><use xlink:href="#N" transform="matrix(1,0,0,1,845,325) translate(125.56315104166666 23.40277777777778)"/><use xlink:href="#O" transform="matrix(1,0,0,1,845,325) translate(177.32096354166666 23.40277777777778)"/></g><path d="M840 366a6 6 0 0 1 6-6h228a6 6 0 0 1 6 6v28a6 6 0 0 1-6 6H846a6 6 0 0 1-6-6z" stroke="#000" stroke-width="2" fill="#f2f3f5"/><g><use xlink:href="#G" transform="matrix(1,0,0,1,845,365) translate(47.297092013888886 23.40277777777778)"/><use xlink:href="#N" transform="matrix(1,0,0,1,845,365) translate(125.56315104166666 23.40277777777778)"/><use xlink:href="#P" transform="matrix(1,0,0,1,845,365) translate(177.32096354166666 23.40277777777778)"/></g><path d="M840 480.58a6 6 0 0 1 6-6h228a6 6 0 0 1 6 6v28a6 6 0 0 1-6 6H846a6 6 0 0 1-6-6z" stroke="#000" stroke-width="2" fill="#f2f3f5"/><g><use xlink:href="#G" transform="matrix(1,0,0,1,845,479.57682291666663) translate(13.898654513888886 23.40277777777778)"/><use xlink:href="#H" transform="matrix(1,0,0,1,845,479.57682291666663) translate(92.16471354166666 23.40277777777778)"/><use xlink:href="#M" transform="matrix(1,0,0,1,845,479.57682291666663) translate(202.37521701388889 23.40277777777778)"/></g><path d="M840 520.58a6 6 0 0 1 6-6h228a6 6 0 0 1 6 6v28a6 6 0 0 1-6 6H846a6 6 0 0 1-6-6z" stroke="#000" stroke-width="2" fill="#f2f3f5"/><g><use xlink:href="#G" transform="matrix(1,0,0,1,845,519.5768229166666) translate(9.297960069444443 23.40277777777778)"/><use xlink:href="#L" transform="matrix(1,0,0,1,845,519.5768229166666) translate(87.56401909722221 23.40277777777778)"/><use xlink:href="#Q" transform="matrix(1,0,0,1,845,519.5768229166666) translate(207.19292534722223 23.40277777777778)"/></g><path d="M840 560.58a6 6 0 0 1 6-6h228a6 6 0 0 1 6 6v28a6 6 0 0 1-6 6H846a6 6 0 0 1-6-6z" stroke="#000" stroke-width="2" fill="#f2f3f5"/><g><use xlink:href="#G" transform="matrix(1,0,0,1,845,559.5768229166666) translate(47.297092013888886 23.40277777777778)"/><use xlink:href="#N" transform="matrix(1,0,0,1,845,559.5768229166666) translate(125.56315104166666 23.40277777777778)"/><use xlink:href="#O" transform="matrix(1,0,0,1,845,559.5768229166666) translate(177.32096354166666 23.40277777777778)"/></g><path d="M840 600.58a6 6 0 0 1 6-6h228a6 6 0 0 1 6 6v28a6 6 0 0 1-6 6H846a6 6 0 0 1-6-6z" stroke="#000" stroke-width="2" fill="#f2f3f5"/><g><use xlink:href="#G" transform="matrix(1,0,0,1,845,599.5768229166666) translate(47.297092013888886 23.40277777777778)"/><use xlink:href="#N" transform="matrix(1,0,0,1,845,599.5768229166666) translate(125.56315104166666 23.40277777777778)"/><use xlink:href="#P" transform="matrix(1,0,0,1,845,599.5768229166666) translate(177.32096354166666 23.40277777777778)"/></g><path d="M440 346a6 6 0 0 1 6-6h148a6 6 0 0 1 6 6v162.58a6 6 0 0 1-6 6H446a6 6 0 0 1-6-6z" stroke="#e81313" stroke-width="6" fill-opacity="0"/><path d="M600 346a6 6 0 0 1 6-6h148a6 6 0 0 1 6 6v162.58a6 6 0 0 1-6 6H606a6 6 0 0 1-6-6z" stroke="#1071e5" stroke-width="6" fill-opacity="0"/><path d="M520 519.58v156.68" stroke="#e81313" stroke-width="4" fill="none"/><path d="M521.98 519.63H518v-2.05H522z" stroke="#e81313" stroke-width=".05" fill="#e81313"/><path d="M520 692.53l-4.63-14.27h9.26z" stroke="#e81313" stroke-width="4" fill="#e81313"/><path d="M815.67 429.67h80.5M815.7 429.67h-1.03" stroke="#5e5e5e" stroke-width="2" fill="none"/><path d="M911.43 429.67l-14.26 4.63v-9.27z" stroke="#5e5e5e" stroke-width="2" fill="#5e5e5e"/><path d="M350 706a6 6 0 0 1 6-6h328a6 6 0 0 1 6 6v28a6 6 0 0 1-6 6H356a6 6 0 0 1-6-6z" stroke="#000" stroke-width="2" fill="#fff"/><g><use xlink:href="#R" transform="matrix(1,0,0,1,355,705) translate(22.058376736111086 23.40277777777778)"/><use xlink:href="#S" transform="matrix(1,0,0,1,355,705) translate(83.70117187499997 23.40277777777778)"/><use xlink:href="#T" transform="matrix(1,0,0,1,355,705) translate(129.6538628472222 23.40277777777778)"/><use xlink:href="#U" transform="matrix(1,0,0,1,355,705) translate(154.24153645833331 23.40277777777778)"/><use xlink:href="#V" transform="matrix(1,0,0,1,355,705) translate(206.259765625 23.40277777777778)"/><use xlink:href="#W" transform="matrix(1,0,0,1,355,705) translate(224.98806423611111 23.40277777777778)"/><use xlink:href="#C" transform="matrix(1,0,0,1,355,705) translate(298.9029947916667 23.40277777777778)"/></g><path d="M680 519.58V674a6 6 0 0 0 6 6h10.26" stroke="#1071e5" stroke-width="4" fill="none"/><path d="M681.98 519.63H678v-2.05H682z" stroke="#1071e5" stroke-width=".05" fill="#1071e5"/><path d="M712.53 680l-14.27 4.63v-9.26z" stroke="#1071e5" stroke-width="4" fill="#1071e5"/><path d="M720 666a6 6 0 0 1 6-6h328a6 6 0 0 1 6 6v28a6 6 0 0 1-6 6H726a6 6 0 0 1-6-6z" stroke="#000" stroke-width="2" fill="#fff"/><g><use xlink:href="#X" transform="matrix(1,0,0,1,725,665) translate(19.801432291666657 23.40277777777778)"/><use xlink:href="#Y" transform="matrix(1,0,0,1,725,665) translate(81.44422743055554 23.40277777777778)"/><use xlink:href="#Z" transform="matrix(1,0,0,1,725,665) translate(127.39691840277777 23.40277777777778)"/><use xlink:href="#aa" transform="matrix(1,0,0,1,725,665) translate(151.98459201388889 23.40277777777778)"/><use xlink:href="#ab" transform="matrix(1,0,0,1,725,665) translate(204.00282118055557 23.40277777777778)"/><use xlink:href="#ac" transform="matrix(1,0,0,1,725,665) translate(222.73111979166669 23.40277777777778)"/><use xlink:href="#ad" transform="matrix(1,0,0,1,725,665) translate(296.6460503472223 23.40277777777778)"/></g><defs><path d="M180 0v-1490h190v644h782v-644h190V0h-190v-678H370V0H180" id="ae"/><path d="M628 24c-324 0-524-230-524-574 0-343 198-582 503-582 237 0 487 146 487 559v75H286c9 234 145 362 343 362 132 0 231-58 273-172l174 48C1024-91 857 24 628 24zM287-650h624c-17-190-120-322-304-322-192 0-309 151-320 322" id="af"/><path d="M471 26C259 26 90-98 90-318c0-256 228-303 435-329 202-27 287-16 287-108 0-139-79-219-234-219-161 0-248 86-283 164l-173-57c86-203 278-265 451-265 150 0 419 46 419 395V0H815v-152h-12C765-73 660 26 471 26zm31-159c199 0 310-134 310-271v-155c-30 35-226 55-295 64-131 17-246 59-246 186 0 116 97 176 231 176" id="ag"/><path d="M158 418v-1536h174v179h20c37-59 106-193 324-193 279 0 474 222 474 576 0 356-194 580-473 580-213 0-288-135-325-197h-14v591H158zm492-555c209 0 317-186 317-421 0-232-105-413-317-413-206 0-314 166-314 413 0 249 111 421 314 421" id="ah"/><g id="a"><use transform="matrix(0.010850694444444444,0,0,0.010850694444444444,0,0)" xlink:href="#ae"/><use transform="matrix(0.010850694444444444,0,0,0.010850694444444444,16.514756944444443,0)" xlink:href="#af"/><use transform="matrix(0.010850694444444444,0,0,0.010850694444444444,29.6875,0)" xlink:href="#ag"/><use transform="matrix(0.010850694444444444,0,0,0.010850694444444444,42.165798611111114,0)" xlink:href="#ah"/></g><path d="M180 0v-1490h270l367 940c28 72 75 218 110 339 35-117 81-264 110-339l362-940h271V0h-187c2-448-5-837 7-1287-157 497-311 829-483 1287H842C666-458 514-784 354-1284c12 438 5 843 7 1284H180" id="ai"/><path d="M598-1118v154H368v674c0 100 37 144 132 144 23 0 62-6 92-12L629-6c-37 13-88 20-134 20-193 0-307-107-307-290v-688H20v-154h168v-266h180v266h230" id="aj"/><path d="M158 0v-1118h174v172h12c41-113 157-188 290-188 26 0 70 2 91 3v181c-11-2-60-10-108-10-161 0-279 109-279 260V0H158" id="ak"/><path d="M158 0v-1118h180V0H158zm91-1301c-68 0-125-53-125-119s57-119 125-119c69 0 126 53 126 119s-57 119-126 119" id="al"/><path d="M126 0v-134l627-806v-11H146v-167h839v143L376-178v11h629V0H126" id="am"/><g id="b"><use transform="matrix(0.010850694444444444,0,0,0.010850694444444444,0,0)" xlink:href="#ai"/><use transform="matrix(0.010850694444444444,0,0,0.010850694444444444,20.07378472222222,0)" xlink:href="#ag"/><use transform="matrix(0.010850694444444444,0,0,0.010850694444444444,32.55208333333333,0)" xlink:href="#aj"/><use transform="matrix(0.010850694444444444,0,0,0.010850694444444444,39.82204861111111,0)" xlink:href="#ak"/><use transform="matrix(0.010850694444444444,0,0,0.010850694444444444,48.535156249999986,0)" xlink:href="#al"/><use transform="matrix(0.010850694444444444,0,0,0.010850694444444444,53.917100694444436,0)" xlink:href="#am"/></g><path d="M226 279v-1860h398v153H398V126h226v153H226" id="an"/><path d="M646 20c-332 0-524-278-524-764 0-483 194-766 524-766s524 283 524 766c0 485-191 764-524 764zm0-166c218 0 341-220 341-598 0-380-123-601-341-601s-341 222-341 601c0 378 123 598 341 598" id="ao"/><path d="M128 359l88-567h206L266 359H128" id="ap"/><path d="M123 279V126h226v-1554H123v-153h398V279H123" id="aq"/><g id="c"><use transform="matrix(0.010850694444444444,0,0,0.010850694444444444,0,0)" xlink:href="#an"/><use transform="matrix(0.010850694444444444,0,0,0.010850694444444444,8.10546875,0)" xlink:href="#ao"/><use transform="matrix(0.010850694444444444,0,0,0.010850694444444444,21.56032986111111,0)" xlink:href="#ap"/><use transform="matrix(0.010850694444444444,0,0,0.010850694444444444,27.39800347222222,0)" xlink:href="#ao"/><use transform="matrix(0.010850694444444444,0,0,0.010850694444444444,41.41710069444444,0)" xlink:href="#aq"/></g><path d="M653-1490V0H466v-1314h-10L96-1047v-204l324-239h233" id="ar"/><g id="d"><use transform="matrix(0.010850694444444444,0,0,0.010850694444444444,0,0)" xlink:href="#an"/><use transform="matrix(0.010850694444444444,0,0,0.010850694444444444,8.10546875,0)" xlink:href="#ao"/><use transform="matrix(0.010850694444444444,0,0,0.010850694444444444,21.56032986111111,0)" xlink:href="#ap"/><use transform="matrix(0.010850694444444444,0,0,0.010850694444444444,26.041666666666664,0)" xlink:href="#ar"/><use transform="matrix(0.010850694444444444,0,0,0.010850694444444444,35.080295138888886,0)" xlink:href="#aq"/></g><path d="M154 0v-137l495-537c165-179 249-281 249-418 0-156-121-253-280-253-170 0-278 110-278 278H158c0-264 200-443 465-443 266 0 455 183 455 416 0 161-73 288-336 568L416-179v12h687V0H154" id="as"/><g id="e"><use transform="matrix(0.010850694444444444,0,0,0.010850694444444444,0,0)" xlink:href="#an"/><use transform="matrix(0.010850694444444444,0,0,0.010850694444444444,8.10546875,0)" xlink:href="#ao"/><use transform="matrix(0.010850694444444444,0,0,0.010850694444444444,21.56032986111111,0)" xlink:href="#ap"/><use transform="matrix(0.010850694444444444,0,0,0.010850694444444444,27.962239583333332,0)" xlink:href="#as"/><use transform="matrix(0.010850694444444444,0,0,0.010850694444444444,41.51475694444444,0)" xlink:href="#aq"/></g><path d="M635 20c-292 0-500-160-510-396h192c11 142 145 229 315 229 187 0 323-105 323-260 0-161-125-274-346-274H488v-165h121c174 0 294-100 294-254 0-148-104-245-266-245-152 0-291 85-297 230H157c8-234 222-395 484-395 278 0 448 188 448 400 0 168-95 291-247 336v12c190 31 301 169 301 357 0 244-216 425-508 425" id="at"/><g id="f"><use transform="matrix(0.010850694444444444,0,0,0.010850694444444444,0,0)" xlink:href="#an"/><use transform="matrix(0.010850694444444444,0,0,0.010850694444444444,8.10546875,0)" xlink:href="#ao"/><use transform="matrix(0.010850694444444444,0,0,0.010850694444444444,21.56032986111111,0)" xlink:href="#ap"/><use transform="matrix(0.010850694444444444,0,0,0.010850694444444444,27.36545138888889,0)" xlink:href="#at"/><use transform="matrix(0.010850694444444444,0,0,0.010850694444444444,41.091579861111114,0)" xlink:href="#aq"/></g><path d="M120-303v-155l652-1032h231v1020h202v167h-202V0H821v-303H120zm702-167v-782h-12L323-482v12h499" id="au"/><g id="g"><use transform="matrix(0.010850694444444444,0,0,0.010850694444444444,0,0)" xlink:href="#an"/><use transform="matrix(0.010850694444444444,0,0,0.010850694444444444,8.10546875,0)" xlink:href="#ao"/><use transform="matrix(0.010850694444444444,0,0,0.010850694444444444,21.56032986111111,0)" xlink:href="#ap"/><use transform="matrix(0.010850694444444444,0,0,0.010850694444444444,27.962239583333332,0)" xlink:href="#au"/><use transform="matrix(0.010850694444444444,0,0,0.010850694444444444,42.31770833333333,0)" xlink:href="#aq"/></g><g id="h"><use transform="matrix(0.010850694444444444,0,0,0.010850694444444444,0,0)" xlink:href="#an"/><use transform="matrix(0.010850694444444444,0,0,0.010850694444444444,8.10546875,0)" xlink:href="#ar"/><use transform="matrix(0.010850694444444444,0,0,0.010850694444444444,17.14409722222222,0)" xlink:href="#ap"/><use transform="matrix(0.010850694444444444,0,0,0.010850694444444444,22.981770833333332,0)" xlink:href="#ao"/><use transform="matrix(0.010850694444444444,0,0,0.010850694444444444,37.00086805555556,0)" xlink:href="#aq"/></g><g id="i"><use transform="matrix(0.010850694444444444,0,0,0.010850694444444444,0,0)" xlink:href="#an"/><use transform="matrix(0.010850694444444444,0,0,0.010850694444444444,8.10546875,0)" xlink:href="#ar"/><use transform="matrix(0.010850694444444444,0,0,0.010850694444444444,17.14409722222222,0)" xlink:href="#ap"/><use transform="matrix(0.010850694444444444,0,0,0.010850694444444444,21.62543402777778,0)" xlink:href="#ar"/><use transform="matrix(0.010850694444444444,0,0,0.010850694444444444,30.6640625,0)" xlink:href="#aq"/></g><g id="j"><use transform="matrix(0.010850694444444444,0,0,0.010850694444444444,0,0)" xlink:href="#an"/><use transform="matrix(0.010850694444444444,0,0,0.010850694444444444,8.10546875,0)" xlink:href="#ar"/><use transform="matrix(0.010850694444444444,0,0,0.010850694444444444,17.14409722222222,0)" xlink:href="#ap"/><use transform="matrix(0.010850694444444444,0,0,0.010850694444444444,23.546006944444443,0)" xlink:href="#as"/><use transform="matrix(0.010850694444444444,0,0,0.010850694444444444,37.09852430555556,0)" xlink:href="#aq"/></g><g id="k"><use transform="matrix(0.010850694444444444,0,0,0.010850694444444444,0,0)" xlink:href="#an"/><use transform="matrix(0.010850694444444444,0,0,0.010850694444444444,8.10546875,0)" xlink:href="#ar"/><use transform="matrix(0.010850694444444444,0,0,0.010850694444444444,17.14409722222222,0)" xlink:href="#ap"/><use transform="matrix(0.010850694444444444,0,0,0.010850694444444444,22.94921875,0)" xlink:href="#at"/><use transform="matrix(0.010850694444444444,0,0,0.010850694444444444,36.67534722222222,0)" xlink:href="#aq"/></g><g id="l"><use transform="matrix(0.010850694444444444,0,0,0.010850694444444444,0,0)" xlink:href="#an"/><use transform="matrix(0.010850694444444444,0,0,0.010850694444444444,8.10546875,0)" xlink:href="#ar"/><use transform="matrix(0.010850694444444444,0,0,0.010850694444444444,17.14409722222222,0)" xlink:href="#ap"/><use transform="matrix(0.010850694444444444,0,0,0.010850694444444444,23.546006944444443,0)" xlink:href="#au"/><use transform="matrix(0.010850694444444444,0,0,0.010850694444444444,37.90147569444444,0)" xlink:href="#aq"/></g><g id="m"><use transform="matrix(0.010850694444444444,0,0,0.010850694444444444,0,0)" xlink:href="#an"/><use transform="matrix(0.010850694444444444,0,0,0.010850694444444444,8.10546875,0)" xlink:href="#as"/><use transform="matrix(0.010850694444444444,0,0,0.010850694444444444,21.65798611111111,0)" xlink:href="#ap"/><use transform="matrix(0.010850694444444444,0,0,0.010850694444444444,27.49565972222222,0)" xlink:href="#ao"/><use transform="matrix(0.010850694444444444,0,0,0.010850694444444444,41.51475694444444,0)" xlink:href="#aq"/></g><g id="n"><use transform="matrix(0.010850694444444444,0,0,0.010850694444444444,0,0)" xlink:href="#an"/><use transform="matrix(0.010850694444444444,0,0,0.010850694444444444,8.10546875,0)" xlink:href="#as"/><use transform="matrix(0.010850694444444444,0,0,0.010850694444444444,21.65798611111111,0)" xlink:href="#ap"/><use transform="matrix(0.010850694444444444,0,0,0.010850694444444444,26.139322916666664,0)" xlink:href="#ar"/><use transform="matrix(0.010850694444444444,0,0,0.010850694444444444,35.177951388888886,0)" xlink:href="#aq"/></g><g id="o"><use transform="matrix(0.010850694444444444,0,0,0.010850694444444444,0,0)" xlink:href="#an"/><use transform="matrix(0.010850694444444444,0,0,0.010850694444444444,8.10546875,0)" xlink:href="#as"/><use transform="matrix(0.010850694444444444,0,0,0.010850694444444444,21.65798611111111,0)" xlink:href="#ap"/><use transform="matrix(0.010850694444444444,0,0,0.010850694444444444,28.059895833333332,0)" xlink:href="#as"/><use transform="matrix(0.010850694444444444,0,0,0.010850694444444444,41.61241319444444,0)" xlink:href="#aq"/></g><g id="p"><use transform="matrix(0.010850694444444444,0,0,0.010850694444444444,0,0)" xlink:href="#an"/><use transform="matrix(0.010850694444444444,0,0,0.010850694444444444,8.10546875,0)" xlink:href="#as"/><use transform="matrix(0.010850694444444444,0,0,0.010850694444444444,21.65798611111111,0)" xlink:href="#ap"/><use transform="matrix(0.010850694444444444,0,0,0.010850694444444444,27.46310763888889,0)" xlink:href="#at"/><use transform="matrix(0.010850694444444444,0,0,0.010850694444444444,41.189236111111114,0)" xlink:href="#aq"/></g><g id="q"><use transform="matrix(0.010850694444444444,0,0,0.010850694444444444,0,0)" xlink:href="#an"/><use transform="matrix(0.010850694444444444,0,0,0.010850694444444444,8.10546875,0)" xlink:href="#as"/><use transform="matrix(0.010850694444444444,0,0,0.010850694444444444,21.65798611111111,0)" xlink:href="#ap"/><use transform="matrix(0.010850694444444444,0,0,0.010850694444444444,28.059895833333332,0)" xlink:href="#au"/><use transform="matrix(0.010850694444444444,0,0,0.010850694444444444,42.41536458333333,0)" xlink:href="#aq"/></g><g id="r"><use transform="matrix(0.010850694444444444,0,0,0.010850694444444444,0,0)" xlink:href="#an"/><use transform="matrix(0.010850694444444444,0,0,0.010850694444444444,8.10546875,0)" xlink:href="#at"/><use transform="matrix(0.010850694444444444,0,0,0.010850694444444444,21.33246527777778,0)" xlink:href="#ap"/><use transform="matrix(0.010850694444444444,0,0,0.010850694444444444,27.17013888888889,0)" xlink:href="#ao"/><use transform="matrix(0.010850694444444444,0,0,0.010850694444444444,41.189236111111114,0)" xlink:href="#aq"/></g><g id="s"><use transform="matrix(0.010850694444444444,0,0,0.010850694444444444,0,0)" xlink:href="#an"/><use transform="matrix(0.010850694444444444,0,0,0.010850694444444444,8.10546875,0)" xlink:href="#at"/><use transform="matrix(0.010850694444444444,0,0,0.010850694444444444,21.33246527777778,0)" xlink:href="#ap"/><use transform="matrix(0.010850694444444444,0,0,0.010850694444444444,25.813802083333332,0)" xlink:href="#ar"/><use transform="matrix(0.010850694444444444,0,0,0.010850694444444444,34.85243055555556,0)" xlink:href="#aq"/></g><g id="t"><use transform="matrix(0.010850694444444444,0,0,0.010850694444444444,0,0)" xlink:href="#an"/><use transform="matrix(0.010850694444444444,0,0,0.010850694444444444,8.10546875,0)" xlink:href="#at"/><use transform="matrix(0.010850694444444444,0,0,0.010850694444444444,21.33246527777778,0)" xlink:href="#ap"/><use transform="matrix(0.010850694444444444,0,0,0.010850694444444444,27.734375,0)" xlink:href="#as"/><use transform="matrix(0.010850694444444444,0,0,0.010850694444444444,41.286892361111114,0)" xlink:href="#aq"/></g><g id="u"><use transform="matrix(0.010850694444444444,0,0,0.010850694444444444,0,0)" xlink:href="#an"/><use transform="matrix(0.010850694444444444,0,0,0.010850694444444444,8.10546875,0)" xlink:href="#at"/><use transform="matrix(0.010850694444444444,0,0,0.010850694444444444,21.33246527777778,0)" xlink:href="#ap"/><use transform="matrix(0.010850694444444444,0,0,0.010850694444444444,27.13758680555556,0)" xlink:href="#at"/><use transform="matrix(0.010850694444444444,0,0,0.010850694444444444,40.86371527777778,0)" xlink:href="#aq"/></g><g id="v"><use transform="matrix(0.010850694444444444,0,0,0.010850694444444444,0,0)" xlink:href="#an"/><use transform="matrix(0.010850694444444444,0,0,0.010850694444444444,8.10546875,0)" xlink:href="#at"/><use transform="matrix(0.010850694444444444,0,0,0.010850694444444444,21.33246527777778,0)" xlink:href="#ap"/><use transform="matrix(0.010850694444444444,0,0,0.010850694444444444,27.734375,0)" xlink:href="#au"/><use transform="matrix(0.010850694444444444,0,0,0.010850694444444444,42.08984375,0)" xlink:href="#aq"/></g><g id="w"><use transform="matrix(0.010850694444444444,0,0,0.010850694444444444,0,0)" xlink:href="#an"/><use transform="matrix(0.010850694444444444,0,0,0.010850694444444444,8.10546875,0)" xlink:href="#au"/><use transform="matrix(0.010850694444444444,0,0,0.010850694444444444,21.712239583333332,0)" xlink:href="#ap"/><use transform="matrix(0.010850694444444444,0,0,0.010850694444444444,27.549913194444443,0)" xlink:href="#ao"/><use transform="matrix(0.010850694444444444,0,0,0.010850694444444444,41.569010416666664,0)" xlink:href="#aq"/></g><g id="x"><use transform="matrix(0.010850694444444444,0,0,0.010850694444444444,0,0)" xlink:href="#an"/><use transform="matrix(0.010850694444444444,0,0,0.010850694444444444,8.10546875,0)" xlink:href="#au"/><use transform="matrix(0.010850694444444444,0,0,0.010850694444444444,21.712239583333332,0)" xlink:href="#ap"/><use transform="matrix(0.010850694444444444,0,0,0.010850694444444444,26.19357638888889,0)" xlink:href="#ar"/><use transform="matrix(0.010850694444444444,0,0,0.010850694444444444,35.23220486111111,0)" xlink:href="#aq"/></g><g id="y"><use transform="matrix(0.010850694444444444,0,0,0.010850694444444444,0,0)" xlink:href="#an"/><use transform="matrix(0.010850694444444444,0,0,0.010850694444444444,8.10546875,0)" xlink:href="#au"/><use transform="matrix(0.010850694444444444,0,0,0.010850694444444444,21.712239583333332,0)" xlink:href="#ap"/><use transform="matrix(0.010850694444444444,0,0,0.010850694444444444,28.114149305555554,0)" xlink:href="#as"/><use transform="matrix(0.010850694444444444,0,0,0.010850694444444444,41.666666666666664,0)" xlink:href="#aq"/></g><g id="z"><use transform="matrix(0.010850694444444444,0,0,0.010850694444444444,0,0)" xlink:href="#an"/><use transform="matrix(0.010850694444444444,0,0,0.010850694444444444,8.10546875,0)" xlink:href="#au"/><use transform="matrix(0.010850694444444444,0,0,0.010850694444444444,21.712239583333332,0)" xlink:href="#ap"/><use transform="matrix(0.010850694444444444,0,0,0.010850694444444444,27.51736111111111,0)" xlink:href="#at"/><use transform="matrix(0.010850694444444444,0,0,0.010850694444444444,41.24348958333333,0)" xlink:href="#aq"/></g><g id="A"><use transform="matrix(0.010850694444444444,0,0,0.010850694444444444,0,0)" xlink:href="#an"/><use transform="matrix(0.010850694444444444,0,0,0.010850694444444444,8.10546875,0)" xlink:href="#au"/><use transform="matrix(0.010850694444444444,0,0,0.010850694444444444,21.712239583333332,0)" xlink:href="#ap"/><use transform="matrix(0.010850694444444444,0,0,0.010850694444444444,28.114149305555554,0)" xlink:href="#au"/><use transform="matrix(0.010850694444444444,0,0,0.010850694444444444,42.46961805555556,0)" xlink:href="#aq"/></g><path d="M98-1322v-168h1126v168H757V0H567v-1322H98" id="av"/><path d="M338-670V0H158v-1490h180v566c73-149 190-208 336-208 226 0 379 139 379 422V0H872v-695c0-172-96-275-252-275-161 0-282 109-282 300" id="aw"/><path d="M577 24c-279 0-473-224-473-580 0-354 195-576 474-576 218 0 287 134 324 193h14v-551h180V0H922v-173h-20C865-111 790 24 577 24zm27-161c203 0 314-172 314-421 0-247-108-413-314-413-212 0-317 181-317 413 0 235 108 421 317 421" id="ax"/><g id="B"><use transform="matrix(0.010850694444444444,0,0,0.010850694444444444,0,0)" xlink:href="#av"/><use transform="matrix(0.010850694444444444,0,0,0.010850694444444444,14.344618055555555,0)" xlink:href="#aw"/><use transform="matrix(0.010850694444444444,0,0,0.010850694444444444,27.48480902777778,0)" xlink:href="#ak"/><use transform="matrix(0.010850694444444444,0,0,0.010850694444444444,35.481770833333336,0)" xlink:href="#af"/><use transform="matrix(0.010850694444444444,0,0,0.010850694444444444,48.654513888888886,0)" xlink:href="#ag"/><use transform="matrix(0.010850694444444444,0,0,0.010850694444444444,61.1328125,0)" xlink:href="#ax"/></g><use transform="matrix(0.010850694444444444,0,0,0.010850694444444444,0,0)" xlink:href="#ar" id="C"/><use transform="matrix(0.010850694444444444,0,0,0.010850694444444444,0,0)" xlink:href="#as" id="D"/><path d="M158 0v-1118h175l1 205c55-151 181-225 313-225 147 0 245 90 285 228 53-141 190-228 352-228 194 0 352 125 352 384V0h-181v-749c0-161-105-225-225-225-151 0-243 103-243 244V0H807v-767c0-124-93-207-219-207-131 0-250 92-250 270V0H158" id="ay"/><path d="M295 13c-75 0-135-60-135-135s60-135 135-135 135 60 135 135S370 13 295 13zm0-809c-75 0-135-60-135-135s60-135 135-135 135 60 135 135-60 135-135 135" id="az"/><g id="E"><use transform="matrix(0.010850694444444444,0,0,0.010850694444444444,0,0)" xlink:href="#ay"/><use transform="matrix(0.010850694444444444,0,0,0.010850694444444444,19.466145833333332,0)" xlink:href="#ag"/><use transform="matrix(0.010850694444444444,0,0,0.010850694444444444,31.944444444444443,0)" xlink:href="#aj"/><use transform="matrix(0.010850694444444444,0,0,0.010850694444444444,39.21440972222222,0)" xlink:href="#ak"/><use transform="matrix(0.010850694444444444,0,0,0.010850694444444444,47.92751736111111,0)" xlink:href="#al"/><use transform="matrix(0.010850694444444444,0,0,0.010850694444444444,53.30946180555556,0)" xlink:href="#am"/><use transform="matrix(0.010850694444444444,0,0,0.010850694444444444,65.58159722222221,0)" xlink:href="#az"/></g><path d="M338-1490V0H158v-1490h180" id="aA"/><path d="M338-670V0H158v-1118h173l1 207c72-158 192-221 342-221 226 0 378 139 378 422V0H872v-695c0-172-96-275-252-275-161 0-282 109-282 300" id="aB"/><path d="M798-719v166H144v-166h654" id="aC"/><path d="M1181-520L237-44v-194l712-338v-12L237-926v-196l944 476v126" id="aD"/><path d="M537 14c-226 0-379-139-379-422v-710h180v695c0 172 97 275 253 275 160 0 281-109 281-300v-670h181V0H879v-209C806-46 684 14 537 14" id="aE"/><path d="M538 24C308 24 148-78 108-271l171-41c32 123 123 178 257 178 156 0 256-77 256-169 0-77-54-128-164-154l-186-44c-203-48-300-148-300-305 0-192 176-326 414-326 230 0 351 112 402 269l-163 42c-31-80-94-158-238-158-133 0-233 69-233 162 0 83 57 129 188 160l169 40c203 48 298 149 298 302 0 196-179 339-441 339" id="aF"/><g id="F"><use transform="matrix(0.010850694444444444,0,0,0.010850694444444444,0,0)" xlink:href="#aA"/><use transform="matrix(0.010850694444444444,0,0,0.010850694444444444,5.381944444444445,0)" xlink:href="#ag"/><use transform="matrix(0.010850694444444444,0,0,0.010850694444444444,17.860243055555557,0)" xlink:href="#ay"/><use transform="matrix(0.010850694444444444,0,0,0.010850694444444444,37.326388888888886,0)" xlink:href="#al"/><use transform="matrix(0.010850694444444444,0,0,0.010850694444444444,42.70833333333333,0)" xlink:href="#aB"/><use transform="matrix(0.010850694444444444,0,0,0.010850694444444444,55.83767361111111,0)" xlink:href="#ag"/><use transform="matrix(0.010850694444444444,0,0,0.010850694444444444,68.31597222222221,0)" xlink:href="#aC"/><use transform="matrix(0.010850694444444444,0,0,0.010850694444444444,78.53732638888889,0)" xlink:href="#aD"/><use transform="matrix(0.010850694444444444,0,0,0.010850694444444444,93.24001736111111,0)" xlink:href="#aj"/><use transform="matrix(0.010850694444444444,0,0,0.010850694444444444,100.29296875,0)" xlink:href="#af"/><use transform="matrix(0.010850694444444444,0,0,0.010850694444444444,113.24869791666666,0)" xlink:href="#ay"/><use transform="matrix(0.010850694444444444,0,0,0.010850694444444444,132.71484375,0)" xlink:href="#ah"/><use transform="matrix(0.010850694444444444,0,0,0.010850694444444444,146.32161458333334,0)" xlink:href="#af"/><use transform="matrix(0.010850694444444444,0,0,0.010850694444444444,159.27734375,0)" xlink:href="#ak"/><use transform="matrix(0.010850694444444444,0,0,0.010850694444444444,167.64322916666666,0)" xlink:href="#ag"/><use transform="matrix(0.010850694444444444,0,0,0.010850694444444444,180.12152777777777,0)" xlink:href="#aj"/><use transform="matrix(0.010850694444444444,0,0,0.010850694444444444,187.39149305555554,0)" xlink:href="#aE"/><use transform="matrix(0.010850694444444444,0,0,0.010850694444444444,200.53168402777777,0)" xlink:href="#ak"/><use transform="matrix(0.010850694444444444,0,0,0.010850694444444444,208.52864583333331,0)" xlink:href="#af"/><use transform="matrix(0.010850694444444444,0,0,0.010850694444444444,221.48437499999994,0)" xlink:href="#aF"/></g><path d="M613 24c-304 0-509-231-509-576 0-350 205-580 509-580 305 0 511 230 511 580 0 345-206 576-511 576zm0-161c226 0 329-195 329-415 0-222-103-419-329-419-223 0-326 196-326 419 0 220 103 415 326 415" id="aG"/><path d="M677 24c-213 0-288-135-325-197h-20V0H158v-1490h180v551h14c37-59 106-193 324-193 279 0 474 222 474 576 0 356-194 580-473 580zm-27-161c209 0 317-186 317-421 0-232-105-413-317-413-206 0-314 166-314 413 0 249 111 421 314 421" id="aH"/><g id="G"><use transform="matrix(0.010850694444444444,0,0,0.010850694444444444,0,0)" xlink:href="#ax"/><use transform="matrix(0.010850694444444444,0,0,0.010850694444444444,13.606770833333332,0)" xlink:href="#aG"/><use transform="matrix(0.010850694444444444,0,0,0.010850694444444444,26.931423611111104,0)" xlink:href="#aE"/><use transform="matrix(0.010850694444444444,0,0,0.010850694444444444,40.07161458333333,0)" xlink:href="#aH"/><use transform="matrix(0.010850694444444444,0,0,0.010850694444444444,53.67838541666666,0)" xlink:href="#aA"/><use transform="matrix(0.010850694444444444,0,0,0.010850694444444444,59.0603298611111,0)" xlink:href="#af"/></g><path d="M934 0v166H0V0h934" id="aI"/><path d="M409 0L70-1118h191c89 329 165 560 243 925 75-353 154-601 240-925h192c85 325 161 564 235 922 77-354 157-598 244-922h191L1267 0h-179c-86-307-176-590-250-913C763-588 675-308 588 0H409" id="aJ"/><g id="H"><use transform="matrix(0.010850694444444444,0,0,0.010850694444444444,0,0)" xlink:href="#aF"/><use transform="matrix(0.010850694444444444,0,0,0.010850694444444444,11.729600694444445,0)" xlink:href="#aj"/><use transform="matrix(0.010850694444444444,0,0,0.010850694444444444,19.108072916666668,0)" xlink:href="#ag"/><use transform="matrix(0.010850694444444444,0,0,0.010850694444444444,31.586371527777775,0)" xlink:href="#ak"/><use transform="matrix(0.010850694444444444,0,0,0.010850694444444444,40.299479166666664,0)" xlink:href="#aj"/><use transform="matrix(0.010850694444444444,0,0,0.010850694444444444,47.56944444444444,0)" xlink:href="#aI"/><use transform="matrix(0.010850694444444444,0,0,0.010850694444444444,58.45269097222221,0)" xlink:href="#ak"/><use transform="matrix(0.010850694444444444,0,0,0.010850694444444444,66.44965277777777,0)" xlink:href="#aG"/><use transform="matrix(0.010850694444444444,0,0,0.010850694444444444,79.3728298611111,0)" xlink:href="#aJ"/><use transform="matrix(0.010850694444444444,0,0,0.010850694444444444,97.55859374999997,0)" xlink:href="#az"/></g><use transform="matrix(0.010850694444444444,0,0,0.010850694444444444,0,0)" xlink:href="#ao" id="I"/><g id="J"><use transform="matrix(0.010850694444444444,0,0,0.010850694444444444,0,0)" xlink:href="#ay"/><use transform="matrix(0.010850694444444444,0,0,0.010850694444444444,19.466145833333332,0)" xlink:href="#ag"/><use transform="matrix(0.010850694444444444,0,0,0.010850694444444444,31.944444444444443,0)" xlink:href="#aj"/><use transform="matrix(0.010850694444444444,0,0,0.010850694444444444,39.21440972222222,0)" xlink:href="#ak"/><use transform="matrix(0.010850694444444444,0,0,0.010850694444444444,47.92751736111111,0)" xlink:href="#al"/><use transform="matrix(0.010850694444444444,0,0,0.010850694444444444,53.30946180555556,0)" xlink:href="#am"/><use transform="matrix(0.010850694444444444,0,0,0.010850694444444444,65.58159722222221,0)" xlink:href="#az"/></g><g id="K"><use transform="matrix(0.010850694444444444,0,0,0.010850694444444444,0,0)" xlink:href="#aA"/><use transform="matrix(0.010850694444444444,0,0,0.010850694444444444,5.381944444444445,0)" xlink:href="#ag"/><use transform="matrix(0.010850694444444444,0,0,0.010850694444444444,17.860243055555557,0)" xlink:href="#ay"/><use transform="matrix(0.010850694444444444,0,0,0.010850694444444444,37.326388888888886,0)" xlink:href="#al"/><use transform="matrix(0.010850694444444444,0,0,0.010850694444444444,42.70833333333333,0)" xlink:href="#aB"/><use transform="matrix(0.010850694444444444,0,0,0.010850694444444444,55.83767361111111,0)" xlink:href="#ag"/><use transform="matrix(0.010850694444444444,0,0,0.010850694444444444,68.31597222222221,0)" xlink:href="#aC"/><use transform="matrix(0.010850694444444444,0,0,0.010850694444444444,78.53732638888889,0)" xlink:href="#aD"/><use transform="matrix(0.010850694444444444,0,0,0.010850694444444444,93.24001736111111,0)" xlink:href="#aj"/><use transform="matrix(0.010850694444444444,0,0,0.010850694444444444,100.29296875,0)" xlink:href="#af"/><use transform="matrix(0.010850694444444444,0,0,0.010850694444444444,113.24869791666666,0)" xlink:href="#ay"/><use transform="matrix(0.010850694444444444,0,0,0.010850694444444444,132.71484375,0)" xlink:href="#ah"/><use transform="matrix(0.010850694444444444,0,0,0.010850694444444444,146.32161458333334,0)" xlink:href="#af"/><use transform="matrix(0.010850694444444444,0,0,0.010850694444444444,159.27734375,0)" xlink:href="#ak"/><use transform="matrix(0.010850694444444444,0,0,0.010850694444444444,167.64322916666666,0)" xlink:href="#ag"/><use transform="matrix(0.010850694444444444,0,0,0.010850694444444444,180.12152777777777,0)" xlink:href="#aj"/><use transform="matrix(0.010850694444444444,0,0,0.010850694444444444,187.39149305555554,0)" xlink:href="#aE"/><use transform="matrix(0.010850694444444444,0,0,0.010850694444444444,200.53168402777777,0)" xlink:href="#ak"/><use transform="matrix(0.010850694444444444,0,0,0.010850694444444444,208.52864583333331,0)" xlink:href="#af"/><use transform="matrix(0.010850694444444444,0,0,0.010850694444444444,221.48437499999994,0)" xlink:href="#aF"/></g><path d="M678-1118v154H420V0H240v-964H20v-154h220v-149c0-194 155-293 318-293 85 0 141 18 168 30l-50 154c-19-6-47-17-97-17-111 0-159 58-159 166v109h258" id="aK"/><g id="L"><use transform="matrix(0.010850694444444444,0,0,0.010850694444444444,0,0)" xlink:href="#aK"/><use transform="matrix(0.010850694444444444,0,0,0.010850694444444444,8.22482638888889,0)" xlink:href="#al"/><use transform="matrix(0.010850694444444444,0,0,0.010850694444444444,13.606770833333332,0)" xlink:href="#aB"/><use transform="matrix(0.010850694444444444,0,0,0.010850694444444444,26.73611111111111,0)" xlink:href="#al"/><use transform="matrix(0.010850694444444444,0,0,0.010850694444444444,32.11805555555556,0)" xlink:href="#aF"/><use transform="matrix(0.010850694444444444,0,0,0.010850694444444444,43.84765625,0)" xlink:href="#aw"/><use transform="matrix(0.010850694444444444,0,0,0.010850694444444444,56.98784722222222,0)" xlink:href="#aI"/><use transform="matrix(0.010850694444444444,0,0,0.010850694444444444,67.87109375,0)" xlink:href="#ak"/><use transform="matrix(0.010850694444444444,0,0,0.010850694444444444,75.86805555555556,0)" xlink:href="#aG"/><use transform="matrix(0.010850694444444444,0,0,0.010850694444444444,88.79123263888889,0)" xlink:href="#aJ"/><use transform="matrix(0.010850694444444444,0,0,0.010850694444444444,106.97699652777777,0)" xlink:href="#az"/></g><use transform="matrix(0.010850694444444444,0,0,0.010850694444444444,0,0)" xlink:href="#at" id="M"/><g id="N"><use transform="matrix(0.010850694444444444,0,0,0.010850694444444444,0,0)" xlink:href="#ak"/><use transform="matrix(0.010850694444444444,0,0,0.010850694444444444,7.996961805555555,0)" xlink:href="#aG"/><use transform="matrix(0.010850694444444444,0,0,0.010850694444444444,20.920138888888886,0)" xlink:href="#aJ"/><use transform="matrix(0.010850694444444444,0,0,0.010850694444444444,39.10590277777777,0)" xlink:href="#az"/></g><use transform="matrix(0.010850694444444444,0,0,0.010850694444444444,0,0)" xlink:href="#al" id="O"/><path d="M157-1118h181V80c1 225-123 350-364 338V252c126 9 184-48 183-172v-1198zm91-183c-68 0-125-53-125-119s57-119 125-119c69 0 126 53 126 119s-57 119-126 119" id="aL"/><use transform="matrix(0.010850694444444444,0,0,0.010850694444444444,0,0)" xlink:href="#aL" id="P"/><path d="M626 20c-262 0-458-168-468-396h184c12 133 134 229 284 229 180 0 311-137 311-326 0-192-136-335-323-335-92 0-196 33-255 78l-178-22 88-738h784v167H429l-51 435h8c61-51 160-87 263-87 273 0 474 211 474 499 0 286-210 496-497 496" id="aM"/><use transform="matrix(0.010850694444444444,0,0,0.010850694444444444,0,0)" xlink:href="#aM" id="Q"/><path d="M180 0v-1490h510c348 0 508 209 508 474 0 266-160 477-507 477H370V0H180zm190-706h312c236 0 327-133 327-310 0-176-91-307-329-307H370v617" id="aN"/><g id="R"><use transform="matrix(0.010850694444444444,0,0,0.010850694444444444,0,0)" xlink:href="#aN"/><use transform="matrix(0.010850694444444444,0,0,0.010850694444444444,14.192708333333332,0)" xlink:href="#ag"/><use transform="matrix(0.010850694444444444,0,0,0.010850694444444444,26.671006944444443,0)" xlink:href="#ak"/><use transform="matrix(0.010850694444444444,0,0,0.010850694444444444,35.38411458333333,0)" xlink:href="#aj"/><use transform="matrix(0.010850694444444444,0,0,0.010850694444444444,42.43706597222222,0)" xlink:href="#af"/></g><path d="M1096 418H916v-591h-14C865-111 790 24 577 24c-279 0-473-224-473-580 0-354 195-576 474-576 218 0 287 134 324 193h20v-179h174V418zM604-137c203 0 314-172 314-421 0-247-108-413-314-413-212 0-317 181-317 413 0 235 108 421 317 421" id="aO"/><g id="S"><use transform="matrix(0.010850694444444444,0,0,0.010850694444444444,0,0)" xlink:href="#aO"/><use transform="matrix(0.010850694444444444,0,0,0.010850694444444444,13.606770833333332,0)" xlink:href="#aE"/><use transform="matrix(0.010850694444444444,0,0,0.010850694444444444,26.746961805555554,0)" xlink:href="#af"/></g><g id="T"><use transform="matrix(0.010850694444444444,0,0,0.010850694444444444,0,0)" xlink:href="#aA"/><use transform="matrix(0.010850694444444444,0,0,0.010850694444444444,5.381944444444445,0)" xlink:href="#af"/></g><path d="M613 24c-304 0-509-231-509-576 0-350 205-580 509-580 216 0 392 114 453 309l-173 49c-33-115-133-197-280-197-223 0-326 196-326 419 0 220 103 415 326 415 150 0 252-85 285-206l172 49C1010-95 832 24 613 24" id="aP"/><g id="U"><use transform="matrix(0.010850694444444444,0,0,0.010850694444444444,0,0)" xlink:href="#aj"/><use transform="matrix(0.010850694444444444,0,0,0.010850694444444444,7.052951388888888,0)" xlink:href="#aG"/><use transform="matrix(0.010850694444444444,0,0,0.010850694444444444,20.377604166666664,0)" xlink:href="#aP"/><use transform="matrix(0.010850694444444444,0,0,0.010850694444444444,33.28993055555556,0)" xlink:href="#ag"/></g><use transform="matrix(0.010850694444444444,0,0,0.010850694444444444,0,0)" xlink:href="#ag" id="V"/><g id="W"><use transform="matrix(0.010850694444444444,0,0,0.010850694444444444,0,0)" xlink:href="#aj"/><use transform="matrix(0.010850694444444444,0,0,0.010850694444444444,7.269965277777778,0)" xlink:href="#aw"/><use transform="matrix(0.010850694444444444,0,0,0.010850694444444444,20.41015625,0)" xlink:href="#ak"/><use transform="matrix(0.010850694444444444,0,0,0.010850694444444444,28.40711805555556,0)" xlink:href="#af"/><use transform="matrix(0.010850694444444444,0,0,0.010850694444444444,41.579861111111114,0)" xlink:href="#ag"/><use transform="matrix(0.010850694444444444,0,0,0.010850694444444444,54.05815972222223,0)" xlink:href="#ax"/></g><g id="X"><use transform="matrix(0.010850694444444444,0,0,0.010850694444444444,0,0)" xlink:href="#aN"/><use transform="matrix(0.010850694444444444,0,0,0.010850694444444444,14.192708333333332,0)" xlink:href="#ag"/><use transform="matrix(0.010850694444444444,0,0,0.010850694444444444,26.671006944444443,0)" xlink:href="#ak"/><use transform="matrix(0.010850694444444444,0,0,0.010850694444444444,35.38411458333333,0)" xlink:href="#aj"/><use transform="matrix(0.010850694444444444,0,0,0.010850694444444444,42.43706597222222,0)" xlink:href="#af"/></g><g id="Y"><use transform="matrix(0.010850694444444444,0,0,0.010850694444444444,0,0)" xlink:href="#aO"/><use transform="matrix(0.010850694444444444,0,0,0.010850694444444444,13.606770833333332,0)" xlink:href="#aE"/><use transform="matrix(0.010850694444444444,0,0,0.010850694444444444,26.746961805555554,0)" xlink:href="#af"/></g><g id="Z"><use transform="matrix(0.010850694444444444,0,0,0.010850694444444444,0,0)" xlink:href="#aA"/><use transform="matrix(0.010850694444444444,0,0,0.010850694444444444,5.381944444444445,0)" xlink:href="#af"/></g><g id="aa"><use transform="matrix(0.010850694444444444,0,0,0.010850694444444444,0,0)" xlink:href="#aj"/><use transform="matrix(0.010850694444444444,0,0,0.010850694444444444,7.052951388888888,0)" xlink:href="#aG"/><use transform="matrix(0.010850694444444444,0,0,0.010850694444444444,20.377604166666664,0)" xlink:href="#aP"/><use transform="matrix(0.010850694444444444,0,0,0.010850694444444444,33.28993055555556,0)" xlink:href="#ag"/></g><use transform="matrix(0.010850694444444444,0,0,0.010850694444444444,0,0)" xlink:href="#ag" id="ab"/><g id="ac"><use transform="matrix(0.010850694444444444,0,0,0.010850694444444444,0,0)" xlink:href="#aj"/><use transform="matrix(0.010850694444444444,0,0,0.010850694444444444,7.269965277777778,0)" xlink:href="#aw"/><use transform="matrix(0.010850694444444444,0,0,0.010850694444444444,20.41015625,0)" xlink:href="#ak"/><use transform="matrix(0.010850694444444444,0,0,0.010850694444444444,28.40711805555556,0)" xlink:href="#af"/><use transform="matrix(0.010850694444444444,0,0,0.010850694444444444,41.579861111111114,0)" xlink:href="#ag"/><use transform="matrix(0.010850694444444444,0,0,0.010850694444444444,54.05815972222223,0)" xlink:href="#ax"/></g><use transform="matrix(0.010850694444444444,0,0,0.010850694444444444,0,0)" xlink:href="#as" id="ad"/></defs></g></svg>