<svg version="1.1" viewBox="0.0 0.0 600.0 371.0" fill="none" stroke="none" stroke-linecap="square" stroke-miterlimit="10" width="600" height="371" xmlns:xlink="http://www.w3.org/1999/xlink" xmlns="http://www.w3.org/2000/svg"><path fill="#ffffff" d="M0 0L600.0 0L600.0 371.0L0 371.0L0 0Z" fill-rule="nonzero"/><path stroke="#cccccc" stroke-width="1.0" stroke-linecap="butt" d="M77.5 300.5L581.5 300.5" fill-rule="nonzero"/><path stroke="#cccccc" stroke-width="1.0" stroke-linecap="butt" d="M77.5 240.5L581.5 240.5" fill-rule="nonzero"/><path stroke="#cccccc" stroke-width="1.0" stroke-linecap="butt" d="M77.5 181.5L581.5 181.5" fill-rule="nonzero"/><path stroke="#cccccc" stroke-width="1.0" stroke-linecap="butt" d="M77.5 121.5L581.5 121.5" fill-rule="nonzero"/><path stroke="#cccccc" stroke-width="1.0" stroke-linecap="butt" d="M77.5 61.5L581.5 61.5" fill-rule="nonzero"/><clipPath id="id_0"><path d="M77.55 61.916668L581.45 61.916668L581.45 300.45L77.55 300.45L77.55 61.916668Z" clip-rule="nonzero"/></clipPath><path stroke="#4285f4" stroke-width="2.0" stroke-linecap="butt" clip-path="url(#id_0)" d="M119.541664 216.7731L203.525 99.461815L287.50833 259.95837L371.49167 279.52167L455.475 285.23157L539.4583 280.251" fill-rule="nonzero"/><path fill="#000000" fill-opacity="0.0" clip-path="url(#id_0)" d="M122.541664 216.7731C122.541664 218.42996 121.198524 219.7731 119.541664 219.7731C117.88481 219.7731 116.541664 218.42996 116.541664 216.7731C116.541664 215.11624 117.88481 213.7731 119.541664 213.7731C121.198524 213.7731 122.541664 215.11624 122.541664 216.7731Z" fill-rule="nonzero"/><path fill="#000000" fill-opacity="0.0" clip-path="url(#id_0)" d="M206.525 99.461815C206.525 101.11867 205.18185 102.461815 203.525 102.461815C201.86815 102.461815 200.525 101.11867 200.525 99.461815C200.525 97.80496 201.86815 96.461815 203.525 96.461815C205.18185 96.461815 206.525 97.80496 206.525 99.461815Z" fill-rule="nonzero"/><path fill="#000000" fill-opacity="0.0" clip-path="url(#id_0)" d="M290.50833 259.95837C290.50833 261.61523 289.1652 262.95837 287.50833 262.95837C285.85147 262.95837 284.50833 261.61523 284.50833 259.95837C284.50833 258.3015 285.85147 256.95837 287.50833 256.95837C289.1652 256.95837 290.50833 258.3015 290.50833 259.95837Z" fill-rule="nonzero"/><path fill="#000000" fill-opacity="0.0" clip-path="url(#id_0)" d="M374.49167 279.52167C374.49167 281.17853 373.14853 282.52167 371.49167 282.52167C369.8348 282.52167 368.49167 281.17853 368.49167 279.52167C368.49167 277.86484 369.8348 276.52167 371.49167 276.52167C373.14853 276.52167 374.49167 277.86484 374.49167 279.52167Z" fill-rule="nonzero"/><path fill="#000000" fill-opacity="0.0" clip-path="url(#id_0)" d="M458.475 285.23157C458.475 286.88843 457.13187 288.23157 455.475 288.23157C453.81815 288.23157 452.475 286.88843 452.475 285.23157C452.475 283.5747 453.81815 282.23157 455.475 282.23157C457.13187 282.23157 458.475 283.5747 458.475 285.23157Z" fill-rule="nonzero"/><path fill="#000000" fill-opacity="0.0" clip-path="url(#id_0)" d="M542.4583 280.251C542.4583 281.90784 541.1152 283.251 539.4583 283.251C537.80145 283.251 536.4583 281.90784 536.4583 280.251C536.4583 278.59415 537.80145 277.251 539.4583 277.251C541.1152 277.251 542.4583 278.59415 542.4583 280.251Z" fill-rule="nonzero"/><path fill="#000000" d="M305.32812 349.45L305.32812 340.85626L307.0625 340.85626L307.0625 349.45L305.32812 349.45ZM311.21875 343.23126L311.21875 344.54376L310.09375 344.54376L310.09375 347.04376Q310.09375 347.8094 310.125 347.9344Q310.15625 348.0594 310.26562 348.15314Q310.39062 348.23126 310.54688 348.23126Q310.78125 348.23126 311.20312 348.0594L311.34375 349.34064Q310.78125 349.59064 310.04688 349.59064Q309.60938 349.59064 309.25 349.45Q308.89062 349.29376 308.71875 349.0594Q308.5625 348.8094 308.48438 348.41876Q308.4375 348.1219 308.4375 347.2469L308.4375 344.54376L307.6875 344.54376L307.6875 343.23126L308.4375 343.23126L308.4375 341.9969L310.09375 341.02814L310.09375 343.23126L311.21875 343.23126ZM315.96875 347.46564L317.60938 347.7469Q317.29688 348.65314 316.60938 349.1219Q315.92188 349.59064 314.90625 349.59064Q313.28125 349.59064 312.5 348.52814Q311.875 347.6844 311.875 346.3875Q311.875 344.84064 312.6875 343.96564Q313.5 343.09064 314.73438 343.09064Q316.125 343.09064 316.92188 344.0125Q317.73438 344.91876 317.6875 346.8094L313.5625 346.8094Q313.59375 347.54376 313.96875 347.95Q314.34375 348.35626 314.92188 348.35626Q315.29688 348.35626 315.5625 348.15314Q315.82812 347.9344 315.96875 347.46564ZM316.0625 345.8094Q316.04688 345.09064 315.6875 344.71564Q315.34375 344.34064 314.82812 344.34064Q314.29688 344.34064 313.9375 344.73126Q313.59375 345.1375 313.59375 345.8094L316.0625 345.8094ZM320.9375 349.45L319.29688 349.45L319.29688 343.23126L320.82812 343.23126L320.82812 344.10626Q321.21875 343.48126 321.53125 343.29376Q321.84375 343.09064 322.23438 343.09064Q322.79688 343.09064 323.32812 343.40314L322.8125 344.825Q322.39062 344.5594 322.04688 344.5594Q321.6875 344.5594 321.45312 344.7625Q321.21875 344.95 321.07812 345.45Q320.9375 345.9344 320.9375 347.52814L320.9375 349.45ZM325.59375 345.1219L324.09375 344.85626Q324.34375 343.95 324.95312 343.52814Q325.57812 343.09064 326.79688 343.09064Q327.89062 343.09064 328.42188 343.35626Q328.96875 343.60626 329.1875 344.0125Q329.40625 344.40314 329.40625 345.48126L329.39062 347.40314Q329.39062 348.23126 329.46875 348.6219Q329.54688 348.9969 329.76562 349.45L328.14062 349.45Q328.07812 349.27814 327.98438 348.96564Q327.9375 348.8094 327.92188 348.7625Q327.5 349.1844 327.01562 349.3875Q326.54688 349.59064 326.0 349.59064Q325.03125 349.59064 324.46875 349.075Q323.92188 348.54376 323.92188 347.7469Q323.92188 347.21564 324.17188 346.8094Q324.4375 346.40314 324.89062 346.1844Q325.34375 345.95 326.20312 345.79376Q327.34375 345.575 327.79688 345.3875L327.79688 345.23126Q327.79688 344.7469 327.5625 344.54376Q327.32812 344.34064 326.67188 344.34064Q326.23438 344.34064 325.98438 344.5125Q325.75 344.6844 325.59375 345.1219ZM327.79688 346.46564Q327.48438 346.5594 326.79688 346.71564Q326.10938 346.85626 325.89062 346.9969Q325.57812 347.23126 325.57812 347.575Q325.57812 347.91876 325.82812 348.1844Q326.09375 348.4344 326.48438 348.4344Q326.9375 348.4344 327.34375 348.1375Q327.64062 347.91876 327.73438 347.59064Q327.79688 347.3875 327.79688 346.79376L327.79688 346.46564ZM336.78125 345.0594L335.17188 345.35626Q335.07812 344.8719 334.78125 344.6375Q334.5 344.3875 334.04688 344.3875Q333.42188 344.3875 333.04688 344.8094Q332.6875 345.23126 332.6875 346.23126Q332.6875 347.34064 333.0625 347.79376Q333.4375 348.2469 334.0625 348.2469Q334.53125 348.2469 334.82812 347.98126Q335.125 347.71564 335.25 347.0594L336.875 347.34064Q336.625 348.45 335.90625 349.02814Q335.1875 349.59064 333.98438 349.59064Q332.625 349.59064 331.8125 348.73126Q331.0 347.8719 331.0 346.34064Q331.0 344.8094 331.8125 343.95Q332.625 343.09064 334.01562 343.09064Q335.15625 343.09064 335.82812 343.575Q336.5 344.0594 336.78125 345.0594ZM338.35938 342.3875L338.35938 340.85626L340.01562 340.85626L340.01562 342.3875L338.35938 342.3875ZM338.35938 349.45L338.35938 343.23126L340.01562 343.23126L340.01562 349.45L338.35938 349.45ZM340.98438 346.2469Q340.98438 345.4344 341.39062 344.66876Q341.79688 343.8875 342.53125 343.4969Q343.26562 343.09064 344.1875 343.09064Q345.59375 343.09064 346.5 344.0125Q347.40625 344.91876 347.40625 346.325Q347.40625 347.73126 346.48438 348.66876Q345.57812 349.59064 344.20312 349.59064Q343.34375 349.59064 342.5625 349.2Q341.79688 348.8094 341.39062 348.075Q340.98438 347.325 340.98438 346.2469ZM342.67188 346.34064Q342.67188 347.2625 343.10938 347.7625Q343.54688 348.2469 344.1875 348.2469Q344.84375 348.2469 345.26562 347.7625Q345.70312 347.2625 345.70312 346.325Q345.70312 345.41876 345.26562 344.9344Q344.84375 344.4344 344.1875 344.4344Q343.54688 344.4344 343.10938 344.9344Q342.67188 345.41876 342.67188 346.34064ZM354.01562 349.45L352.375 349.45L352.375 346.27814Q352.375 345.2625 352.26562 344.96564Q352.17188 344.66876 351.92188 344.5125Q351.6875 344.34064 351.35938 344.34064Q350.92188 344.34064 350.57812 344.575Q350.25 344.8094 350.125 345.2Q350.0 345.59064 350.0 346.6375L350.0 349.45L348.34375 349.45L348.34375 343.23126L349.875 343.23126L349.875 344.1375Q350.6875 343.09064 351.9375 343.09064Q352.46875 343.09064 352.92188 343.29376Q353.375 343.48126 353.60938 343.79376Q353.84375 344.09064 353.92188 344.48126Q354.01562 344.85626 354.01562 345.575L354.01562 349.45Z" fill-rule="nonzero"/><path fill="#000000" d="M29.550013 220.76146L20.956263 220.76146L20.956263 217.79271Q20.956263 216.79271 21.081263 216.26146Q21.253138 215.52708 21.690638 215.01146Q22.268763 214.32396 23.175013 213.99583Q24.065638 213.65208 25.206263 213.65208Q26.190638 213.65208 26.940638 213.88646Q27.690638 214.10521 28.190638 214.46458Q28.690638 214.82396 28.971888 215.26146Q29.253138 215.68333 29.409388 216.27708Q29.550013 216.87083 29.550013 217.65208L29.550013 220.76146ZM28.534388 219.62083L28.534388 217.79271Q28.534388 216.93333 28.378138 216.44896Q28.221888 215.96458 27.925013 215.68333Q27.534388 215.27708 26.846888 215.05833Q26.159388 214.82396 25.190638 214.82396Q23.846888 214.82396 23.128138 215.27708Q22.393763 215.71458 22.143763 216.33958Q21.971888 216.80833 21.971888 217.80833L21.971888 219.62083L28.534388 219.62083ZM29.550013 207.80833L28.628138 207.80833Q29.690638 208.54271 29.690638 209.79271Q29.690638 210.33958 29.487513 210.82396Q29.268763 211.29271 28.956263 211.52708Q28.628138 211.76146 28.159388 211.85521Q27.862513 211.91771 27.175013 211.91771L23.331263 211.91771L23.331263 210.85521L26.784388 210.85521Q27.596888 210.85521 27.893763 210.79271Q28.300013 210.69896 28.550013 210.38646Q28.784388 210.05833 28.784388 209.57396Q28.784388 209.10521 28.550013 208.69896Q28.300013 208.27708 27.878138 208.10521Q27.456263 207.91771 26.659388 207.91771L23.331263 207.91771L23.331263 206.87083L29.550013 206.87083L29.550013 207.80833ZM29.550013 204.90208L23.331263 204.90208L23.331263 203.94896L24.268763 203.94896Q23.612513 203.58958 23.409388 203.29271Q23.190638 202.98021 23.190638 202.60521Q23.190638 202.07396 23.518763 201.52708L24.503138 201.88646Q24.268763 202.27708 24.268763 202.65208Q24.268763 203.01146 24.487513 203.29271Q24.690638 203.55833 25.065638 203.66771Q25.628138 203.85521 26.284388 203.85521L29.550013 203.85521L29.550013 204.90208ZM28.784388 196.82396Q29.284388 197.41771 29.487513 197.96458Q29.690638 198.49583 29.690638 199.12083Q29.690638 200.15208 29.190638 200.69896Q28.690638 201.24583 27.909388 201.24583Q27.456263 201.24583 27.081263 201.04271Q26.690638 200.83958 26.471888 200.49583Q26.237513 200.15208 26.128138 199.73021Q26.034388 199.43333 25.956263 198.79271Q25.815638 197.52708 25.596888 196.91771Q25.378138 196.91771 25.331263 196.91771Q24.675013 196.91771 24.409388 197.21458Q24.065638 197.62083 24.065638 198.41771Q24.065638 199.15208 24.331263 199.51146Q24.581263 199.87083 25.237513 200.04271L25.096888 201.07396Q24.440638 200.93333 24.034388 200.60521Q23.628138 200.27708 23.409388 199.66771Q23.190638 199.05833 23.190638 198.26146Q23.190638 197.46458 23.378138 196.96458Q23.565638 196.46458 23.846888 196.23021Q24.128138 195.99583 24.565638 195.90208Q24.831263 195.85521 25.534388 195.85521L26.940638 195.85521Q28.409388 195.85521 28.800013 195.79271Q29.190638 195.71458 29.550013 195.51146L29.550013 196.62083Q29.221888 196.77708 28.784388 196.82396ZM26.425013 196.91771Q26.659388 197.49583 26.831263 198.63646Q26.925013 199.29271 27.050013 199.55833Q27.159388 199.82396 27.378138 199.98021Q27.596888 200.12083 27.878138 200.12083Q28.300013 200.12083 28.581263 199.80833Q28.862513 199.48021 28.862513 198.87083Q28.862513 198.26146 28.596888 197.79271Q28.331263 197.30833 27.862513 197.08958Q27.503138 196.91771 26.815638 196.91771L26.425013 196.91771ZM27.268763 189.82396L27.409388 188.79271Q28.471888 188.96458 29.081263 189.66771Q29.690638 190.37083 29.690638 191.38646Q29.690638 192.66771 28.862513 193.44896Q28.018763 194.21458 26.456263 194.21458Q25.456263 194.21458 24.706263 193.88646Q23.940638 193.54271 23.565638 192.87083Q23.190638 192.18333 23.190638 191.37083Q23.190638 190.37083 23.706263 189.73021Q24.206263 189.07396 25.159388 188.88646L25.315638 189.91771Q24.690638 190.05833 24.378138 190.43333Q24.050013 190.80833 24.050013 191.33958Q24.050013 192.13646 24.628138 192.63646Q25.190638 193.13646 26.425013 193.13646Q27.690638 193.13646 28.253138 192.65208Q28.815638 192.16771 28.815638 191.40208Q28.815638 190.77708 28.440638 190.37083Q28.065638 189.94896 27.268763 189.82396ZM22.175013 187.88646L20.956263 187.88646L20.956263 186.82396L22.175013 186.82396L22.175013 187.88646ZM29.550013 187.88646L23.331263 187.88646L23.331263 186.82396L29.550013 186.82396L29.550013 187.88646ZM26.440638 185.27708Q24.706263 185.27708 23.878138 184.32396Q23.190638 183.52708 23.190638 182.37083Q23.190638 181.08958 24.034388 180.27708Q24.862513 179.44896 26.346888 179.44896Q27.550013 179.44896 28.237513 179.80833Q28.925013 180.16771 29.315638 180.87083Q29.690638 181.55833 29.690638 182.37083Q29.690638 183.66771 28.862513 184.48021Q28.018763 185.27708 26.440638 185.27708ZM26.440638 184.19896Q27.628138 184.19896 28.221888 183.68333Q28.815638 183.15208 28.815638 182.37083Q28.815638 181.57396 28.221888 181.05833Q27.628138 180.54271 26.409388 180.54271Q25.253138 180.54271 24.659388 181.07396Q24.065638 181.58958 24.065638 182.37083Q24.065638 183.15208 24.659388 183.68333Q25.237513 184.19896 26.440638 184.19896ZM22.550013 182.94896L20.909388 182.16771L20.909388 180.77708L22.550013 182.07396L22.550013 182.94896ZM29.550013 177.88646L23.331263 177.88646L23.331263 176.94896L24.206263 176.94896Q23.190638 176.26146 23.190638 174.96458Q23.190638 174.40208 23.393763 173.93333Q23.596888 173.44896 23.925013 173.21458Q24.253138 172.98021 24.690638 172.88646Q24.987513 172.83958 25.721888 172.83958L29.550013 172.83958L29.550013 173.88646L25.768763 173.88646Q25.112513 173.88646 24.800013 174.01146Q24.487513 174.13646 24.300013 174.44896Q24.096888 174.76146 24.096888 175.18333Q24.096888 175.85521 24.534388 176.35521Q24.956263 176.83958 26.143763 176.83958L29.550013 176.83958L29.550013 177.88646ZM32.08126 165.87083Q30.971888 166.74583 29.503138 167.35521Q28.018763 167.94896 26.440638 167.94896Q25.050013 167.94896 23.768763 167.51146Q22.284388 166.98021 20.815638 165.87083L20.815638 165.12083Q22.034388 165.82396 22.550013 166.05833Q23.362513 166.41771 24.237513 166.62083Q25.331263 166.87083 26.440638 166.87083Q29.268763 166.87083 32.08126 165.12083L32.08126 165.87083ZM27.690638 164.30833L27.534388 163.27708Q28.159388 163.18333 28.487513 162.79271Q28.815638 162.38646 28.815638 161.65208Q28.815638 160.93333 28.534388 160.58958Q28.237513 160.23021 27.831263 160.23021Q27.471888 160.23021 27.268763 160.54271Q27.128138 160.76146 26.909388 161.62083Q26.612513 162.77708 26.409388 163.23021Q26.190638 163.66771 25.815638 163.90208Q25.440638 164.13646 24.971888 164.13646Q24.565638 164.13646 24.206263 163.94896Q23.846888 163.76146 23.612513 163.43333Q23.440638 163.18333 23.315638 162.76146Q23.190638 162.33958 23.190638 161.83958Q23.190638 161.12083 23.409388 160.57396Q23.612513 160.01146 23.971888 159.74583Q24.331263 159.48021 24.925013 159.38646L25.065638 160.41771Q24.596888 160.48021 24.331263 160.82396Q24.050013 161.15208 24.050013 161.77708Q24.050013 162.49583 24.300013 162.80833Q24.534388 163.12083 24.862513 163.12083Q25.065638 163.12083 25.221888 162.99583Q25.393763 162.85521 25.503138 162.58958Q25.565638 162.43333 25.768763 161.65208Q26.081263 160.52708 26.268763 160.08958Q26.456263 159.65208 26.815638 159.40208Q27.175013 159.15208 27.721888 159.15208Q28.253138 159.15208 28.721888 159.46458Q29.175013 159.76146 29.440638 160.33958Q29.690638 160.91771 29.690638 161.65208Q29.690638 162.87083 29.190638 163.51146Q28.675013 164.13646 27.690638 164.30833ZM32.08126 156.19896L32.08126 156.94896Q29.268763 155.19896 26.440638 155.19896Q25.346888 155.19896 24.253138 155.44896Q23.378138 155.65208 22.565638 156.01146Q22.050013 156.24583 20.815638 156.94896L20.815638 156.19896Q22.284388 155.10521 23.768763 154.57396Q25.050013 154.12083 26.440638 154.12083Q28.018763 154.12083 29.503138 154.73021Q30.971888 155.33958 32.08126 156.19896Z" fill-rule="nonzero"/><path fill="#000000" d="M54.425 304.45L54.425 302.3875L50.70625 302.3875L50.70625 301.41876L54.628124 295.85626L55.4875 295.85626L55.4875 301.41876L56.64375 301.41876L56.64375 302.3875L55.4875 302.3875L55.4875 304.45L54.425 304.45ZM54.425 301.41876L54.425 297.5594L51.7375 301.41876L54.425 301.41876ZM58.05 300.21564Q58.05 298.6844 58.3625 297.7625Q58.675 296.825 59.284374 296.325Q59.909374 295.825 60.846874 295.825Q61.534374 295.825 62.05 296.10626Q62.58125 296.3875 62.925 296.91876Q63.26875 297.4344 63.45625 298.1844Q63.64375 298.9344 63.64375 300.21564Q63.64375 301.73126 63.33125 302.65314Q63.034374 303.575 62.409374 304.09064Q61.8 304.59064 60.846874 304.59064Q59.6125 304.59064 58.89375 303.7Q58.05 302.6375 58.05 300.21564ZM59.128124 300.21564Q59.128124 302.325 59.628124 303.02814Q60.128124 303.73126 60.846874 303.73126Q61.58125 303.73126 62.065624 303.02814Q62.565624 302.325 62.565624 300.21564Q62.565624 298.09064 62.065624 297.40314Q61.58125 296.7 60.83125 296.7Q60.1125 296.7 59.675 297.3094Q59.128124 298.09064 59.128124 300.21564ZM65.05 300.21564Q65.05 298.6844 65.3625 297.7625Q65.675 296.825 66.28438 296.325Q66.90938 295.825 67.84688 295.825Q68.53438 295.825 69.05 296.10626Q69.58125 296.3875 69.925 296.91876Q70.26875 297.4344 70.45625 298.1844Q70.64375 298.9344 70.64375 300.21564Q70.64375 301.73126 70.33125 302.65314Q70.03438 303.575 69.40938 304.09064Q68.8 304.59064 67.84688 304.59064Q66.6125 304.59064 65.89375 303.7Q65.05 302.6375 65.05 300.21564ZM66.12813 300.21564Q66.12813 302.325 66.62813 303.02814Q67.12813 303.73126 67.84688 303.73126Q68.58125 303.73126 69.06563 303.02814Q69.56563 302.325 69.56563 300.21564Q69.56563 298.09064 69.06563 297.40314Q68.58125 296.7 67.83125 296.7Q67.1125 296.7 66.675 297.3094Q66.12813 298.09064 66.12813 300.21564Z" fill-rule="nonzero"/><path fill="#000000" d="M51.05 242.56667L52.159374 242.47292Q52.284374 243.28542 52.721874 243.69167Q53.175 244.09792 53.815624 244.09792Q54.565624 244.09792 55.096874 243.51979Q55.628124 242.94167 55.628124 242.00417Q55.628124 241.09792 55.1125 240.58229Q54.6125 240.05104 53.784374 240.05104Q53.284374 240.05104 52.8625 240.28542Q52.45625 240.51979 52.221874 240.87917L51.2375 240.75417L52.065624 236.34792L56.346874 236.34792L56.346874 237.34792L52.909374 237.34792L52.45625 239.66042Q53.221874 239.11354 54.065624 239.11354Q55.190624 239.11354 55.95625 239.89479Q56.7375 240.67604 56.7375 241.91042Q56.7375 243.06667 56.065624 243.92604Q55.2375 244.95729 53.815624 244.95729Q52.64375 244.95729 51.89375 244.30104Q51.159374 243.64479 51.05 242.56667ZM58.05 240.58229Q58.05 239.05104 58.3625 238.12917Q58.675 237.19167 59.284374 236.69167Q59.909374 236.19167 60.846874 236.19167Q61.534374 236.19167 62.05 236.47292Q62.58125 236.75417 62.925 237.28542Q63.26875 237.80104 63.45625 238.55104Q63.64375 239.30104 63.64375 240.58229Q63.64375 242.09792 63.33125 243.01979Q63.034374 243.94167 62.409374 244.45729Q61.8 244.95729 60.846874 244.95729Q59.6125 244.95729 58.89375 244.06667Q58.05 243.00417 58.05 240.58229ZM59.128124 240.58229Q59.128124 242.69167 59.628124 243.39479Q60.128124 244.09792 60.846874 244.09792Q61.58125 244.09792 62.065624 243.39479Q62.565624 242.69167 62.565624 240.58229Q62.565624 238.45729 62.065624 237.76979Q61.58125 237.06667 60.83125 237.06667Q60.1125 237.06667 59.675 237.67604Q59.128124 238.45729 59.128124 240.58229ZM65.05 240.58229Q65.05 239.05104 65.3625 238.12917Q65.675 237.19167 66.28438 236.69167Q66.90938 236.19167 67.84688 236.19167Q68.53438 236.19167 69.05 236.47292Q69.58125 236.75417 69.925 237.28542Q70.26875 237.80104 70.45625 238.55104Q70.64375 239.30104 70.64375 240.58229Q70.64375 242.09792 70.33125 243.01979Q70.03438 243.94167 69.40938 244.45729Q68.8 244.95729 67.84688 244.95729Q66.6125 244.95729 65.89375 244.06667Q65.05 243.00417 65.05 240.58229ZM66.12813 240.58229Q66.12813 242.69167 66.62813 243.39479Q67.12813 244.09792 67.84688 244.09792Q68.58125 244.09792 69.06563 243.39479Q69.56563 242.69167 69.56563 240.58229Q69.56563 238.45729 69.06563 237.76979Q68.58125 237.06667 67.83125 237.06667Q67.1125 237.06667 66.675 237.67604Q66.12813 238.45729 66.12813 240.58229Z" fill-rule="nonzero"/><path fill="#000000" d="M56.51875 178.69896L55.471874 178.77708Q55.33125 178.15208 55.08125 177.87083Q54.64375 177.41771 54.01875 177.41771Q53.51875 177.41771 53.128124 177.69896Q52.64375 178.07396 52.346874 178.77708Q52.065624 179.46458 52.05 180.74583Q52.425 180.16771 52.971874 179.88646Q53.534374 179.60521 54.14375 179.60521Q55.190624 179.60521 55.925 180.38646Q56.675 181.16771 56.675 182.38646Q56.675 183.19896 56.315624 183.90208Q55.971874 184.58958 55.3625 184.96458Q54.753124 185.32396 53.9875 185.32396Q52.659374 185.32396 51.83125 184.35521Q51.003124 183.38646 51.003124 181.16771Q51.003124 178.66771 51.925 177.54271Q52.721874 176.55833 54.08125 176.55833Q55.096874 176.55833 55.7375 177.13646Q56.39375 177.69896 56.51875 178.69896ZM52.221874 182.40208Q52.221874 182.94896 52.440624 183.44896Q52.675 183.93333 53.08125 184.19896Q53.503124 184.46458 53.971874 184.46458Q54.628124 184.46458 55.1125 183.93333Q55.596874 183.38646 55.596874 182.46458Q55.596874 181.57396 55.1125 181.05833Q54.64375 180.54271 53.925 180.54271Q53.20625 180.54271 52.70625 181.05833Q52.221874 181.57396 52.221874 182.40208ZM58.05 180.94896Q58.05 179.41771 58.3625 178.49583Q58.675 177.55833 59.284374 177.05833Q59.909374 176.55833 60.846874 176.55833Q61.534374 176.55833 62.05 176.83958Q62.58125 177.12083 62.925 177.65208Q63.26875 178.16771 63.45625 178.91771Q63.64375 179.66771 63.64375 180.94896Q63.64375 182.46458 63.33125 183.38646Q63.034374 184.30833 62.409374 184.82396Q61.8 185.32396 60.846874 185.32396Q59.6125 185.32396 58.89375 184.43333Q58.05 183.37083 58.05 180.94896ZM59.128124 180.94896Q59.128124 183.05833 59.628124 183.76146Q60.128124 184.46458 60.846874 184.46458Q61.58125 184.46458 62.065624 183.76146Q62.565624 183.05833 62.565624 180.94896Q62.565624 178.82396 62.065624 178.13646Q61.58125 177.43333 60.83125 177.43333Q60.1125 177.43333 59.675 178.04271Q59.128124 178.82396 59.128124 180.94896ZM65.05 180.94896Q65.05 179.41771 65.3625 178.49583Q65.675 177.55833 66.28438 177.05833Q66.90938 176.55833 67.84688 176.55833Q68.53438 176.55833 69.05 176.83958Q69.58125 177.12083 69.925 177.65208Q70.26875 178.16771 70.45625 178.91771Q70.64375 179.66771 70.64375 180.94896Q70.64375 182.46458 70.33125 183.38646Q70.03438 184.30833 69.40938 184.82396Q68.8 185.32396 67.84688 185.32396Q66.6125 185.32396 65.89375 184.43333Q65.05 183.37083 65.05 180.94896ZM66.12813 180.94896Q66.12813 183.05833 66.62813 183.76146Q67.12813 184.46458 67.84688 184.46458Q68.58125 184.46458 69.06563 183.76146Q69.56563 183.05833 69.56563 180.94896Q69.56563 178.82396 69.06563 178.13646Q68.58125 177.43333 67.83125 177.43333Q67.1125 177.43333 66.675 178.04271Q66.12813 178.82396 66.12813 180.94896Z" fill-rule="nonzero"/><path fill="#000000" d="M51.1125 118.08125L51.1125 117.06563L56.675 117.06563L56.675 117.89375Q55.8625 118.76875 55.05 120.22188Q54.253124 121.65938 53.815624 123.19063Q53.4875 124.26875 53.409374 125.55L52.315624 125.55Q52.33125 124.53438 52.70625 123.09688Q53.096874 121.65938 53.8 120.33125Q54.51875 119.00313 55.33125 118.08125L51.1125 118.08125ZM58.05 121.31563Q58.05 119.78438 58.3625 118.8625Q58.675 117.925 59.284374 117.425Q59.909374 116.925 60.846874 116.925Q61.534374 116.925 62.05 117.20625Q62.58125 117.4875 62.925 118.01875Q63.26875 118.53438 63.45625 119.28438Q63.64375 120.03438 63.64375 121.31563Q63.64375 122.83125 63.33125 123.75313Q63.034374 124.675 62.409374 125.19063Q61.8 125.69063 60.846874 125.69063Q59.6125 125.69063 58.89375 124.8Q58.05 123.7375 58.05 121.31563ZM59.128124 121.31563Q59.128124 123.425 59.628124 124.12813Q60.128124 124.83125 60.846874 124.83125Q61.58125 124.83125 62.065624 124.12813Q62.565624 123.425 62.565624 121.31563Q62.565624 119.19063 62.065624 118.50313Q61.58125 117.8 60.83125 117.8Q60.1125 117.8 59.675 118.40938Q59.128124 119.19063 59.128124 121.31563ZM65.05 121.31563Q65.05 119.78438 65.3625 118.8625Q65.675 117.925 66.28438 117.425Q66.90938 116.925 67.84688 116.925Q68.53438 116.925 69.05 117.20625Q69.58125 117.4875 69.925 118.01875Q70.26875 118.53438 70.45625 119.28438Q70.64375 120.03438 70.64375 121.31563Q70.64375 122.83125 70.33125 123.75313Q70.03438 124.675 69.40938 125.19063Q68.8 125.69063 67.84688 125.69063Q66.6125 125.69063 65.89375 124.8Q65.05 123.7375 65.05 121.31563ZM66.12813 121.31563Q66.12813 123.425 66.62813 124.12813Q67.12813 124.83125 67.84688 124.83125Q68.58125 124.83125 69.06563 124.12813Q69.56563 123.425 69.56563 121.31563Q69.56563 119.19063 69.06563 118.50313Q68.58125 117.8 67.83125 117.8Q67.1125 117.8 66.675 118.40938Q66.12813 119.19063 66.12813 121.31563Z" fill-rule="nonzero"/><path fill="#000000" d="M52.675 61.260414Q52.01875 61.010414 51.690624 60.572914Q51.378124 60.11979 51.378124 59.510414Q51.378124 58.572914 52.05 57.93229Q52.7375 57.291664 53.846874 57.291664Q54.971874 57.291664 55.659374 57.947914Q56.346874 58.604164 56.346874 59.541664Q56.346874 60.135414 56.034374 60.572914Q55.721874 61.010414 55.08125 61.260414Q55.878124 61.510414 56.284374 62.08854Q56.690624 62.666664 56.690624 63.46354Q56.690624 64.55729 55.909374 65.30729Q55.14375 66.05729 53.8625 66.05729Q52.596874 66.05729 51.815624 65.30729Q51.034374 64.55729 51.034374 63.43229Q51.034374 62.58854 51.45625 62.02604Q51.89375 61.46354 52.675 61.260414ZM52.45625 59.46354Q52.45625 60.072914 52.846874 60.46354Q53.253124 60.854164 53.878124 60.854164Q54.4875 60.854164 54.878124 60.479164Q55.26875 60.08854 55.26875 59.52604Q55.26875 58.947914 54.8625 58.55729Q54.45625 58.15104 53.8625 58.15104Q53.253124 58.15104 52.846874 58.541664Q52.45625 58.93229 52.45625 59.46354ZM52.128124 63.43229Q52.128124 63.885414 52.33125 64.30729Q52.55 64.729164 52.971874 64.96354Q53.39375 65.197914 53.878124 65.197914Q54.628124 65.197914 55.1125 64.71354Q55.6125 64.229164 55.6125 63.479164Q55.6125 62.71354 55.1125 62.21354Q54.6125 61.71354 53.846874 61.71354Q53.096874 61.71354 52.6125 62.21354Q52.128124 62.697914 52.128124 63.43229ZM58.05 61.68229Q58.05 60.15104 58.3625 59.229164Q58.675 58.291664 59.284374 57.791664Q59.909374 57.291664 60.846874 57.291664Q61.534374 57.291664 62.05 57.572914Q62.58125 57.854164 62.925 58.385414Q63.26875 58.90104 63.45625 59.65104Q63.64375 60.40104 63.64375 61.68229Q63.64375 63.197914 63.33125 64.11979Q63.034374 65.041664 62.409374 65.55729Q61.8 66.05729 60.846874 66.05729Q59.6125 66.05729 58.89375 65.166664Q58.05 64.104164 58.05 61.68229ZM59.128124 61.68229Q59.128124 63.791664 59.628124 64.49479Q60.128124 65.197914 60.846874 65.197914Q61.58125 65.197914 62.065624 64.49479Q62.565624 63.791664 62.565624 61.68229Q62.565624 59.55729 62.065624 58.86979Q61.58125 58.166664 60.83125 58.166664Q60.1125 58.166664 59.675 58.77604Q59.128124 59.55729 59.128124 61.68229ZM65.05 61.68229Q65.05 60.15104 65.3625 59.229164Q65.675 58.291664 66.28438 57.791664Q66.90938 57.291664 67.84688 57.291664Q68.53438 57.291664 69.05 57.572914Q69.58125 57.854164 69.925 58.385414Q70.26875 58.90104 70.45625 59.65104Q70.64375 60.40104 70.64375 61.68229Q70.64375 63.197914 70.33125 64.11979Q70.03438 65.041664 69.40938 65.55729Q68.8 66.05729 67.84688 66.05729Q66.6125 66.05729 65.89375 65.166664Q65.05 64.104164 65.05 61.68229ZM66.12813 61.68229Q66.12813 63.791664 66.62813 64.49479Q67.12813 65.197914 67.84688 65.197914Q68.58125 65.197914 69.06563 64.49479Q69.56563 63.791664 69.56563 61.68229Q69.56563 59.55729 69.06563 58.86979Q68.58125 58.166664 67.83125 58.166664Q67.1125 58.166664 66.675 58.77604Q66.12813 59.55729 66.12813 61.68229Z" fill-rule="nonzero"/><path fill="#000000" d="M116.08854 314.6844L117.15104 314.59064Q117.229164 315.2469 117.510414 315.65314Q117.791664 316.0594 118.36979 316.325Q118.96354 316.575 119.697914 316.575Q120.33854 316.575 120.83854 316.3875Q121.33854 316.1844 121.572914 315.85626Q121.822914 315.5125 121.822914 315.1219Q121.822914 314.71564 121.58854 314.41876Q121.354164 314.10626 120.822914 313.90314Q120.46354 313.7625 119.27604 313.48126Q118.104164 313.2 117.635414 312.95Q117.010414 312.6219 116.71354 312.15314Q116.416664 311.66876 116.416664 311.075Q116.416664 310.4344 116.77604 309.8719Q117.15104 309.29376 117.854164 309.0125Q118.572914 308.71564 119.43229 308.71564Q120.385414 308.71564 121.11979 309.02814Q121.854164 309.325 122.24479 309.9344Q122.635414 310.52814 122.666664 311.27814L121.572914 311.35626Q121.479164 310.54376 120.96354 310.1375Q120.46354 309.71564 119.479164 309.71564Q118.447914 309.71564 117.979164 310.09064Q117.510414 310.46564 117.510414 310.9969Q117.510414 311.46564 117.83854 311.7625Q118.166664 312.0594 119.541664 312.3719Q120.93229 312.6844 121.447914 312.91876Q122.197914 313.27814 122.55729 313.8094Q122.916664 314.325 122.916664 315.02814Q122.916664 315.71564 122.52604 316.325Q122.135414 316.91876 121.40104 317.2625Q120.666664 317.59064 119.74479 317.59064Q118.572914 317.59064 117.77604 317.2625Q116.99479 316.91876 116.541664 316.23126Q116.104164 315.54376 116.08854 314.6844Z" fill-rule="nonzero"/><path fill="#000000" d="M204.49374 317.45L203.44687 317.45L203.44687 310.73126Q203.05624 311.09064 202.43124 311.46564Q201.82187 311.825 201.3375 311.9969L201.3375 310.98126Q202.2125 310.5594 202.86874 309.98126Q203.54062 309.3875 203.82187 308.825L204.49374 308.825L204.49374 317.45Z" fill-rule="nonzero"/><path fill="#000000" d="M280.3052 317.45L280.3052 308.85626L281.35208 308.85626L281.35208 311.9344Q282.08646 311.09064 283.21146 311.09064Q283.91458 311.09064 284.41458 311.3719Q284.9302 311.6375 285.14896 312.1219Q285.3677 312.59064 285.3677 313.5125L285.3677 317.45L284.32083 317.45L284.32083 313.5125Q284.32083 312.71564 283.97708 312.35626Q283.63333 311.9969 283.00833 311.9969Q282.53958 311.9969 282.1177 312.2469Q281.71146 312.48126 281.52396 312.90314Q281.35208 313.3094 281.35208 314.04376L281.35208 317.45L280.3052 317.45ZM293.57083 314.4344L294.69583 314.73126Q294.33646 316.1219 293.41458 316.85626Q292.4927 317.59064 291.14896 317.59064Q289.75833 317.59064 288.88333 317.02814Q288.00833 316.46564 287.5552 315.40314Q287.10208 314.325 287.10208 313.09064Q287.10208 311.7469 287.6177 310.7469Q288.13333 309.7469 289.07083 309.23126Q290.02396 308.71564 291.16458 308.71564Q292.44583 308.71564 293.32083 309.3719Q294.21146 310.02814 294.5552 311.21564L293.4302 311.48126Q293.13333 310.54376 292.5552 310.1219Q291.9927 309.6844 291.13333 309.6844Q290.14896 309.6844 289.47708 310.16876Q288.82083 310.6375 288.53958 311.4344Q288.27396 312.23126 288.27396 313.09064Q288.27396 314.1844 288.58646 314.9969Q288.91458 315.8094 289.58646 316.21564Q290.25833 316.6219 291.0552 316.6219Q292.00833 316.6219 292.66458 316.075Q293.33646 315.52814 293.57083 314.4344Z" fill-rule="nonzero"/><path fill="#000000" d="M367.96042 317.45L366.91354 317.45L366.91354 310.73126Q366.52292 311.09064 365.89792 311.46564Q365.28854 311.825 364.80417 311.9969L364.80417 310.98126Q365.67917 310.5594 366.33542 309.98126Q367.0073 309.3875 367.28854 308.825L367.96042 308.825L367.96042 317.45ZM377.55417 314.4344L378.67917 314.73126Q378.3198 316.1219 377.39792 316.85626Q376.47604 317.59064 375.1323 317.59064Q373.74167 317.59064 372.86667 317.02814Q371.99167 316.46564 371.53854 315.40314Q371.08542 314.325 371.08542 313.09064Q371.08542 311.7469 371.60104 310.7469Q372.11667 309.7469 373.05417 309.23126Q374.0073 308.71564 375.14792 308.71564Q376.42917 308.71564 377.30417 309.3719Q378.1948 310.02814 378.53854 311.21564L377.41354 311.48126Q377.11667 310.54376 376.53854 310.1219Q375.97604 309.6844 375.11667 309.6844Q374.1323 309.6844 373.46042 310.16876Q372.80417 310.6375 372.52292 311.4344Q372.2573 312.23126 372.2573 313.09064Q372.2573 314.1844 372.5698 314.9969Q372.89792 315.8094 373.5698 316.21564Q374.24167 316.6219 375.03854 316.6219Q375.99167 316.6219 376.64792 316.075Q377.3198 315.52814 377.55417 314.4344Z" fill-rule="nonzero"/><path fill="#000000" d="M453.52188 316.4344L453.52188 317.45L447.83438 317.45Q447.83438 317.075 447.95938 316.71564Q448.17813 316.1375 448.64688 315.575Q449.13126 315.0125 450.0375 314.27814Q451.44376 313.1219 451.92813 312.45Q452.42813 311.77814 452.42813 311.1844Q452.42813 310.5594 451.975 310.1375Q451.52188 309.7 450.80313 309.7Q450.0375 309.7 449.58438 310.15314Q449.13126 310.60626 449.11563 311.41876L448.0375 311.3094Q448.14688 310.09064 448.86563 309.46564Q449.6 308.825 450.83438 308.825Q452.06876 308.825 452.7875 309.5125Q453.50626 310.2 453.50626 311.21564Q453.50626 311.73126 453.2875 312.23126Q453.08438 312.71564 452.58438 313.27814Q452.1 313.825 450.975 314.77814Q450.02188 315.575 449.74063 315.8719Q449.475 316.15314 449.30313 316.4344L453.52188 316.4344ZM461.5375 314.4344L462.6625 314.73126Q462.30313 316.1219 461.38126 316.85626Q460.45938 317.59064 459.11563 317.59064Q457.725 317.59064 456.85 317.02814Q455.975 316.46564 455.52188 315.40314Q455.06876 314.325 455.06876 313.09064Q455.06876 311.7469 455.58438 310.7469Q456.1 309.7469 457.0375 309.23126Q457.99063 308.71564 459.13126 308.71564Q460.4125 308.71564 461.2875 309.3719Q462.17813 310.02814 462.52188 311.21564L461.39688 311.48126Q461.1 310.54376 460.52188 310.1219Q459.95938 309.6844 459.1 309.6844Q458.11563 309.6844 457.44376 310.16876Q456.7875 310.6375 456.50626 311.4344Q456.24063 312.23126 456.24063 313.09064Q456.24063 314.1844 456.55313 314.9969Q456.88126 315.8094 457.55313 316.21564Q458.225 316.6219 459.02188 316.6219Q459.975 316.6219 460.63126 316.075Q461.30313 315.52814 461.5375 314.4344Z" fill-rule="nonzero"/><path fill="#000000" d="M535.3333 317.45L535.3333 315.3875L531.61456 315.3875L531.61456 314.41876L535.53644 308.85626L536.3958 308.85626L536.3958 314.41876L537.55206 314.41876L537.55206 315.3875L536.3958 315.3875L536.3958 317.45L535.3333 317.45ZM535.3333 314.41876L535.3333 310.5594L532.6458 314.41876L535.3333 314.41876ZM545.5208 314.4344L546.6458 314.73126Q546.28644 316.1219 545.36456 316.85626Q544.4427 317.59064 543.09894 317.59064Q541.7083 317.59064 540.8333 317.02814Q539.9583 316.46564 539.5052 315.40314Q539.05206 314.325 539.05206 313.09064Q539.05206 311.7469 539.5677 310.7469Q540.0833 309.7469 541.0208 309.23126Q541.97394 308.71564 543.11456 308.71564Q544.3958 308.71564 545.2708 309.3719Q546.16144 310.02814 546.5052 311.21564L545.3802 311.48126Q545.0833 310.54376 544.5052 310.1219Q543.9427 309.6844 543.0833 309.6844Q542.09894 309.6844 541.42706 310.16876Q540.7708 310.6375 540.48956 311.4344Q540.22394 312.23126 540.22394 313.09064Q540.22394 314.1844 540.53644 314.9969Q540.86456 315.8094 541.53644 316.21564Q542.2083 316.6219 543.0052 316.6219Q543.9583 316.6219 544.61456 316.075Q545.28644 315.52814 545.5208 314.4344Z" fill-rule="nonzero"/><path fill="#757575" d="M20.096874 37.55L20.096874 23.2375L25.01875 23.2375Q26.690624 23.2375 27.58125 23.440624Q28.8 23.721874 29.675 24.45625Q30.8 25.425 31.3625 26.909374Q31.925 28.39375 31.925 30.315624Q31.925 31.940624 31.55 33.20625Q31.175 34.45625 30.565624 35.284374Q29.971874 36.1125 29.26875 36.596874Q28.565624 37.065624 27.565624 37.315624Q26.565624 37.55 25.253124 37.55L20.096874 37.55ZM21.9875 35.8625L25.05 35.8625Q26.45625 35.8625 27.253124 35.596874Q28.065624 35.33125 28.55 34.846874Q29.221874 34.175 29.596874 33.05Q29.971874 31.909374 29.971874 30.284374Q29.971874 28.034374 29.2375 26.83125Q28.503124 25.628124 27.440624 25.221874Q26.690624 24.925 25.003124 24.925L21.9875 24.925L21.9875 35.8625ZM40.659374 37.55L40.659374 36.01875Q39.45625 37.784374 37.378124 37.784374Q36.45625 37.784374 35.659374 37.440624Q34.8625 37.08125 34.471874 36.55Q34.096874 36.01875 33.940624 35.2375Q33.83125 34.721874 33.83125 33.596874L33.83125 27.175L35.58125 27.175L35.58125 32.925Q35.58125 34.3 35.690624 34.784374Q35.8625 35.471874 36.39375 35.878124Q36.940624 36.26875 37.721874 36.26875Q38.51875 36.26875 39.20625 35.8625Q39.909374 35.45625 40.190624 34.76875Q40.4875 34.065624 40.4875 32.7375L40.4875 27.175L42.2375 27.175L42.2375 37.55L40.659374 37.55ZM43.846874 37.55L43.846874 27.175L45.425 27.175L45.425 28.753124Q46.034374 27.64375 46.55 27.3Q47.065624 26.940624 47.675 26.940624Q48.565624 26.940624 49.4875 27.503124L48.878124 29.14375Q48.2375 28.753124 47.596874 28.753124Q47.01875 28.753124 46.55 29.1125Q46.096874 29.45625 45.89375 30.065624Q45.6125 31.003124 45.6125 32.1125L45.6125 37.55L43.846874 37.55ZM57.64375 36.26875Q56.659374 37.096874 55.753124 37.440624Q54.846874 37.784374 53.815624 37.784374Q52.1125 37.784374 51.190624 36.95625Q50.26875 36.1125 50.26875 34.815624Q50.26875 34.05 50.6125 33.425Q50.971874 32.8 51.534374 32.425Q52.096874 32.034374 52.8 31.83125Q53.315624 31.70625 54.3625 31.565624Q56.4875 31.315624 57.4875 30.971874Q57.503124 30.6125 57.503124 30.503124Q57.503124 29.440624 57.003124 28.9875Q56.33125 28.39375 55.003124 28.39375Q53.753124 28.39375 53.159374 28.83125Q52.58125 29.26875 52.3 30.378124L50.58125 30.14375Q50.815624 29.034374 51.346874 28.3625Q51.878124 27.675 52.89375 27.315624Q53.909374 26.940624 55.253124 26.940624Q56.58125 26.940624 57.409374 27.253124Q58.2375 27.565624 58.628124 28.05Q59.01875 28.51875 59.175 29.2375Q59.26875 29.690624 59.26875 30.8625L59.26875 33.20625Q59.26875 35.659374 59.378124 36.315624Q59.4875 36.95625 59.83125 37.55L57.9875 37.55Q57.721874 37.003124 57.64375 36.26875ZM57.4875 32.346874Q56.534374 32.7375 54.6125 33.003124Q53.534374 33.159374 53.08125 33.3625Q52.64375 33.55 52.39375 33.925Q52.14375 34.3 52.14375 34.76875Q52.14375 35.471874 52.675 35.940624Q53.20625 36.409374 54.2375 36.409374Q55.253124 36.409374 56.034374 35.971874Q56.83125 35.51875 57.20625 34.753124Q57.4875 34.14375 57.4875 32.9875L57.4875 32.346874ZM68.64375 33.753124L70.3625 33.971874Q70.08125 35.76875 68.90938 36.784374Q67.75313 37.784374 66.05 37.784374Q63.925 37.784374 62.628124 36.39375Q61.33125 35.003124 61.33125 32.409374Q61.33125 30.721874 61.878124 29.471874Q62.440624 28.20625 63.58125 27.58125Q64.72188 26.940624 66.06563 26.940624Q67.75313 26.940624 68.81563 27.8Q69.89375 28.659374 70.20625 30.221874L68.4875 30.4875Q68.25313 29.440624 67.62813 28.925Q67.00313 28.39375 66.12813 28.39375Q64.8 28.39375 63.971874 29.346874Q63.14375 30.3 63.14375 32.346874Q63.14375 34.440624 63.940624 35.39375Q64.7375 36.33125 66.03438 36.33125Q67.06563 36.33125 67.75313 35.70625Q68.45625 35.065624 68.64375 33.753124ZM71.87813 25.253124L71.87813 23.2375L73.64375 23.2375L73.64375 25.253124L71.87813 25.253124ZM71.87813 37.55L71.87813 27.175L73.64375 27.175L73.64375 37.55L71.87813 37.55ZM75.22188 32.3625Q75.22188 29.4875 76.81563 28.096874Q78.15938 26.940624 80.08125 26.940624Q82.22188 26.940624 83.56563 28.346874Q84.925 29.753124 84.925 32.221874Q84.925 34.221874 84.33125 35.378124Q83.7375 36.51875 82.58125 37.159374Q81.44063 37.784374 80.08125 37.784374Q77.89375 37.784374 76.55 36.39375Q75.22188 34.9875 75.22188 32.3625ZM77.01875 32.3625Q77.01875 34.3625 77.87813 35.346874Q78.75313 36.33125 80.08125 36.33125Q81.39375 36.33125 82.25313 35.346874Q83.12813 34.346874 83.12813 32.3Q83.12813 30.378124 82.25313 29.39375Q81.37813 28.39375 80.08125 28.39375Q78.75313 28.39375 77.87813 29.39375Q77.01875 30.378124 77.01875 32.3625ZM79.1125 25.89375L80.40938 23.159374L82.70625 23.159374L80.56563 25.89375L79.1125 25.89375ZM86.8625 37.55L86.8625 27.175L88.45625 27.175L88.45625 28.659374Q89.59688 26.940624 91.75313 26.940624Q92.69063 26.940624 93.47188 27.284374Q94.26875 27.6125 94.65938 28.159374Q95.05 28.70625 95.20625 29.45625Q95.3 29.95625 95.3 31.175L95.3 37.55L93.53438 37.55L93.53438 31.2375Q93.53438 30.159374 93.33125 29.628124Q93.12813 29.096874 92.59688 28.784374Q92.08125 28.471874 91.37813 28.471874Q90.25313 28.471874 89.44063 29.190624Q88.62813 29.89375 88.62813 31.878124L88.62813 37.55L86.8625 37.55ZM106.22188 41.753124Q104.76875 39.925 103.76875 37.471874Q102.76875 35.003124 102.76875 32.3625Q102.76875 30.034374 103.51875 27.909374Q104.39375 25.440624 106.22188 22.9875L107.4875 22.9875Q106.3 25.01875 105.925 25.89375Q105.33125 27.2375 104.9875 28.70625Q104.56563 30.534374 104.56563 32.378124Q104.56563 37.065624 107.4875 41.753124L106.22188 41.753124ZM109.15938 34.45625L110.90938 34.175Q111.05 35.221874 111.72188 35.784374Q112.39375 36.33125 113.59688 36.33125Q114.8 36.33125 115.37813 35.846874Q115.97188 35.346874 115.97188 34.690624Q115.97188 34.096874 115.45625 33.753124Q115.09688 33.51875 113.65938 33.159374Q111.72188 32.659374 110.97188 32.315624Q110.2375 31.95625 109.84688 31.33125Q109.45625 30.690624 109.45625 29.925Q109.45625 29.2375 109.76875 28.64375Q110.09688 28.05 110.64375 27.659374Q111.05 27.3625 111.75313 27.159374Q112.47188 26.940624 113.28438 26.940624Q114.50313 26.940624 115.425 27.3Q116.34688 27.64375 116.78438 28.253124Q117.22188 28.846874 117.39375 29.846874L115.675 30.08125Q115.55 29.284374 114.9875 28.846874Q114.425 28.39375 113.40938 28.39375Q112.19063 28.39375 111.675 28.8Q111.15938 29.190624 111.15938 29.721874Q111.15938 30.065624 111.37813 30.346874Q111.58125 30.628124 112.05 30.815624Q112.31563 30.909374 113.59688 31.253124Q115.47188 31.753124 116.20625 32.08125Q116.94063 32.39375 117.3625 33.003124Q117.78438 33.596874 117.78438 34.503124Q117.78438 35.378124 117.26875 36.159374Q116.75313 36.940624 115.78438 37.3625Q114.81563 37.784374 113.59688 37.784374Q111.58125 37.784374 110.51875 36.940624Q109.45625 36.096874 109.15938 34.45625ZM121.01875 41.753124L119.76875 41.753124Q122.675 37.065624 122.675 32.378124Q122.675 30.534374 122.26875 28.7375Q121.925 27.26875 121.33125 25.925Q120.95625 25.034374 119.76875 22.9875L121.01875 22.9875Q122.8625 25.440624 123.7375 27.909374Q124.4875 30.034374 124.4875 32.3625Q124.4875 35.003124 123.47188 37.471874Q122.47188 39.925 121.01875 41.753124ZM133.28438 37.55L133.28438 28.55L131.7375 28.55L131.7375 27.175L133.28438 27.175L133.28438 26.08125Q133.28438 25.034374 133.47188 24.51875Q133.72188 23.83125 134.3625 23.409374Q135.00313 22.9875 136.15938 22.9875Q136.90938 22.9875 137.8 23.159374L137.53438 24.690624Q136.9875 24.596874 136.50313 24.596874Q135.70625 24.596874 135.3625 24.940624Q135.03438 25.284374 135.03438 26.221874L135.03438 27.175L137.06563 27.175L137.06563 28.55L135.03438 28.55L135.03438 37.55L133.28438 37.55ZM138.84688 37.55L138.84688 27.175L140.425 27.175L140.425 28.753124Q141.03438 27.64375 141.55 27.3Q142.06563 26.940624 142.675 26.940624Q143.56563 26.940624 144.4875 27.503124L143.87813 29.14375Q143.2375 28.753124 142.59688 28.753124Q142.01875 28.753124 141.55 29.1125Q141.09688 29.45625 140.89375 30.065624Q140.6125 31.003124 140.6125 32.1125L140.6125 37.55L138.84688 37.55ZM152.97188 34.20625L154.78438 34.440624Q154.3625 36.01875 153.19063 36.909374Q152.03438 37.784374 150.22188 37.784374Q147.95625 37.784374 146.6125 36.39375Q145.28438 34.9875 145.28438 32.45625Q145.28438 29.83125 146.62813 28.39375Q147.97188 26.940624 150.12813 26.940624Q152.20625 26.940624 153.51875 28.3625Q154.84688 29.76875 154.84688 32.346874Q154.84688 32.503124 154.83125 32.815624L147.09688 32.815624Q147.19063 34.51875 148.06563 35.425Q148.94063 36.33125 150.2375 36.33125Q151.20625 36.33125 151.87813 35.83125Q152.56563 35.315624 152.97188 34.20625ZM147.19063 31.3625L152.9875 31.3625Q152.87813 30.065624 152.33125 29.409374Q151.4875 28.39375 150.14375 28.39375Q148.94063 28.39375 148.1125 29.20625Q147.28438 30.003124 147.19063 31.3625ZM156.8625 37.55L156.8625 27.175L158.45625 27.175L158.45625 28.659374Q159.59688 26.940624 161.75313 26.940624Q162.69063 26.940624 163.47188 27.284374Q164.26875 27.6125 164.65938 28.159374Q165.05 28.70625 165.20625 29.45625Q165.3 29.95625 165.3 31.175L165.3 37.55L163.53438 37.55L163.53438 31.2375Q163.53438 30.159374 163.33125 29.628124Q163.12813 29.096874 162.59688 28.784374Q162.08125 28.471874 161.37813 28.471874Q160.25313 28.471874 159.44063 29.190624Q158.62813 29.89375 158.62813 31.878124L158.62813 37.55L156.8625 37.55ZM170.70625 35.971874L170.95625 37.534374Q170.22188 37.690624 169.62813 37.690624Q168.675 37.690624 168.14375 37.39375Q167.62813 37.08125 167.40938 36.596874Q167.19063 36.096874 167.19063 34.51875L167.19063 28.55L165.90938 28.55L165.90938 27.175L167.19063 27.175L167.19063 24.6125L168.94063 23.55L168.94063 27.175L170.70625 27.175L170.70625 28.55L168.94063 28.55L168.94063 34.6125Q168.94063 35.3625 169.03438 35.58125Q169.12813 35.784374 169.33125 35.925Q169.55 36.05 169.94063 36.05Q170.22188 36.05 170.70625 35.971874ZM179.97188 34.20625L181.78438 34.440624Q181.3625 36.01875 180.19063 36.909374Q179.03438 37.784374 177.22188 37.784374Q174.95625 37.784374 173.6125 36.39375Q172.28438 34.9875 172.28438 32.45625Q172.28438 29.83125 173.62813 28.39375Q174.97188 26.940624 177.12813 26.940624Q179.20625 26.940624 180.51875 28.3625Q181.84688 29.76875 181.84688 32.346874Q181.84688 32.503124 181.83125 32.815624L174.09688 32.815624Q174.19063 34.51875 175.06563 35.425Q175.94063 36.33125 177.2375 36.33125Q178.20625 36.33125 178.87813 35.83125Q179.56563 35.315624 179.97188 34.20625ZM174.19063 31.3625L179.9875 31.3625Q179.87813 30.065624 179.33125 29.409374Q178.4875 28.39375 177.14375 28.39375Q175.94063 28.39375 175.1125 29.20625Q174.28438 30.003124 174.19063 31.3625ZM196.64375 36.26875Q195.65938 37.096874 194.75313 37.440624Q193.84688 37.784374 192.81563 37.784374Q191.1125 37.784374 190.19063 36.95625Q189.26875 36.1125 189.26875 34.815624Q189.26875 34.05 189.6125 33.425Q189.97188 32.8 190.53438 32.425Q191.09688 32.034374 191.8 31.83125Q192.31563 31.70625 193.3625 31.565624Q195.4875 31.315624 196.4875 30.971874Q196.50313 30.6125 196.50313 30.503124Q196.50313 29.440624 196.00313 28.9875Q195.33125 28.39375 194.00313 28.39375Q192.75313 28.39375 192.15938 28.83125Q191.58125 29.26875 191.3 30.378124L189.58125 30.14375Q189.81563 29.034374 190.34688 28.3625Q190.87813 27.675 191.89375 27.315624Q192.90938 26.940624 194.25313 26.940624Q195.58125 26.940624 196.40938 27.253124Q197.2375 27.565624 197.62813 28.05Q198.01875 28.51875 198.175 29.2375Q198.26875 29.690624 198.26875 30.8625L198.26875 33.20625Q198.26875 35.659374 198.37813 36.315624Q198.4875 36.95625 198.83125 37.55L196.9875 37.55Q196.72188 37.003124 196.64375 36.26875ZM196.4875 32.346874Q195.53438 32.7375 193.6125 33.003124Q192.53438 33.159374 192.08125 33.3625Q191.64375 33.55 191.39375 33.925Q191.14375 34.3 191.14375 34.76875Q191.14375 35.471874 191.675 35.940624Q192.20625 36.409374 193.2375 36.409374Q194.25313 36.409374 195.03438 35.971874Q195.83125 35.51875 196.20625 34.753124Q196.4875 34.14375 196.4875 32.9875L196.4875 32.346874ZM207.40938 37.55L207.40938 23.2375L209.31563 23.2375L209.31563 37.55L207.40938 37.55ZM216.70625 35.971874L216.95625 37.534374Q216.22188 37.690624 215.62813 37.690624Q214.675 37.690624 214.14375 37.39375Q213.62813 37.08125 213.40938 36.596874Q213.19063 36.096874 213.19063 34.51875L213.19063 28.55L211.90938 28.55L211.90938 27.175L213.19063 27.175L213.19063 24.6125L214.94063 23.55L214.94063 27.175L216.70625 27.175L216.70625 28.55L214.94063 28.55L214.94063 34.6125Q214.94063 35.3625 215.03438 35.58125Q215.12813 35.784374 215.33125 35.925Q215.55 36.05 215.94063 36.05Q216.22188 36.05 216.70625 35.971874ZM225.97188 34.20625L227.78438 34.440624Q227.3625 36.01875 226.19063 36.909374Q225.03438 37.784374 223.22188 37.784374Q220.95625 37.784374 219.6125 36.39375Q218.28438 34.9875 218.28438 32.45625Q218.28438 29.83125 219.62813 28.39375Q220.97188 26.940624 223.12813 26.940624Q225.20625 26.940624 226.51875 28.3625Q227.84688 29.76875 227.84688 32.346874Q227.84688 32.503124 227.83125 32.815624L220.09688 32.815624Q220.19063 34.51875 221.06563 35.425Q221.94063 36.33125 223.2375 36.33125Q224.20625 36.33125 224.87813 35.83125Q225.56563 35.315624 225.97188 34.20625ZM220.19063 31.3625L225.9875 31.3625Q225.87813 30.065624 225.33125 29.409374Q224.4875 28.39375 223.14375 28.39375Q221.94063 28.39375 221.1125 29.20625Q220.28438 30.003124 220.19063 31.3625ZM229.84688 37.55L229.84688 27.175L231.425 27.175L231.425 28.753124Q232.03438 27.64375 232.55 27.3Q233.06563 26.940624 233.675 26.940624Q234.56563 26.940624 235.4875 27.503124L234.87813 29.14375Q234.2375 28.753124 233.59688 28.753124Q233.01875 28.753124 232.55 29.1125Q232.09688 29.45625 231.89375 30.065624Q231.6125 31.003124 231.6125 32.1125L231.6125 37.55L229.84688 37.55ZM243.64375 36.26875Q242.65938 37.096874 241.75313 37.440624Q240.84688 37.784374 239.81563 37.784374Q238.1125 37.784374 237.19063 36.95625Q236.26875 36.1125 236.26875 34.815624Q236.26875 34.05 236.6125 33.425Q236.97188 32.8 237.53438 32.425Q238.09688 32.034374 238.8 31.83125Q239.31563 31.70625 240.3625 31.565624Q242.4875 31.315624 243.4875 30.971874Q243.50313 30.6125 243.50313 30.503124Q243.50313 29.440624 243.00313 28.9875Q242.33125 28.39375 241.00313 28.39375Q239.75313 28.39375 239.15938 28.83125Q238.58125 29.26875 238.3 30.378124L236.58125 30.14375Q236.81563 29.034374 237.34688 28.3625Q237.87813 27.675 238.89375 27.315624Q239.90938 26.940624 241.25313 26.940624Q242.58125 26.940624 243.40938 27.253124Q244.2375 27.565624 244.62813 28.05Q245.01875 28.51875 245.175 29.2375Q245.26875 29.690624 245.26875 30.8625L245.26875 33.20625Q245.26875 35.659374 245.37813 36.315624Q245.4875 36.95625 245.83125 37.55L243.9875 37.55Q243.72188 37.003124 243.64375 36.26875ZM243.4875 32.346874Q242.53438 32.7375 240.6125 33.003124Q239.53438 33.159374 239.08125 33.3625Q238.64375 33.55 238.39375 33.925Q238.14375 34.3 238.14375 34.76875Q238.14375 35.471874 238.675 35.940624Q239.20625 36.409374 240.2375 36.409374Q241.25313 36.409374 242.03438 35.971874Q242.83125 35.51875 243.20625 34.753124Q243.4875 34.14375 243.4875 32.9875L243.4875 32.346874ZM254.64375 33.753124L256.3625 33.971874Q256.08124 35.76875 254.90938 36.784374Q253.75313 37.784374 252.05 37.784374Q249.925 37.784374 248.62813 36.39375Q247.33125 35.003124 247.33125 32.409374Q247.33125 30.721874 247.87813 29.471874Q248.44063 28.20625 249.58125 27.58125Q250.72188 26.940624 252.06563 26.940624Q253.75313 26.940624 254.81563 27.8Q255.89375 28.659374 256.20624 30.221874L254.4875 30.4875Q254.25313 29.440624 253.62813 28.925Q253.00313 28.39375 252.12813 28.39375Q250.8 28.39375 249.97188 29.346874Q249.14375 30.3 249.14375 32.346874Q249.14375 34.440624 249.94063 35.39375Q250.7375 36.33125 252.03438 36.33125Q253.06563 36.33125 253.75313 35.70625Q254.45625 35.065624 254.64375 33.753124ZM257.8781 25.253124L257.8781 23.2375L259.64374 23.2375L259.64374 25.253124L257.8781 25.253124ZM257.8781 37.55L257.8781 27.175L259.64374 27.175L259.64374 37.55L257.8781 37.55ZM261.22186 32.3625Q261.22186 29.4875 262.8156 28.096874Q264.15936 26.940624 266.08124 26.940624Q268.22186 26.940624 269.5656 28.346874Q270.925 29.753124 270.925 32.221874Q270.925 34.221874 270.33124 35.378124Q269.7375 36.51875 268.58124 37.159374Q267.4406 37.784374 266.08124 37.784374Q263.89374 37.784374 262.55 36.39375Q261.22186 34.9875 261.22186 32.3625ZM263.01874 32.3625Q263.01874 34.3625 263.8781 35.346874Q264.7531 36.33125 266.08124 36.33125Q267.39374 36.33125 268.2531 35.346874Q269.1281 34.346874 269.1281 32.3Q269.1281 30.378124 268.2531 29.39375Q267.3781 28.39375 266.08124 28.39375Q264.7531 28.39375 263.8781 29.39375Q263.01874 30.378124 263.01874 32.3625ZM272.8625 37.55L272.8625 27.175L274.45624 27.175L274.45624 28.659374Q275.59686 26.940624 277.7531 26.940624Q278.6906 26.940624 279.47186 27.284374Q280.26874 27.6125 280.65936 28.159374Q281.05 28.70625 281.20624 29.45625Q281.3 29.95625 281.3 31.175L281.3 37.55L279.53436 37.55L279.53436 31.2375Q279.53436 30.159374 279.33124 29.628124Q279.1281 29.096874 278.59686 28.784374Q278.08124 28.471874 277.3781 28.471874Q276.2531 28.471874 275.4406 29.190624Q274.6281 29.89375 274.6281 31.878124L274.6281 37.55L272.8625 37.55Z" fill-rule="nonzero"/></svg>